{
.appVersion = "1230";
copyright = ...;
date = "2011-02-03 18:02:07 +0000";
designer = Yanone;
designerURL = "http://yanone.de/typedesign/";
disablesNiceNames = 1;
familyName = "Heisse Antiqua";
featurePrefixes = (
{
automatic = 1;
code = "languagesystem DFLT dflt;\012";
name = Languagesystems;
}
);
features = (
{
automatic = 1;
code = "feature lnum;\012feature onum;\012feature case;\012feature salt;\012feature ss01;\012";
name = aalt;
},
{
automatic = 1;
code = "sub zero by zero.lf;\012sub one by one.lf;\012sub two by two.lf;\012sub three by three.lf;\012sub four by four.lf;\012sub five by five.lf;\012sub six by six.lf;\012sub seven by seven.lf;\012sub eight by eight.lf;\012sub nine by nine.lf;\012";
name = lnum;
},
{
automatic = 1;
code = "sub zero.lf by zero;\012sub one.lf by one;\012sub two.lf by two;\012sub three.lf by three;\012sub four.lf by four;\012sub five.lf by five;\012sub six.lf by six;\012sub seven.lf by seven;\012sub eight.lf by eight;\012sub nine.lf by nine;\012";
name = onum;
},
{
automatic = 1;
code = "sub parenleft by parenleft.case;\012sub parenright by parenright.case;\012sub bracketleft by bracketleft.case;\012sub bracketright by bracketright.case;\012sub hyphen by hyphen.case;\012sub endash by endash.case;\012sub emdash by emdash.case;\012sub guillemotleft by guillemotleft.case;\012sub guillemotright by guillemotright.case;\012sub guilsinglleft by guilsinglleft.case;\012sub guilsinglright by guilsinglright.case;\012sub zero by zero.lf;\012sub one by one.lf;\012sub two by two.lf;\012sub three by three.lf;\012sub four by four.lf;\012sub five by five.lf;\012sub six by six.lf;\012sub seven by seven.lf;\012sub eight by eight.lf;\012sub nine by nine.lf;\012";
name = case;
},
{
automatic = 1;
code = "sub longs i by longs_i;\012sub longs l by longs_l;\012sub longs longs by longs_longs;\012";
name = hlig;
},
{
automatic = 1;

glyphs = (
{
glyphname = A;
layers = (
{
layerId = "DA0EFD29-AE33-4FCF-848B-DE0D51CB696F";
paths = (
{
closed = 1;
nodes = (
"23 -8 LINE",
"57 -3 OFFCURVE",
"106 -1 OFFCURVE",
"136 -1 CURVE SMOOTH",
"184 -1 OFFCURVE",
"244 -4 OFFCURVE",
"284 -8 CURVE",
"288 30 LINE",
"243 39 OFFCURVE",
"179 60 OFFCURVE",
"155 83 CURVE",
"229 263 LINE",
"482 263 LINE",
"510 192 OFFCURVE",
"534 124 OFFCURVE",
"551 65 CURVE",
"523 48 OFFCURVE",
"484 34 OFFCURVE",
"455 28 CURVE",
"457 -8 LINE",
"491 -3 OFFCURVE",
"575 -1 OFFCURVE",
"613 -1 CURVE SMOOTH",
"661 -1 OFFCURVE",
"701 -4 OFFCURVE",
"741 -8 CURVE",
"745 37 LINE",
"719 44 OFFCURVE",
"701 53 OFFCURVE",
"684 65 CURVE",
"395 711 LINE",
"378 711 LINE",
"251 665 LINE",
"249 638 LINE",
"317 622 LINE",
"86 68 LINE",
"68 51 OFFCURVE",
"39 37 OFFCURVE",
"16 30 CURVE"
);
},
{
closed = 1;
nodes = (
"381 500 LINE",
"409 437 OFFCURVE",
"436 374 OFFCURVE",
"462 312 CURVE",
"249 312 LINE",
"326 499 LINE",
"353 579 LINE"
);
}
);
width = 773;
}
);
leftKerningGroup = A;
note = A;
rightKerningGroup = A;
unicode = 0041;
},
{
glyphname = Aacute;
layers = (
{
layerId = "DA0EFD29-AE33-4FCF-848B-DE0D51CB696F";
paths = (
{
closed = 1;
nodes = (
"23 -8 LINE",
"57 -3 OFFCURVE",
"106 -1 OFFCURVE",
"136 -1 CURVE SMOOTH",
"184 -1 OFFCURVE",
"244 -4 OFFCURVE",
"284 -8 CURVE",
"288 30 LINE",
"243 39 OFFCURVE",
"179 60 OFFCURVE",
"155 83 CURVE",
"229 263 LINE",
"482 263 LINE",
"510 192 OFFCURVE",
"534 124 OFFCURVE",
"551 65 CURVE",
"523 48 OFFCURVE",
"484 34 OFFCURVE",
"455 28 CURVE",
"457 -8 LINE",
"491 -3 OFFCURVE",
"575 -1 OFFCURVE",
"613 -1 CURVE SMOOTH",
"661 -1 OFFCURVE",
"701 -4 OFFCURVE",
"741 -8 CURVE",
"745 37 LINE",
"719 44 OFFCURVE",
"701 53 OFFCURVE",
"684 65 CURVE",
"395 711 LINE",
"378 711 LINE",
"251 665 LINE",
"249 638 LINE",
"317 622 LINE",
"86 68 LINE",
"68 51 OFFCURVE",
"39 37 OFFCURVE",
"16 30 CURVE"
);
},
{
closed = 1;
nodes = (
"381 500 LINE",
"409 437 OFFCURVE",
"436 374 OFFCURVE",
"462 312 CURVE",
"249 312 LINE",
"326 499 LINE",
"353 579 LINE"
);
},
{
closed = 1;
nodes = (
"303 739 LINE",
"380 760 OFFCURVE",
"425 807 OFFCURVE",
"444 866 CURVE",
"391 902 LINE",
"361 898 LINE",
"354 855 OFFCURVE",
"324 808 OFFCURVE",
"279 774 CURVE"
);
}
);
width = 773;
}
);
leftKerningGroup = A;
note = Aacute;
rightKerningGroup = A;
unicode = 00C1;
},
{
glyphname = Acircumflex;
layers = (
{
layerId = "DA0EFD29-AE33-4FCF-848B-DE0D51CB696F";
paths = (
{
closed = 1;
nodes = (
"23 -8 LINE",
"57 -3 OFFCURVE",
"106 -1 OFFCURVE",
"136 -1 CURVE SMOOTH",
"184 -1 OFFCURVE",
"244 -4 OFFCURVE",
"284 -8 CURVE",
"288 30 LINE",
"243 39 OFFCURVE",
"179 60 OFFCURVE",
"155 83 CURVE",
"229 263 LINE",
"482 263 LINE",
"510 192 OFFCURVE",
"534 124 OFFCURVE",
"551 65 CURVE",
"523 48 OFFCURVE",
"484 34 OFFCURVE",
"455 28 CURVE",
"457 -8 LINE",
"491 -3 OFFCURVE",
"575 -1 OFFCURVE",
"613 -1 CURVE SMOOTH",
"661 -1 OFFCURVE",
"701 -4 OFFCURVE",
"741 -8 CURVE",
"745 37 LINE",
"719 44 OFFCURVE",
"701 53 OFFCURVE",
"684 65 CURVE",
"395 711 LINE",
"378 711 LINE",
"251 665 LINE",
"249 638 LINE",
"317 622 LINE",
"86 68 LINE",
"68 51 OFFCURVE",
"39 37 OFFCURVE",
"16 30 CURVE"
);
},
{
closed = 1;
nodes = (
"381 500 LINE",
"409 437 OFFCURVE",
"436 374 OFFCURVE",
"462 312 CURVE",
"249 312 LINE",
"326 499 LINE",
"353 579 LINE"
);
},
{
closed = 1;
nodes = (
"340 876 LINE",
"243 777 LINE",
"263 754 LINE",
"350 794 LINE",
"433 755 LINE",
"463 777 LINE",
"387 876 LINE"
);
}
);
width = 773;
}
);
leftKerningGroup = A;
note = Acircumflex;
rightKerningGroup = A;
unicode = 00C2;
},
{
glyphname = Adieresis;
layers = (
{
layerId = "DA0EFD29-AE33-4FCF-848B-DE0D51CB696F";
paths = (
{
closed = 1;
nodes = (
"23 -8 LINE",
"57 -3 OFFCURVE",
"106 -1 OFFCURVE",
"136 -1 CURVE SMOOTH",
"184 -1 OFFCURVE",
"244 -4 OFFCURVE",
"284 -8 CURVE",
"288 30 LINE",
"243 39 OFFCURVE",
"179 60 OFFCURVE",
"155 83 CURVE",
"229 263 LINE",
"482 263 LINE",
"510 192 OFFCURVE",
"534 124 OFFCURVE",
"551 65 CURVE",
"523 48 OFFCURVE",
"484 34 OFFCURVE",
"455 28 CURVE",
"457 -8 LINE",
"491 -3 OFFCURVE",
"575 -1 OFFCURVE",
"613 -1 CURVE SMOOTH",
"661 -1 OFFCURVE",
"701 -4 OFFCURVE",
"741 -8 CURVE",
"745 37 LINE",
"719 44 OFFCURVE",
"701 53 OFFCURVE",
"684 65 CURVE",
"395 711 LINE",
"378 711 LINE",
"251 665 LINE",
"249 638 LINE",
"317 622 LINE",
"86 68 LINE",
"68 51 OFFCURVE",
"39 37 OFFCURVE",
"16 30 CURVE"
);
},
{
closed = 1;
nodes = (
"381 500 LINE",
"409 437 OFFCURVE",
"436 374 OFFCURVE",
"462 312 CURVE",
"249 312 LINE",
"326 499 LINE",
"353 579 LINE"
);
},
{
closed = 1;
nodes = (
"196 803 OFFCURVE",
"219 776 OFFCURVE",
"253 776 CURVE SMOOTH",
"288 776 OFFCURVE",
"319 807 OFFCURVE",
"319 847 CURVE SMOOTH",
"319 879 OFFCURVE",
"295 906 OFFCURVE",
"261 906 CURVE SMOOTH",
"227 906 OFFCURVE",
"196 875 OFFCURVE",
"196 836 CURVE SMOOTH"
);
},
{
closed = 1;
nodes = (
"392 803 OFFCURVE",
"415 776 OFFCURVE",
"450 776 CURVE SMOOTH",
"484 776 OFFCURVE",
"516 807 OFFCURVE",
"516 847 CURVE SMOOTH",
"516 879 OFFCURVE",
"492 906 OFFCURVE",
"457 906 CURVE SMOOTH",
"423 906 OFFCURVE",
"392 875 OFFCURVE",
"392 836 CURVE SMOOTH"
);
}
);
width = 773;
}
);
leftKerningGroup = A;
note = Adieresis;
rightKerningGroup = A;
unicode = 00C4;
},
{
glyphname = Agrave;
layers = (
{
layerId = "DA0EFD29-AE33-4FCF-848B-DE0D51CB696F";
paths = (
{
closed = 1;
nodes = (
"23 -8 LINE",
"57 -3 OFFCURVE",
"106 -1 OFFCURVE",
"136 -1 CURVE SMOOTH",
"184 -1 OFFCURVE",
"244 -4 OFFCURVE",
"284 -8 CURVE",
"288 30 LINE",
"243 39 OFFCURVE",
"179 60 OFFCURVE",
"155 83 CURVE",
"229 263 LINE",
"482 263 LINE",
"510 192 OFFCURVE",
"534 124 OFFCURVE",
"551 65 CURVE",
"523 48 OFFCURVE",
"484 34 OFFCURVE",
"455 28 CURVE",
"457 -8 LINE",
"491 -3 OFFCURVE",
"575 -1 OFFCURVE",
"613 -1 CURVE SMOOTH",
"661 -1 OFFCURVE",
"701 -4 OFFCURVE",
"741 -8 CURVE",
"745 37 LINE",
"719 44 OFFCURVE",
"701 53 OFFCURVE",
"684 65 CURVE",
"395 711 LINE",
"378 711 LINE",
"251 665 LINE",
"249 638 LINE",
"317 622 LINE",
"86 68 LINE",
"68 51 OFFCURVE",
"39 37 OFFCURVE",
"16 30 CURVE"
);
},
{
closed = 1;
nodes = (
"381 500 LINE",
"409 437 OFFCURVE",
"436 374 OFFCURVE",
"462 312 CURVE",
"249 312 LINE",
"326 499 LINE",
"353 579 LINE"
);
},
{
closed = 1;
nodes = (
"418 774 LINE",
"373 808 OFFCURVE",
"343 855 OFFCURVE",
"336 898 CURVE",
"306 902 LINE",
"253 866 LINE",
"272 807 OFFCURVE",
"317 760 OFFCURVE",
"394 739 CURVE"
);
}
);
width = 773;
}
);
leftKerningGroup = A;
note = Agrave;
rightKerningGroup = A;
unicode = 00C0;
},
{
glyphname = Atilde;
layers = (
{
layerId = "DA0EFD29-AE33-4FCF-848B-DE0D51CB696F";
paths = (
{
closed = 1;
nodes = (
"23 -8 LINE",
"57 -3 OFFCURVE",
"106 -1 OFFCURVE",
"136 -1 CURVE SMOOTH",
"184 -1 OFFCURVE",
"244 -4 OFFCURVE",
"284 -8 CURVE",
"288 30 LINE",
"243 39 OFFCURVE",
"179 60 OFFCURVE",
"155 83 CURVE",
"229 263 LINE",
"482 263 LINE",
"510 192 OFFCURVE",
"534 124 OFFCURVE",
"551 65 CURVE",
"523 48 OFFCURVE",
"484 34 OFFCURVE",
"455 28 CURVE",
"457 -8 LINE",
"491 -3 OFFCURVE",
"575 -1 OFFCURVE",
"613 -1 CURVE SMOOTH",
"661 -1 OFFCURVE",
"701 -4 OFFCURVE",
"741 -8 CURVE",
"745 37 LINE",
"719 44 OFFCURVE",
"701 53 OFFCURVE",
"684 65 CURVE",
"395 711 LINE",
"378 711 LINE",
"251 665 LINE",
"249 638 LINE",
"317 622 LINE",
"86 68 LINE",
"68 51 OFFCURVE",
"39 37 OFFCURVE",
"16 30 CURVE"
);
},
{
closed = 1;
nodes = (
"381 500 LINE",
"409 437 OFFCURVE",
"436 374 OFFCURVE",
"462 312 CURVE",
"249 312 LINE",
"326 499 LINE",
"353 579 LINE"
);
},
{
closed = 1;
nodes = (
"215 784 LINE",
"233 797 OFFCURVE",
"259 814 OFFCURVE",
"284 814 CURVE SMOOTH",
"333 814 OFFCURVE",
"348 771 OFFCURVE",
"412 771 CURVE SMOOTH",
"456 771 OFFCURVE",
"487 802 OFFCURVE",
"516 840 CURVE",
"501 861 LINE",
"479 846 OFFCURVE",
"456 835 OFFCURVE",
"424 835 CURVE SMOOTH",
"376 835 OFFCURVE",
"362 877 OFFCURVE",
"306 877 CURVE SMOOTH",
"261 877 OFFCURVE",
"213 829 OFFCURVE",
"196 805 CURVE"
);
}
);
width = 773;
}
);
leftKerningGroup = A;
note = Atilde;
rightKerningGroup = A;
unicode = 00C3;
},
{
glyphname = B;
layers = (
{
layerId = "DA0EFD29-AE33-4FCF-848B-DE0D51CB696F";
paths = (
{
closed = 1;
nodes = (
"132 233 OFFCURVE",
"126 135 OFFCURVE",
"120 58 CURVE",
"93 43 OFFCURVE",
"58 31 OFFCURVE",
"28 26 CURVE",
"34 -12 LINE",
"70 -6 OFFCURVE",
"122 -1 OFFCURVE",
"170 -1 CURVE SMOOTH",
"224 -1 OFFCURVE",
"282 -8 OFFCURVE",
"342 -8 CURVE SMOOTH",
"515 -8 OFFCURVE",
"608 67 OFFCURVE",
"608 191 CURVE SMOOTH",
"608 296 OFFCURVE",
"514 352 OFFCURVE",
"419 368 CURVE",
"501 387 OFFCURVE",
"565 451 OFFCURVE",
"565 530 CURVE SMOOTH",
"565 656 OFFCURVE",
"437 704 OFFCURVE",
"322 704 CURVE SMOOTH",
"271 704 OFFCURVE",
"243 700 OFFCURVE",
"197 700 CURVE SMOOTH",
"146 700 OFFCURVE",
"93 701 OFFCURVE",
"42 705 CURVE",
"35 667 LINE",
"66 663 OFFCURVE",
"97 655 OFFCURVE",
"124 638 CURVE",
"130 552 OFFCURVE",
"132 445 OFFCURVE",
"132 359 CURVE SMOOTH"
);
},
{
closed = 1;
nodes = (
"250 338 OFFCURVE",
"268 339 OFFCURVE",
"283 339 CURVE SMOOTH",
"427 339 OFFCURVE",
"498 269 OFFCURVE",
"498 179 CURVE SMOOTH",
"498 75 OFFCURVE",
"411 40 OFFCURVE",
"336 40 CURVE SMOOTH",
"298 40 OFFCURVE",
"271 45 OFFCURVE",
"244 56 CURVE",
"236 132 OFFCURVE",
"232 225 OFFCURVE",
"232 337 CURVE"
);
},
{
closed = 1;
nodes = (
"263 649 OFFCURVE",
"282 651 OFFCURVE",
"296 651 CURVE SMOOTH",
"401 651 OFFCURVE",
"455 594 OFFCURVE",
"455 518 CURVE SMOOTH",
"455 440 OFFCURVE",
"398 392 OFFCURVE",
"289 392 CURVE SMOOTH",
"271 392 OFFCURVE",
"254 392 OFFCURVE",
"232 393 CURVE",
"233 481 OFFCURVE",
"237 576 OFFCURVE",
"242 645 CURVE"
);
}
);
width = 678;
}
);
note = B;
rightKerningGroup = B;
unicode = 0042;
},
{
glyphname = C;
layers = (
{
layerId = "DA0EFD29-AE33-4FCF-848B-DE0D51CB696F";
paths = (
{
closed = 1;
nodes = (
"731 183 LINE",
"694 192 LINE",
"646 99 LINE",
"603 62 OFFCURVE",
"540 40 OFFCURVE",
"474 40 CURVE SMOOTH",
"319 40 OFFCURVE",
"195 160 OFFCURVE",
"195 361 CURVE SMOOTH",
"195 531 OFFCURVE",
"308 659 OFFCURVE",
"459 659 CURVE SMOOTH",
"517 659 OFFCURVE",
"572 643 OFFCURVE",
"622 604 CURVE",
"681 516 LINE",
"720 528 LINE",
"702 656 LINE",
"606 700 OFFCURVE",
"537 710 OFFCURVE",
"463 710 CURVE SMOOTH",
"295 710 OFFCURVE",
"70 619 OFFCURVE",
"70 343 CURVE SMOOTH",
"70 109 OFFCURVE",
"269 -18 OFFCURVE",
"458 -18 CURVE SMOOTH",
"579 -18 OFFCURVE",
"643 8 OFFCURVE",
"725 59 CURVE"
);
}
);
width = 791;
}
);
leftKerningGroup = C;
note = C;
unicode = 0043;
},
{
glyphname = Ccedilla;
layers = (
{
layerId = "DA0EFD29-AE33-4FCF-848B-DE0D51CB696F";
paths = (
{
closed = 1;
nodes = (
"731 183 LINE",
"694 192 LINE",
"646 99 LINE",
"603 62 OFFCURVE",
"540 40 OFFCURVE",
"474 40 CURVE SMOOTH",
"319 40 OFFCURVE",
"195 160 OFFCURVE",
"195 361 CURVE SMOOTH",
"195 531 OFFCURVE",
"308 659 OFFCURVE",
"459 659 CURVE SMOOTH",
"517 659 OFFCURVE",
"572 643 OFFCURVE",
"622 604 CURVE",
"681 516 LINE",
"720 528 LINE",
"702 656 LINE",
"606 700 OFFCURVE",
"537 710 OFFCURVE",
"463 710 CURVE SMOOTH",
"295 710 OFFCURVE",
"70 619 OFFCURVE",
"70 343 CURVE SMOOTH",
"70 123 OFFCURVE",
"245 -2 OFFCURVE",
"423 -16 CURVE",
"423 -87 LINE",
"436 -82 OFFCURVE",
"451 -79 OFFCURVE",
"466 -79 CURVE SMOOTH",
"486 -79 OFFCURVE",
"504 -88 OFFCURVE",
"504 -112 CURVE SMOOTH",
"504 -137 OFFCURVE",
"485 -146 OFFCURVE",
"467 -146 CURVE SMOOTH",
"449 -146 OFFCURVE",
"438 -140 OFFCURVE",
"424 -131 CURVE",
"409 -161 LINE",
"425 -173 OFFCURVE",
"442 -180 OFFCURVE",
"464 -180 CURVE SMOOTH",
"499 -180 OFFCURVE",
"539 -158 OFFCURVE",
"539 -109 CURVE SMOOTH",
"539 -72 OFFCURVE",
"516 -48 OFFCURVE",
"488 -48 CURVE SMOOTH",
"471 -48 OFFCURVE",
"462 -51 OFFCURVE",
"451 -57 CURVE",
"451 -18 LINE",
"458 -18 LINE SMOOTH",
"579 -18 OFFCURVE",
"643 8 OFFCURVE",
"725 59 CURVE"
);
}
);
width = 791;
}
);
leftKerningGroup = C;
note = Ccedilla;
unicode = 00C7;
},
{
glyphname = D;
layers = (
{
layerId = "DA0EFD29-AE33-4FCF-848B-DE0D51CB696F";
paths = (
{
closed = 1;
nodes = (
"271 704 OFFCURVE",
"243 700 OFFCURVE",
"197 700 CURVE SMOOTH",
"146 700 OFFCURVE",
"93 701 OFFCURVE",
"42 705 CURVE",
"35 667 LINE",
"66 663 OFFCURVE",
"97 653 OFFCURVE",
"124 636 CURVE",
"130 550 OFFCURVE",
"132 444 OFFCURVE",
"132 359 CURVE SMOOTH",
"132 233 OFFCURVE",
"126 135 OFFCURVE",
"120 58 CURVE",
"93 42 OFFCURVE",
"58 28 OFFCURVE",
"28 26 CURVE",
"34 -12 LINE",
"70 -6 OFFCURVE",
"122 -1 OFFCURVE",
"170 -1 CURVE SMOOTH",
"224 -1 OFFCURVE",
"282 -8 OFFCURVE",
"342 -8 CURVE SMOOTH",
"590 -8 OFFCURVE",
"780 94 OFFCURVE",
"780 343 CURVE SMOOTH",
"780 602 OFFCURVE",
"580 704 OFFCURVE",
"322 704 CURVE SMOOTH"
);
},
{
closed = 1;
nodes = (
"232 450 OFFCURVE",
"236 566 OFFCURVE",
"242 648 CURVE",
"272 653 OFFCURVE",
"310 655 OFFCURVE",
"325 655 CURVE SMOOTH",
"540 655 OFFCURVE",
"659 512 OFFCURVE",
"659 337 CURVE SMOOTH",
"659 116 OFFCURVE",
"503 40 OFFCURVE",
"389 40 CURVE SMOOTH",
"327 40 OFFCURVE",
"279 53 OFFCURVE",
"242 72 CURVE",
"235 148 OFFCURVE",
"232 239 OFFCURVE",
"232 349 CURVE SMOOTH"
);
}
);
width = 850;
}
);
note = D;
rightKerningGroup = D;
unicode = 0044;
},
{
glyphname = E;
layers = (
{
layerId = "DA0EFD29-AE33-4FCF-848B-DE0D51CB696F";
paths = (
{
closed = 1;
nodes = (
"456 244 LINE",
"451 278 OFFCURVE",
"450 324 OFFCURVE",
"450 362 CURVE SMOOTH",
"450 403 OFFCURVE",
"453 440 OFFCURVE",
"458 480 CURVE",
"413 484 LINE",
"406 450 OFFCURVE",
"394 413 OFFCURVE",
"376 386 CURVE",
"231 386 LINE",
"231 475 OFFCURVE",
"233 570 OFFCURVE",
"238 642 CURVE",
"266 652 OFFCURVE",
"302 659 OFFCURVE",
"350 659 CURVE SMOOTH",
"393 659 OFFCURVE",
"444 651 OFFCURVE",
"480 634 CURVE",
"531 554 LINE",
"564 566 LINE",
"550 712 LINE",
"472 703 OFFCURVE",
"358 700 OFFCURVE",
"253 700 CURVE SMOOTH",
"151 700 OFFCURVE",
"67 702 OFFCURVE",
"33 707 CURVE",
"31 671 LINE",
"65 663 OFFCURVE",
"99 649 OFFCURVE",
"125 630 CURVE",
"130 545 OFFCURVE",
"131 442 OFFCURVE",
"131 359 CURVE SMOOTH",
"131 238 OFFCURVE",
"127 142 OFFCURVE",
"121 66 CURVE",
"96 48 OFFCURVE",
"63 35 OFFCURVE",
"31 28 CURVE",
"33 -8 LINE",
"67 -3 OFFCURVE",
"151 -1 OFFCURVE",
"189 -1 CURVE SMOOTH",
"254 -1 OFFCURVE",
"472 -5 OFFCURVE",
"550 -14 CURVE",
"594 133 LINE",
"567 146 LINE",
"504 67 LINE",
"461 51 OFFCURVE",
"407 40 OFFCURVE",
"350 40 CURVE SMOOTH",
"303 40 OFFCURVE",
"268 45 OFFCURVE",
"240 55 CURVE",
"232 132 OFFCURVE",
"231 225 OFFCURVE",
"231 337 CURVE",
"375 337 LINE",
"394 311 OFFCURVE",
"406 279 OFFCURVE",
"416 242 CURVE"
);
}
);
width = 634;
}
);
note = E;
rightKerningGroup = E;
unicode = 0045;
},
{
glyphname = Eacute;
layers = (
{
layerId = "DA0EFD29-AE33-4FCF-848B-DE0D51CB696F";
paths = (
{
closed = 1;
nodes = (
"456 244 LINE",
"451 278 OFFCURVE",
"450 324 OFFCURVE",
"450 362 CURVE SMOOTH",
"450 403 OFFCURVE",
"453 440 OFFCURVE",
"458 480 CURVE",
"413 484 LINE",
"406 450 OFFCURVE",
"394 413 OFFCURVE",
"376 386 CURVE",
"231 386 LINE",
"231 475 OFFCURVE",
"233 570 OFFCURVE",
"238 642 CURVE",
"266 652 OFFCURVE",
"302 659 OFFCURVE",
"350 659 CURVE SMOOTH",
"393 659 OFFCURVE",
"444 651 OFFCURVE",
"480 634 CURVE",
"531 554 LINE",
"564 566 LINE",
"550 712 LINE",
"472 703 OFFCURVE",
"358 700 OFFCURVE",
"253 700 CURVE SMOOTH",
"151 700 OFFCURVE",
"67 702 OFFCURVE",
"33 707 CURVE",
"31 671 LINE",
"65 663 OFFCURVE",
"99 649 OFFCURVE",
"125 630 CURVE",
"130 545 OFFCURVE",
"131 442 OFFCURVE",
"131 359 CURVE SMOOTH",
"131 238 OFFCURVE",
"127 142 OFFCURVE",
"121 66 CURVE",
"96 48 OFFCURVE",
"63 35 OFFCURVE",
"31 28 CURVE",
"33 -8 LINE",
"67 -3 OFFCURVE",
"151 -1 OFFCURVE",
"189 -1 CURVE SMOOTH",
"254 -1 OFFCURVE",
"472 -5 OFFCURVE",
"550 -14 CURVE",
"594 133 LINE",
"567 146 LINE",
"504 67 LINE",
"461 51 OFFCURVE",
"407 40 OFFCURVE",
"350 40 CURVE SMOOTH",
"303 40 OFFCURVE",
"268 45 OFFCURVE",
"240 55 CURVE",
"232 132 OFFCURVE",
"231 225 OFFCURVE",
"231 337 CURVE",
"375 337 LINE",
"394 311 OFFCURVE",
"406 279 OFFCURVE",
"416 242 CURVE"
);
},
{
closed = 1;
nodes = (
"259 729 LINE",
"336 750 OFFCURVE",
"381 797 OFFCURVE",
"400 856 CURVE",
"347 892 LINE",
"317 888 LINE",
"310 845 OFFCURVE",
"280 798 OFFCURVE",
"235 764 CURVE"
);
}
);
width = 634;
}
);
note = Eacute;
rightKerningGroup = E;
unicode = 00C9;
},
{
glyphname = Ecircumflex;
layers = (
{
layerId = "DA0EFD29-AE33-4FCF-848B-DE0D51CB696F";
paths = (
{
closed = 1;
nodes = (
"456 244 LINE",
"451 278 OFFCURVE",
"450 324 OFFCURVE",
"450 362 CURVE SMOOTH",
"450 403 OFFCURVE",
"453 440 OFFCURVE",
"458 480 CURVE",
"413 484 LINE",
"406 450 OFFCURVE",
"394 413 OFFCURVE",
"376 386 CURVE",
"231 386 LINE",
"231 475 OFFCURVE",
"233 570 OFFCURVE",
"238 642 CURVE",
"266 652 OFFCURVE",
"302 659 OFFCURVE",
"350 659 CURVE SMOOTH",
"393 659 OFFCURVE",
"444 651 OFFCURVE",
"480 634 CURVE",
"531 554 LINE",
"564 566 LINE",
"550 712 LINE",
"472 703 OFFCURVE",
"358 700 OFFCURVE",
"253 700 CURVE SMOOTH",
"151 700 OFFCURVE",
"67 702 OFFCURVE",
"33 707 CURVE",
"31 671 LINE",
"65 663 OFFCURVE",
"99 649 OFFCURVE",
"125 630 CURVE",
"130 545 OFFCURVE",
"131 442 OFFCURVE",
"131 359 CURVE SMOOTH",
"131 238 OFFCURVE",
"127 142 OFFCURVE",
"121 66 CURVE",
"96 48 OFFCURVE",
"63 35 OFFCURVE",
"31 28 CURVE",
"33 -8 LINE",
"67 -3 OFFCURVE",
"151 -1 OFFCURVE",
"189 -1 CURVE SMOOTH",
"254 -1 OFFCURVE",
"472 -5 OFFCURVE",
"550 -14 CURVE",
"594 133 LINE",
"567 146 LINE",
"504 67 LINE",
"461 51 OFFCURVE",
"407 40 OFFCURVE",
"350 40 CURVE SMOOTH",
"303 40 OFFCURVE",
"268 45 OFFCURVE",
"240 55 CURVE",
"232 132 OFFCURVE",
"231 225 OFFCURVE",
"231 337 CURVE",
"375 337 LINE",
"394 311 OFFCURVE",
"406 279 OFFCURVE",
"416 242 CURVE"
);
},
{
closed = 1;
nodes = (
"296 866 LINE",
"199 767 LINE",
"219 744 LINE",
"306 784 LINE",
"389 745 LINE",
"419 767 LINE",
"343 866 LINE"
);
}
);
width = 634;
}
);
note = Ecircumflex;
rightKerningGroup = E;
unicode = 00CA;
},
{
glyphname = Edieresis;
layers = (
{
layerId = "DA0EFD29-AE33-4FCF-848B-DE0D51CB696F";
paths = (
{
closed = 1;
nodes = (
"456 244 LINE",
"451 278 OFFCURVE",
"450 324 OFFCURVE",
"450 362 CURVE SMOOTH",
"450 403 OFFCURVE",
"453 440 OFFCURVE",
"458 480 CURVE",
"413 484 LINE",
"406 450 OFFCURVE",
"394 413 OFFCURVE",
"376 386 CURVE",
"231 386 LINE",
"231 475 OFFCURVE",
"233 570 OFFCURVE",
"238 642 CURVE",
"266 652 OFFCURVE",
"302 659 OFFCURVE",
"350 659 CURVE SMOOTH",
"393 659 OFFCURVE",
"444 651 OFFCURVE",
"480 634 CURVE",
"531 554 LINE",
"564 566 LINE",
"550 712 LINE",
"472 703 OFFCURVE",
"358 700 OFFCURVE",
"253 700 CURVE SMOOTH",
"151 700 OFFCURVE",
"67 702 OFFCURVE",
"33 707 CURVE",
"31 671 LINE",
"65 663 OFFCURVE",
"99 649 OFFCURVE",
"125 630 CURVE",
"130 545 OFFCURVE",
"131 442 OFFCURVE",
"131 359 CURVE SMOOTH",
"131 238 OFFCURVE",
"127 142 OFFCURVE",
"121 66 CURVE",
"96 48 OFFCURVE",
"63 35 OFFCURVE",
"31 28 CURVE",
"33 -8 LINE",
"67 -3 OFFCURVE",
"151 -1 OFFCURVE",
"189 -1 CURVE SMOOTH",
"254 -1 OFFCURVE",
"472 -5 OFFCURVE",
"550 -14 CURVE",
"594 133 LINE",
"567 146 LINE",
"504 67 LINE",
"461 51 OFFCURVE",
"407 40 OFFCURVE",
"350 40 CURVE SMOOTH",
"303 40 OFFCURVE",
"268 45 OFFCURVE",
"240 55 CURVE",
"232 132 OFFCURVE",
"231 225 OFFCURVE",
"231 337 CURVE",
"375 337 LINE",
"394 311 OFFCURVE",
"406 279 OFFCURVE",
"416 242 CURVE"
);
},
{
closed = 1;
nodes = (
"152 793 OFFCURVE",
"175 766 OFFCURVE",
"209 766 CURVE SMOOTH",
"244 766 OFFCURVE",
"275 797 OFFCURVE",
"275 837 CURVE SMOOTH",
"275 869 OFFCURVE",
"251 896 OFFCURVE",
"217 896 CURVE SMOOTH",
"183 896 OFFCURVE",
"152 865 OFFCURVE",
"152 826 CURVE SMOOTH"
);
},
{
closed = 1;
nodes = (
"348 793 OFFCURVE",
"371 766 OFFCURVE",
"406 766 CURVE SMOOTH",
"440 766 OFFCURVE",
"472 797 OFFCURVE",
"472 837 CURVE SMOOTH",
"472 869 OFFCURVE",
"448 896 OFFCURVE",
"413 896 CURVE SMOOTH",
"379 896 OFFCURVE",
"348 865 OFFCURVE",
"348 826 CURVE SMOOTH"
);
}
);
width = 634;
}
);
note = Edieresis;
rightKerningGroup = E;
unicode = 00CB;
},
{
glyphname = Egrave;
layers = (
{
layerId = "DA0EFD29-AE33-4FCF-848B-DE0D51CB696F";
paths = (
{
closed = 1;
nodes = (
"456 244 LINE",
"451 278 OFFCURVE",
"450 324 OFFCURVE",
"450 362 CURVE SMOOTH",
"450 403 OFFCURVE",
"453 440 OFFCURVE",
"458 480 CURVE",
"413 484 LINE",
"406 450 OFFCURVE",
"394 413 OFFCURVE",
"376 386 CURVE",
"231 386 LINE",
"231 475 OFFCURVE",
"233 570 OFFCURVE",
"238 642 CURVE",
"266 652 OFFCURVE",
"302 659 OFFCURVE",
"350 659 CURVE SMOOTH",
"393 659 OFFCURVE",
"444 651 OFFCURVE",
"480 634 CURVE",
"531 554 LINE",
"564 566 LINE",
"550 712 LINE",
"472 703 OFFCURVE",
"358 700 OFFCURVE",
"253 700 CURVE SMOOTH",
"151 700 OFFCURVE",
"67 702 OFFCURVE",
"33 707 CURVE",
"31 671 LINE",
"65 663 OFFCURVE",
"99 649 OFFCURVE",
"125 630 CURVE",
"130 545 OFFCURVE",
"131 442 OFFCURVE",
"131 359 CURVE SMOOTH",
"131 238 OFFCURVE",
"127 142 OFFCURVE",
"121 66 CURVE",
"96 48 OFFCURVE",
"63 35 OFFCURVE",
"31 28 CURVE",
"33 -8 LINE",
"67 -3 OFFCURVE",
"151 -1 OFFCURVE",
"189 -1 CURVE SMOOTH",
"254 -1 OFFCURVE",
"472 -5 OFFCURVE",
"550 -14 CURVE",
"594 133 LINE",
"567 146 LINE",
"504 67 LINE",
"461 51 OFFCURVE",
"407 40 OFFCURVE",
"350 40 CURVE SMOOTH",
"303 40 OFFCURVE",
"268 45 OFFCURVE",
"240 55 CURVE",
"232 132 OFFCURVE",
"231 225 OFFCURVE",
"231 337 CURVE",
"375 337 LINE",
"394 311 OFFCURVE",
"406 279 OFFCURVE",
"416 242 CURVE"
);
},
{
closed = 1;
nodes = (
"374 764 LINE",
"329 798 OFFCURVE",
"299 845 OFFCURVE",
"292 888 CURVE",
"262 892 LINE",
"209 856 LINE",
"228 797 OFFCURVE",
"273 750 OFFCURVE",
"350 729 CURVE"
);
}
);
width = 634;
}
);
note = Egrave;
rightKerningGroup = E;
unicode = 00C8;
},
{
glyphname = F;
layers = (
{
layerId = "DA0EFD29-AE33-4FCF-848B-DE0D51CB696F";
paths = (
{
closed = 1;
nodes = (
"33 -8 LINE",
"88 -4 OFFCURVE",
"151 -1 OFFCURVE",
"189 -1 CURVE SMOOTH",
"249 -1 OFFCURVE",
"339 -4 OFFCURVE",
"397 -8 CURVE",
"401 37 LINE",
"342 43 OFFCURVE",
"275 56 OFFCURVE",
"239 73 CURVE",
"232 146 OFFCURVE",
"231 233 OFFCURVE",
"231 337 CURVE",
"375 337 LINE",
"394 311 OFFCURVE",
"406 279 OFFCURVE",
"416 242 CURVE",
"456 244 LINE",
"451 278 OFFCURVE",
"450 324 OFFCURVE",
"450 362 CURVE SMOOTH",
"450 403 OFFCURVE",
"453 440 OFFCURVE",
"458 480 CURVE",
"413 484 LINE",
"406 450 OFFCURVE",
"394 413 OFFCURVE",
"376 386 CURVE",
"231 386 LINE",
"231 475 OFFCURVE",
"233 570 OFFCURVE",
"238 642 CURVE",
"266 652 OFFCURVE",
"302 659 OFFCURVE",
"350 659 CURVE SMOOTH",
"393 659 OFFCURVE",
"444 651 OFFCURVE",
"480 634 CURVE",
"531 554 LINE",
"564 566 LINE",
"550 712 LINE",
"472 703 OFFCURVE",
"358 700 OFFCURVE",
"253 700 CURVE SMOOTH",
"151 700 OFFCURVE",
"67 702 OFFCURVE",
"33 707 CURVE",
"31 671 LINE",
"65 663 OFFCURVE",
"99 649 OFFCURVE",
"125 630 CURVE",
"130 545 OFFCURVE",
"131 442 OFFCURVE",
"131 359 CURVE SMOOTH",
"131 238 OFFCURVE",
"127 142 OFFCURVE",
"121 66 CURVE",
"96 48 OFFCURVE",
"63 35 OFFCURVE",
"31 28 CURVE"
);
}
);
width = 584;
}
);
note = F;
rightKerningGroup = F;
unicode = 0046;
},
{
glyphname = G;
layers = (
{
layerId = "DA0EFD29-AE33-4FCF-848B-DE0D51CB696F";
paths = (
{
closed = 1;
nodes = (
"792 340 LINE",
"758 335 OFFCURVE",
"724 334 OFFCURVE",
"686 334 CURVE SMOOTH",
"645 334 OFFCURVE",
"586 337 OFFCURVE",
"546 342 CURVE",
"542 297 LINE",
"575 293 OFFCURVE",
"610 286 OFFCURVE",
"638 275 CURVE",
"652 95 LINE",
"612 62 OFFCURVE",
"559 40 OFFCURVE",
"479 40 CURVE SMOOTH",
"323 40 OFFCURVE",
"195 160 OFFCURVE",
"195 361 CURVE SMOOTH",
"195 547 OFFCURVE",
"325 662 OFFCURVE",
"464 662 CURVE SMOOTH",
"546 662 OFFCURVE",
"609 637 OFFCURVE",
"650 596 CURVE",
"711 496 LINE",
"750 508 LINE",
"732 636 LINE",
"652 685 OFFCURVE",
"589 710 OFFCURVE",
"475 710 CURVE SMOOTH",
"309 710 OFFCURVE",
"70 619 OFFCURVE",
"70 343 CURVE SMOOTH",
"70 109 OFFCURVE",
"261 -18 OFFCURVE",
"458 -18 CURVE SMOOTH",
"586 -18 OFFCURVE",
"666 15 OFFCURVE",
"748 66 CURVE",
"750 283 LINE",
"762 290 OFFCURVE",
"775 295 OFFCURVE",
"794 300 CURVE"
);
}
);
width = 844;
}
);
leftKerningGroup = G;
note = G;
rightKerningGroup = G;
unicode = 0047;
},
{
glyphname = H;
layers = (
{
layerId = "DA0EFD29-AE33-4FCF-848B-DE0D51CB696F";
paths = (
{
closed = 1;
nodes = (
"34 -8 LINE",
"68 -4 OFFCURVE",
"145 -1 OFFCURVE",
"183 -1 CURVE SMOOTH",
"231 -1 OFFCURVE",
"271 -4 OFFCURVE",
"311 -8 CURVE",
"315 37 LINE",
"284 44 OFFCURVE",
"255 53 OFFCURVE",
"233 69 CURVE",
"226 145 OFFCURVE",
"225 237 OFFCURVE",
"225 347 CURVE",
"608 347 LINE",
"607 233 OFFCURVE",
"604 141 OFFCURVE",
"599 68 CURVE",
"573 49 OFFCURVE",
"539 35 OFFCURVE",
"505 28 CURVE",
"507 -8 LINE",
"541 -3 OFFCURVE",
"625 -1 OFFCURVE",
"663 -1 CURVE SMOOTH",
"711 -1 OFFCURVE",
"751 -4 OFFCURVE",
"791 -8 CURVE",
"795 37 LINE",
"766 44 OFFCURVE",
"738 52 OFFCURVE",
"716 67 CURVE",
"709 144 OFFCURVE",
"708 236 OFFCURVE",
"708 349 CURVE SMOOTH",
"708 441 OFFCURVE",
"709 547 OFFCURVE",
"714 627 CURVE",
"740 647 OFFCURVE",
"776 663 OFFCURVE",
"812 671 CURVE",
"810 707 LINE",
"776 702 OFFCURVE",
"692 700 OFFCURVE",
"654 700 CURVE SMOOTH",
"606 700 OFFCURVE",
"566 703 OFFCURVE",
"526 707 CURVE",
"522 662 LINE",
"551 654 OFFCURVE",
"580 646 OFFCURVE",
"602 631 CURVE",
"606 558 OFFCURVE",
"608 472 OFFCURVE",
"608 396 CURVE",
"225 396 LINE",
"225 474 OFFCURVE",
"227 556 OFFCURVE",
"231 622 CURVE",
"257 644 OFFCURVE",
"294 660 OFFCURVE",
"332 669 CURVE",
"330 707 LINE",
"296 702 OFFCURVE",
"212 700 OFFCURVE",
"174 700 CURVE SMOOTH",
"126 700 OFFCURVE",
"86 703 OFFCURVE",
"46 707 CURVE",
"42 662 LINE",
"70 655 OFFCURVE",
"97 647 OFFCURVE",
"119 633 CURVE",
"124 548 OFFCURVE",
"125 443 OFFCURVE",
"125 359 CURVE SMOOTH",
"125 238 OFFCURVE",
"121 142 OFFCURVE",
"115 66 CURVE",
"92 50 OFFCURVE",
"64 39 OFFCURVE",
"32 32 CURVE"
);
}
);
width = 838;
}
);
note = H;
unicode = 0048;
},
{
glyphname = I;
layers = (
{
layerId = "DA0EFD29-AE33-4FCF-848B-DE0D51CB696F";
paths = (
{
closed = 1;
nodes = (
"33 -8 LINE",
"67 -3 OFFCURVE",
"151 -1 OFFCURVE",
"189 -1 CURVE SMOOTH",
"237 -1 OFFCURVE",
"277 -4 OFFCURVE",
"317 -8 CURVE",
"321 37 LINE",
"290 44 OFFCURVE",
"261 53 OFFCURVE",
"239 69 CURVE",
"232 146 OFFCURVE",
"231 238 OFFCURVE",
"231 349 CURVE SMOOTH",
"231 440 OFFCURVE",
"232 545 OFFCURVE",
"237 624 CURVE",
"263 646 OFFCURVE",
"300 662 OFFCURVE",
"338 671 CURVE",
"336 707 LINE",
"302 702 OFFCURVE",
"218 700 OFFCURVE",
"180 700 CURVE SMOOTH",
"132 700 OFFCURVE",
"92 703 OFFCURVE",
"52 707 CURVE",
"48 662 LINE",
"76 655 OFFCURVE",
"103 647 OFFCURVE",
"125 633 CURVE",
"130 548 OFFCURVE",
"131 443 OFFCURVE",
"131 359 CURVE SMOOTH",
"131 238 OFFCURVE",
"127 142 OFFCURVE",
"121 66 CURVE",
"96 48 OFFCURVE",
"63 35 OFFCURVE",
"31 28 CURVE"
);
}
);
width = 361;
}
);
note = I;
unicode = 0049;
},
{
glyphname = Iacute;
layers = (
{
layerId = "DA0EFD29-AE33-4FCF-848B-DE0D51CB696F";
paths = (
{
closed = 1;
nodes = (
"33 -8 LINE",
"67 -3 OFFCURVE",
"151 -1 OFFCURVE",
"189 -1 CURVE SMOOTH",
"237 -1 OFFCURVE",
"277 -4 OFFCURVE",
"317 -8 CURVE",
"321 37 LINE",
"290 44 OFFCURVE",
"261 53 OFFCURVE",
"239 69 CURVE",
"232 146 OFFCURVE",
"231 238 OFFCURVE",
"231 349 CURVE SMOOTH",
"231 440 OFFCURVE",
"232 545 OFFCURVE",
"237 624 CURVE",
"263 646 OFFCURVE",
"300 662 OFFCURVE",
"338 671 CURVE",
"336 707 LINE",
"302 702 OFFCURVE",
"218 700 OFFCURVE",
"180 700 CURVE SMOOTH",
"132 700 OFFCURVE",
"92 703 OFFCURVE",
"52 707 CURVE",
"48 662 LINE",
"76 655 OFFCURVE",
"103 647 OFFCURVE",
"125 633 CURVE",
"130 548 OFFCURVE",
"131 443 OFFCURVE",
"131 359 CURVE SMOOTH",
"131 238 OFFCURVE",
"127 142 OFFCURVE",
"121 66 CURVE",
"96 48 OFFCURVE",
"63 35 OFFCURVE",
"31 28 CURVE"
);
},
{
closed = 1;
nodes = (
"130 729 LINE",
"207 750 OFFCURVE",
"252 797 OFFCURVE",
"271 856 CURVE",
"218 892 LINE",
"188 888 LINE",
"181 845 OFFCURVE",
"151 798 OFFCURVE",
"106 764 CURVE"
);
}
);
width = 361;
}
);
note = Iacute;
unicode = 00CD;
},
{
glyphname = Icircumflex;
layers = (
{
layerId = "DA0EFD29-AE33-4FCF-848B-DE0D51CB696F";
paths = (
{
closed = 1;
nodes = (
"33 -8 LINE",
"67 -3 OFFCURVE",
"151 -1 OFFCURVE",
"189 -1 CURVE SMOOTH",
"237 -1 OFFCURVE",
"277 -4 OFFCURVE",
"317 -8 CURVE",
"321 37 LINE",
"290 44 OFFCURVE",
"261 53 OFFCURVE",
"239 69 CURVE",
"232 146 OFFCURVE",
"231 238 OFFCURVE",
"231 349 CURVE SMOOTH",
"231 440 OFFCURVE",
"232 545 OFFCURVE",
"237 624 CURVE",
"263 646 OFFCURVE",
"300 662 OFFCURVE",
"338 671 CURVE",
"336 707 LINE",
"302 702 OFFCURVE",
"218 700 OFFCURVE",
"180 700 CURVE SMOOTH",
"132 700 OFFCURVE",
"92 703 OFFCURVE",
"52 707 CURVE",
"48 662 LINE",
"76 655 OFFCURVE",
"103 647 OFFCURVE",
"125 633 CURVE",
"130 548 OFFCURVE",
"131 443 OFFCURVE",
"131 359 CURVE SMOOTH",
"131 238 OFFCURVE",
"127 142 OFFCURVE",
"121 66 CURVE",
"96 48 OFFCURVE",
"63 35 OFFCURVE",
"31 28 CURVE"
);
},
{
closed = 1;
nodes = (
"167 866 LINE",
"70 767 LINE",
"90 744 LINE",
"177 784 LINE",
"260 745 LINE",
"290 767 LINE",
"214 866 LINE"
);
}
);
width = 361;
}
);
note = Icircumflex;
unicode = 00CE;
},
{
glyphname = Idieresis;
layers = (
{
layerId = "DA0EFD29-AE33-4FCF-848B-DE0D51CB696F";
paths = (
{
closed = 1;
nodes = (
"33 -8 LINE",
"67 -3 OFFCURVE",
"151 -1 OFFCURVE",
"189 -1 CURVE SMOOTH",
"237 -1 OFFCURVE",
"277 -4 OFFCURVE",
"317 -8 CURVE",
"321 37 LINE",
"290 44 OFFCURVE",
"261 53 OFFCURVE",
"239 69 CURVE",
"232 146 OFFCURVE",
"231 238 OFFCURVE",
"231 349 CURVE SMOOTH",
"231 440 OFFCURVE",
"232 545 OFFCURVE",
"237 624 CURVE",
"263 646 OFFCURVE",
"300 662 OFFCURVE",
"338 671 CURVE",
"336 707 LINE",
"302 702 OFFCURVE",
"218 700 OFFCURVE",
"180 700 CURVE SMOOTH",
"132 700 OFFCURVE",
"92 703 OFFCURVE",
"52 707 CURVE",
"48 662 LINE",
"76 655 OFFCURVE",
"103 647 OFFCURVE",
"125 633 CURVE",
"130 548 OFFCURVE",
"131 443 OFFCURVE",
"131 359 CURVE SMOOTH",
"131 238 OFFCURVE",
"127 142 OFFCURVE",
"121 66 CURVE",
"96 48 OFFCURVE",
"63 35 OFFCURVE",
"31 28 CURVE"
);
},
{
closed = 1;
nodes = (
"23 793 OFFCURVE",
"46 766 OFFCURVE",
"80 766 CURVE SMOOTH",
"115 766 OFFCURVE",
"146 797 OFFCURVE",
"146 837 CURVE SMOOTH",
"146 869 OFFCURVE",
"122 896 OFFCURVE",
"88 896 CURVE SMOOTH",
"54 896 OFFCURVE",
"23 865 OFFCURVE",
"23 826 CURVE SMOOTH"
);
},
{
closed = 1;
nodes = (
"219 793 OFFCURVE",
"242 766 OFFCURVE",
"277 766 CURVE SMOOTH",
"311 766 OFFCURVE",
"343 797 OFFCURVE",
"343 837 CURVE SMOOTH",
"343 869 OFFCURVE",
"319 896 OFFCURVE",
"284 896 CURVE SMOOTH",
"250 896 OFFCURVE",
"219 865 OFFCURVE",
"219 826 CURVE SMOOTH"
);
}
);
width = 361;
}
);
note = Idieresis;
unicode = 00CF;
},
{
glyphname = Igrave;
layers = (
{
layerId = "DA0EFD29-AE33-4FCF-848B-DE0D51CB696F";
paths = (
{
closed = 1;
nodes = (
"33 -8 LINE",
"67 -3 OFFCURVE",
"151 -1 OFFCURVE",
"189 -1 CURVE SMOOTH",
"237 -1 OFFCURVE",
"277 -4 OFFCURVE",
"317 -8 CURVE",
"321 37 LINE",
"290 44 OFFCURVE",
"261 53 OFFCURVE",
"239 69 CURVE",
"232 146 OFFCURVE",
"231 238 OFFCURVE",
"231 349 CURVE SMOOTH",
"231 440 OFFCURVE",
"232 545 OFFCURVE",
"237 624 CURVE",
"263 646 OFFCURVE",
"300 662 OFFCURVE",
"338 671 CURVE",
"336 707 LINE",
"302 702 OFFCURVE",
"218 700 OFFCURVE",
"180 700 CURVE SMOOTH",
"132 700 OFFCURVE",
"92 703 OFFCURVE",
"52 707 CURVE",
"48 662 LINE",
"76 655 OFFCURVE",
"103 647 OFFCURVE",
"125 633 CURVE",
"130 548 OFFCURVE",
"131 443 OFFCURVE",
"131 359 CURVE SMOOTH",
"131 238 OFFCURVE",
"127 142 OFFCURVE",
"121 66 CURVE",
"96 48 OFFCURVE",
"63 35 OFFCURVE",
"31 28 CURVE"
);
},
{
closed = 1;
nodes = (
"245 764 LINE",
"200 798 OFFCURVE",
"170 845 OFFCURVE",
"163 888 CURVE",
"133 892 LINE",
"80 856 LINE",
"99 797 OFFCURVE",
"144 750 OFFCURVE",
"221 729 CURVE"
);
}
);
width = 361;
}
);
note = Igrave;
unicode = 00CC;
},
{
glyphname = J;
layers = (
{
layerId = "DA0EFD29-AE33-4FCF-848B-DE0D51CB696F";
paths = (
{
closed = 1;
nodes = (
"379 707 LINE",
"345 702 OFFCURVE",
"261 700 OFFCURVE",
"223 700 CURVE SMOOTH",
"175 700 OFFCURVE",
"95 703 OFFCURVE",
"55 707 CURVE",
"51 662 LINE",
"83 654 OFFCURVE",
"137 638 OFFCURVE",
"165 618 CURVE",
"169 525 OFFCURVE",
"170 271 OFFCURVE",
"170 151 CURVE SMOOTH",
"170 26 OFFCURVE",
"168 -25 OFFCURVE",
"160 -67 CURVE SMOOTH",
"147 -139 OFFCURVE",
"113 -150 OFFCURVE",
"74 -150 CURVE SMOOTH",
"50 -150 OFFCURVE",
"23 -129 OFFCURVE",
"8 -118 CURVE",
"-22 -126 OFFCURVE",
"-50 -161 OFFCURVE",
"-55 -188 CURVE",
"-38 -208 OFFCURVE",
"-16 -218 OFFCURVE",
"11 -218 CURVE SMOOTH",
"123 -218 OFFCURVE",
"277 -119 OFFCURVE",
"277 91 CURVE SMOOTH",
"277 148 OFFCURVE",
"273 221 OFFCURVE",
"273 301 CURVE SMOOTH",
"273 367 OFFCURVE",
"272 482 OFFCURVE",
"272 568 CURVE SMOOTH",
"272 626 LINE",
"300 647 OFFCURVE",
"344 663 OFFCURVE",
"381 671 CURVE"
);
}
);
width = 403;
}
);
leftKerningGroup = J;
note = J;
rightKerningGroup = J;
unicode = 004A;
},
{
glyphname = K;
layers = (
{
layerId = "DA0EFD29-AE33-4FCF-848B-DE0D51CB696F";
paths = (
{
closed = 1;
nodes = (
"58 -8 LINE",
"92 -3 OFFCURVE",
"151 -1 OFFCURVE",
"189 -1 CURVE SMOOTH",
"237 -1 OFFCURVE",
"297 -4 OFFCURVE",
"337 -8 CURVE",
"341 37 LINE",
"301 43 OFFCURVE",
"266 57 OFFCURVE",
"239 72 CURVE",
"233 142 OFFCURVE",
"231 225 OFFCURVE",
"231 323 CURVE",
"319 256 OFFCURVE",
"492 97 OFFCURVE",
"549 -9 CURVE",
"577 -6 OFFCURVE",
"604 -2 OFFCURVE",
"633 -2 CURVE SMOOTH",
"663 -2 OFFCURVE",
"707 -3 OFFCURVE",
"728 -5 CURVE",
"732 27 LINE",
"667 54 LINE",
"582 156 OFFCURVE",
"405 321 OFFCURVE",
"339 370 CURVE",
"633 653 LINE",
"655 660 OFFCURVE",
"677 665 OFFCURVE",
"696 668 CURVE",
"693 707 LINE",
"652 703 OFFCURVE",
"601 700 OFFCURVE",
"574 700 CURVE SMOOTH",
"550 700 OFFCURVE",
"499 702 OFFCURVE",
"460 707 CURVE",
"454 677 LINE",
"472 666 OFFCURVE",
"495 650 OFFCURVE",
"508 630 CURVE",
"455 553 OFFCURVE",
"335 420 OFFCURVE",
"231 352 CURVE",
"231 443 OFFCURVE",
"232 545 OFFCURVE",
"237 624 CURVE",
"263 646 OFFCURVE",
"300 662 OFFCURVE",
"338 671 CURVE",
"336 707 LINE",
"302 702 OFFCURVE",
"218 700 OFFCURVE",
"180 700 CURVE SMOOTH",
"132 700 OFFCURVE",
"92 703 OFFCURVE",
"52 707 CURVE",
"48 662 LINE",
"76 655 OFFCURVE",
"103 647 OFFCURVE",
"125 633 CURVE",
"130 548 OFFCURVE",
"131 443 OFFCURVE",
"131 359 CURVE SMOOTH",
"131 237 OFFCURVE",
"127 140 OFFCURVE",
"121 65 CURVE",
"102 48 OFFCURVE",
"83 36 OFFCURVE",
"56 28 CURVE"
);
}
);
width = 762;
}
);
note = K;
rightKerningGroup = K;
unicode = 004B;
},
{
glyphname = L;
layers = (
{
layerId = "DA0EFD29-AE33-4FCF-848B-DE0D51CB696F";
paths = (
{
closed = 1;
nodes = (
"356 707 LINE",
"322 702 OFFCURVE",
"218 700 OFFCURVE",
"180 700 CURVE SMOOTH",
"132 700 OFFCURVE",
"92 703 OFFCURVE",
"52 707 CURVE",
"48 662 LINE",
"76 655 OFFCURVE",
"103 647 OFFCURVE",
"125 633 CURVE",
"130 548 OFFCURVE",
"131 443 OFFCURVE",
"131 359 CURVE SMOOTH",
"131 238 OFFCURVE",
"127 142 OFFCURVE",
"121 66 CURVE",
"96 48 OFFCURVE",
"63 35 OFFCURVE",
"31 28 CURVE",
"33 -8 LINE",
"67 -3 OFFCURVE",
"151 -1 OFFCURVE",
"189 -1 CURVE SMOOTH",
"254 -1 OFFCURVE",
"442 -5 OFFCURVE",
"520 -14 CURVE",
"576 154 LINE",
"549 167 LINE",
"474 67 LINE",
"431 46 OFFCURVE",
"394 40 OFFCURVE",
"340 40 CURVE SMOOTH",
"301 40 OFFCURVE",
"268 45 OFFCURVE",
"240 55 CURVE",
"232 134 OFFCURVE",
"231 231 OFFCURVE",
"231 349 CURVE SMOOTH",
"231 440 OFFCURVE",
"232 544 OFFCURVE",
"237 623 CURVE",
"265 642 OFFCURVE",
"320 660 OFFCURVE",
"358 669 CURVE"
);
}
);
width = 610;
}
);
note = L;
rightKerningGroup = L;
unicode = 004C;
},
{
glyphname = M;
layers = (
{
layerId = "DA0EFD29-AE33-4FCF-848B-DE0D51CB696F";
paths = (
{
closed = 1;
nodes = (
"646 -8 LINE",
"680 -3 OFFCURVE",
"772 0 OFFCURVE",
"802 0 CURVE SMOOTH",
"850 0 OFFCURVE",
"922 -4 OFFCURVE",
"962 -8 CURVE",
"966 30 LINE",
"936 36 OFFCURVE",
"902 48 OFFCURVE",
"876 62 CURVE",
"839 246 OFFCURVE",
"818 435 OFFCURVE",
"803 623 CURVE",
"900 672 LINE",
"897 706 LINE",
"866 703 OFFCURVE",
"830 701 OFFCURVE",
"796 701 CURVE SMOOTH",
"765 701 OFFCURVE",
"724 704 OFFCURVE",
"693 707 CURVE",
"506 200 LINE",
"306 709 LINE",
"278 704 OFFCURVE",
"244 702 OFFCURVE",
"209 702 CURVE SMOOTH",
"168 702 OFFCURVE",
"135 704 OFFCURVE",
"101 706 CURVE",
"98 677 LINE",
"197 626 LINE",
"171 438 OFFCURVE",
"135 208 OFFCURVE",
"107 71 CURVE",
"81 51 OFFCURVE",
"45 38 OFFCURVE",
"20 30 CURVE",
"27 -8 LINE",
"61 -3 OFFCURVE",
"105 0 OFFCURVE",
"153 0 CURVE SMOOTH",
"201 0 OFFCURVE",
"253 -4 OFFCURVE",
"293 -8 CURVE",
"297 30 LINE",
"254 38 OFFCURVE",
"203 59 OFFCURVE",
"179 81 CURVE",
"185 216 OFFCURVE",
"205 389 OFFCURVE",
"235 567 CURVE",
"467 -7 LINE",
"486 -7 LINE",
"696 578 LINE",
"728 409 OFFCURVE",
"746 235 OFFCURVE",
"760 74 CURVE",
"732 52 OFFCURVE",
"689 39 OFFCURVE",
"639 30 CURVE"
);
}
);
width = 1002;
}
);
leftKerningGroup = M;
note = M;
rightKerningGroup = M;
unicode = 004D;
},
{
glyphname = N;
layers = (
{
layerId = "DA0EFD29-AE33-4FCF-848B-DE0D51CB696F";
paths = (
{
closed = 1;
nodes = (
"839 706 LINE",
"805 701 OFFCURVE",
"746 699 OFFCURVE",
"716 699 CURVE SMOOTH",
"668 699 OFFCURVE",
"620 702 OFFCURVE",
"580 706 CURVE",
"576 668 LINE",
"616 660 OFFCURVE",
"662 642 OFFCURVE",
"688 622 CURVE",
"695 498 OFFCURVE",
"699 308 OFFCURVE",
"699 172 CURVE",
"224 705 LINE",
"200 703 OFFCURVE",
"154 700 OFFCURVE",
"124 700 CURVE SMOOTH",
"97 700 OFFCURVE",
"59 702 OFFCURVE",
"29 704 CURVE",
"27 662 LINE",
"117 629 LINE",
"127 548 OFFCURVE",
"130 457 OFFCURVE",
"130 343 CURVE SMOOTH",
"130 249 OFFCURVE",
"129 157 OFFCURVE",
"125 82 CURVE",
"109 59 OFFCURVE",
"71 39 OFFCURVE",
"42 30 CURVE",
"49 -8 LINE",
"83 -3 OFFCURVE",
"132 -1 OFFCURVE",
"162 -1 CURVE SMOOTH",
"210 -1 OFFCURVE",
"258 -4 OFFCURVE",
"298 -8 CURVE",
"302 30 LINE",
"263 38 OFFCURVE",
"218 55 OFFCURVE",
"192 74 CURVE",
"183 198 OFFCURVE",
"180 352 OFFCURVE",
"180 590 CURVE",
"717 -19 LINE",
"758 0 LINE",
"752 79 OFFCURVE",
"750 218 OFFCURVE",
"750 351 CURVE SMOOTH",
"750 456 OFFCURVE",
"752 544 OFFCURVE",
"756 620 CURVE",
"775 641 OFFCURVE",
"818 659 OFFCURVE",
"846 668 CURVE"
);
}
);
width = 866;
}
);
note = N;
unicode = 004E;
},
{
glyphname = Ntilde;
layers = (
{
layerId = "DA0EFD29-AE33-4FCF-848B-DE0D51CB696F";
paths = (
{
closed = 1;
nodes = (
"839 706 LINE",
"805 701 OFFCURVE",
"746 699 OFFCURVE",
"716 699 CURVE SMOOTH",
"668 699 OFFCURVE",
"620 702 OFFCURVE",
"580 706 CURVE",
"576 668 LINE",
"616 660 OFFCURVE",
"662 642 OFFCURVE",
"688 622 CURVE",
"695 498 OFFCURVE",
"699 308 OFFCURVE",
"699 172 CURVE",
"224 705 LINE",
"200 703 OFFCURVE",
"154 700 OFFCURVE",
"124 700 CURVE SMOOTH",
"97 700 OFFCURVE",
"59 702 OFFCURVE",
"29 704 CURVE",
"27 662 LINE",
"117 629 LINE",
"127 548 OFFCURVE",
"130 457 OFFCURVE",
"130 343 CURVE SMOOTH",
"130 249 OFFCURVE",
"129 157 OFFCURVE",
"125 82 CURVE",
"109 59 OFFCURVE",
"71 39 OFFCURVE",
"42 30 CURVE",
"49 -8 LINE",
"83 -3 OFFCURVE",
"132 -1 OFFCURVE",
"162 -1 CURVE SMOOTH",
"210 -1 OFFCURVE",
"258 -4 OFFCURVE",
"298 -8 CURVE",
"302 30 LINE",
"263 38 OFFCURVE",
"218 55 OFFCURVE",
"192 74 CURVE",
"183 198 OFFCURVE",
"180 352 OFFCURVE",
"180 590 CURVE",
"717 -19 LINE",
"758 0 LINE",
"752 79 OFFCURVE",
"750 218 OFFCURVE",
"750 351 CURVE SMOOTH",
"750 456 OFFCURVE",
"752 544 OFFCURVE",
"756 620 CURVE",
"775 641 OFFCURVE",
"818 659 OFFCURVE",
"846 668 CURVE"
);
},
{
closed = 1;
nodes = (
"300 774 LINE",
"318 787 OFFCURVE",
"344 804 OFFCURVE",
"369 804 CURVE SMOOTH",
"418 804 OFFCURVE",
"433 761 OFFCURVE",
"497 761 CURVE SMOOTH",
"541 761 OFFCURVE",
"572 792 OFFCURVE",
"601 830 CURVE",
"586 851 LINE",
"564 836 OFFCURVE",
"541 825 OFFCURVE",
"509 825 CURVE SMOOTH",
"461 825 OFFCURVE",
"447 867 OFFCURVE",
"391 867 CURVE SMOOTH",
"346 867 OFFCURVE",
"298 819 OFFCURVE",
"281 795 CURVE"
);
}
);
width = 866;
}
);
note = Ntilde;
unicode = 00D1;
},
{
glyphname = O;
layers = (
{
layerId = "DA0EFD29-AE33-4FCF-848B-DE0D51CB696F";
paths = (
{
closed = 1;
nodes = (
"70 123 OFFCURVE",
"235 -16 OFFCURVE",
"437 -16 CURVE SMOOTH",
"633 -16 OFFCURVE",
"801 141 OFFCURVE",
"801 362 CURVE SMOOTH",
"801 590 OFFCURVE",
"620 710 OFFCURVE",
"452 710 CURVE SMOOTH",
"259 710 OFFCURVE",
"70 566 OFFCURVE",
"70 351 CURVE SMOOTH"
);
},
{
closed = 1;
nodes = (
"566 654 OFFCURVE",
"689 495 OFFCURVE",
"689 330 CURVE SMOOTH",
"689 178 OFFCURVE",
"615 46 OFFCURVE",
"467 46 CURVE SMOOTH",
"332 46 OFFCURVE",
"182 174 OFFCURVE",
"182 380 CURVE SMOOTH",
"182 536 OFFCURVE",
"279 654 OFFCURVE",
"411 654 CURVE SMOOTH"
);
}
);
width = 871;
}
);
leftKerningGroup = O;
note = O;
rightKerningGroup = O;
unicode = 004F;
},
{
glyphname = Oacute;
layers = (
{
layerId = "DA0EFD29-AE33-4FCF-848B-DE0D51CB696F";
paths = (
{
closed = 1;
nodes = (
"70 123 OFFCURVE",
"235 -16 OFFCURVE",
"437 -16 CURVE SMOOTH",
"633 -16 OFFCURVE",
"801 141 OFFCURVE",
"801 362 CURVE SMOOTH",
"801 590 OFFCURVE",
"620 710 OFFCURVE",
"452 710 CURVE SMOOTH",
"259 710 OFFCURVE",
"70 566 OFFCURVE",
"70 351 CURVE SMOOTH"
);
},
{
closed = 1;
nodes = (
"566 654 OFFCURVE",
"689 495 OFFCURVE",
"689 330 CURVE SMOOTH",
"689 178 OFFCURVE",
"615 46 OFFCURVE",
"467 46 CURVE SMOOTH",
"332 46 OFFCURVE",
"182 174 OFFCURVE",
"182 380 CURVE SMOOTH",
"182 536 OFFCURVE",
"279 654 OFFCURVE",
"411 654 CURVE SMOOTH"
);
},
{
closed = 1;
nodes = (
"402 729 LINE",
"479 750 OFFCURVE",
"524 797 OFFCURVE",
"543 856 CURVE",
"490 892 LINE",
"460 888 LINE",
"453 845 OFFCURVE",
"423 798 OFFCURVE",
"378 764 CURVE"
);
}
);
width = 871;
}
);
leftKerningGroup = O;
note = Oacute;
rightKerningGroup = O;
unicode = 00D3;
},
{
glyphname = Ocircumflex;
layers = (
{
layerId = "DA0EFD29-AE33-4FCF-848B-DE0D51CB696F";
paths = (
{
closed = 1;
nodes = (
"70 123 OFFCURVE",
"235 -16 OFFCURVE",
"437 -16 CURVE SMOOTH",
"633 -16 OFFCURVE",
"801 141 OFFCURVE",
"801 362 CURVE SMOOTH",
"801 590 OFFCURVE",
"620 710 OFFCURVE",
"452 710 CURVE SMOOTH",
"259 710 OFFCURVE",
"70 566 OFFCURVE",
"70 351 CURVE SMOOTH"
);
},
{
closed = 1;
nodes = (
"566 654 OFFCURVE",
"689 495 OFFCURVE",
"689 330 CURVE SMOOTH",
"689 178 OFFCURVE",
"615 46 OFFCURVE",
"467 46 CURVE SMOOTH",
"332 46 OFFCURVE",
"182 174 OFFCURVE",
"182 380 CURVE SMOOTH",
"182 536 OFFCURVE",
"279 654 OFFCURVE",
"411 654 CURVE SMOOTH"
);
},
{
closed = 1;
nodes = (
"439 866 LINE",
"342 767 LINE",
"362 744 LINE",
"449 784 LINE",
"532 745 LINE",
"562 767 LINE",
"486 866 LINE"
);
}
);
width = 871;
}
);
leftKerningGroup = O;
note = Ocircumflex;
rightKerningGroup = O;
unicode = 00D4;
},
{
glyphname = Odieresis;
layers = (
{
layerId = "DA0EFD29-AE33-4FCF-848B-DE0D51CB696F";
paths = (
{
closed = 1;
nodes = (
"70 123 OFFCURVE",
"235 -16 OFFCURVE",
"437 -16 CURVE SMOOTH",
"633 -16 OFFCURVE",
"801 141 OFFCURVE",
"801 362 CURVE SMOOTH",
"801 590 OFFCURVE",
"620 710 OFFCURVE",
"452 710 CURVE SMOOTH",
"259 710 OFFCURVE",
"70 566 OFFCURVE",
"70 351 CURVE SMOOTH"
);
},
{
closed = 1;
nodes = (
"566 654 OFFCURVE",
"689 495 OFFCURVE",
"689 330 CURVE SMOOTH",
"689 178 OFFCURVE",
"615 46 OFFCURVE",
"467 46 CURVE SMOOTH",
"332 46 OFFCURVE",
"182 174 OFFCURVE",
"182 380 CURVE SMOOTH",
"182 536 OFFCURVE",
"279 654 OFFCURVE",
"411 654 CURVE SMOOTH"
);
},
{
closed = 1;
nodes = (
"295 793 OFFCURVE",
"318 766 OFFCURVE",
"352 766 CURVE SMOOTH",
"387 766 OFFCURVE",
"418 797 OFFCURVE",
"418 837 CURVE SMOOTH",
"418 869 OFFCURVE",
"394 896 OFFCURVE",
"360 896 CURVE SMOOTH",
"326 896 OFFCURVE",
"295 865 OFFCURVE",
"295 826 CURVE SMOOTH"
);
},
{
closed = 1;
nodes = (
"491 793 OFFCURVE",
"514 766 OFFCURVE",
"549 766 CURVE SMOOTH",
"583 766 OFFCURVE",
"615 797 OFFCURVE",
"615 837 CURVE SMOOTH",
"615 869 OFFCURVE",
"591 896 OFFCURVE",
"556 896 CURVE SMOOTH",
"522 896 OFFCURVE",
"491 865 OFFCURVE",
"491 826 CURVE SMOOTH"
);
}
);
width = 871;
}
);
leftKerningGroup = O;
note = Odieresis;
rightKerningGroup = O;
unicode = 00D6;
},
{
glyphname = Ograve;
layers = (
{
layerId = "DA0EFD29-AE33-4FCF-848B-DE0D51CB696F";
paths = (
{
closed = 1;
nodes = (
"70 123 OFFCURVE",
"235 -16 OFFCURVE",
"437 -16 CURVE SMOOTH",
"633 -16 OFFCURVE",
"801 141 OFFCURVE",
"801 362 CURVE SMOOTH",
"801 590 OFFCURVE",
"620 710 OFFCURVE",
"452 710 CURVE SMOOTH",
"259 710 OFFCURVE",
"70 566 OFFCURVE",
"70 351 CURVE SMOOTH"
);
},
{
closed = 1;
nodes = (
"566 654 OFFCURVE",
"689 495 OFFCURVE",
"689 330 CURVE SMOOTH",
"689 178 OFFCURVE",
"615 46 OFFCURVE",
"467 46 CURVE SMOOTH",
"332 46 OFFCURVE",
"182 174 OFFCURVE",
"182 380 CURVE SMOOTH",
"182 536 OFFCURVE",
"279 654 OFFCURVE",
"411 654 CURVE SMOOTH"
);
},
{
closed = 1;
nodes = (
"517 764 LINE",
"472 798 OFFCURVE",
"442 845 OFFCURVE",
"435 888 CURVE",
"405 892 LINE",
"352 856 LINE",
"371 797 OFFCURVE",
"416 750 OFFCURVE",
"493 729 CURVE"
);
}
);
width = 871;
}
);
leftKerningGroup = O;
note = Ograve;
rightKerningGroup = O;
unicode = 00D2;
},
{
glyphname = Otilde;
layers = (
{
layerId = "DA0EFD29-AE33-4FCF-848B-DE0D51CB696F";
paths = (
{
closed = 1;
nodes = (
"70 123 OFFCURVE",
"235 -16 OFFCURVE",
"437 -16 CURVE SMOOTH",
"633 -16 OFFCURVE",
"801 141 OFFCURVE",
"801 362 CURVE SMOOTH",
"801 590 OFFCURVE",
"620 710 OFFCURVE",
"452 710 CURVE SMOOTH",
"259 710 OFFCURVE",
"70 566 OFFCURVE",
"70 351 CURVE SMOOTH"
);
},
{
closed = 1;
nodes = (
"566 654 OFFCURVE",
"689 495 OFFCURVE",
"689 330 CURVE SMOOTH",
"689 178 OFFCURVE",
"615 46 OFFCURVE",
"467 46 CURVE SMOOTH",
"332 46 OFFCURVE",
"182 174 OFFCURVE",
"182 380 CURVE SMOOTH",
"182 536 OFFCURVE",
"279 654 OFFCURVE",
"411 654 CURVE SMOOTH"
);
},
{
closed = 1;
nodes = (
"314 774 LINE",
"332 787 OFFCURVE",
"358 804 OFFCURVE",
"383 804 CURVE SMOOTH",
"432 804 OFFCURVE",
"447 761 OFFCURVE",
"511 761 CURVE SMOOTH",
"555 761 OFFCURVE",
"586 792 OFFCURVE",
"615 830 CURVE",
"600 851 LINE",
"578 836 OFFCURVE",
"555 825 OFFCURVE",
"523 825 CURVE SMOOTH",
"475 825 OFFCURVE",
"461 867 OFFCURVE",
"405 867 CURVE SMOOTH",
"360 867 OFFCURVE",
"312 819 OFFCURVE",
"295 795 CURVE"
);
}
);
width = 871;
}
);
leftKerningGroup = O;
note = Otilde;
rightKerningGroup = O;
unicode = 00D5;
},
{
glyphname = P;
layers = (
{
layerId = "DA0EFD29-AE33-4FCF-848B-DE0D51CB696F";
paths = (
{
closed = 1;
nodes = (
"58 -8 LINE",
"92 -3 OFFCURVE",
"151 -1 OFFCURVE",
"189 -1 CURVE SMOOTH",
"237 -1 OFFCURVE",
"337 -4 OFFCURVE",
"377 -8 CURVE",
"381 37 LINE",
"321 44 OFFCURVE",
"266 58 OFFCURVE",
"238 77 CURVE",
"233 137 OFFCURVE",
"231 206 OFFCURVE",
"231 286 CURVE",
"432 290 OFFCURVE",
"571 334 OFFCURVE",
"571 497 CURVE SMOOTH",
"571 640 OFFCURVE",
"443 705 OFFCURVE",
"328 705 CURVE SMOOTH",
"277 705 OFFCURVE",
"249 700 OFFCURVE",
"203 700 CURVE SMOOTH",
"152 700 OFFCURVE",
"99 701 OFFCURVE",
"48 705 CURVE",
"41 667 LINE",
"70 663 OFFCURVE",
"99 654 OFFCURVE",
"124 639 CURVE",
"130 553 OFFCURVE",
"131 445 OFFCURVE",
"131 359 CURVE SMOOTH",
"131 237 OFFCURVE",
"127 140 OFFCURVE",
"121 65 CURVE",
"102 48 OFFCURVE",
"83 36 OFFCURVE",
"56 28 CURVE"
);
},
{
closed = 1;
nodes = (
"263 649 OFFCURVE",
"285 651 OFFCURVE",
"302 651 CURVE SMOOTH",
"407 651 OFFCURVE",
"461 588 OFFCURVE",
"461 499 CURVE SMOOTH",
"461 404 OFFCURVE",
"404 342 OFFCURVE",
"300 342 CURVE SMOOTH",
"276 342 OFFCURVE",
"257 344 OFFCURVE",
"231 352 CURVE",
"231 450 OFFCURVE",
"232 563 OFFCURVE",
"238 643 CURVE"
);
}
);
width = 621;
}
);
note = P;
rightKerningGroup = P;
unicode = 0050;
},
{
glyphname = Q;
layers = (
{
layerId = "DA0EFD29-AE33-4FCF-848B-DE0D51CB696F";
paths = (
{
closed = 1;
nodes = (
"70 123 OFFCURVE",
"235 -16 OFFCURVE",
"437 -16 CURVE SMOOTH",
"450 -16 OFFCURVE",
"464 -15 OFFCURVE",
"477 -14 CURVE",
"560 -184 OFFCURVE",
"703 -220 OFFCURVE",
"853 -220 CURVE SMOOTH",
"930 -220 OFFCURVE",
"1000 -210 OFFCURVE",
"1053 -196 CURVE",
"1046 -150 LINE",
"980 -161 OFFCURVE",
"932 -165 OFFCURVE",
"892 -165 CURVE SMOOTH",
"764 -165 OFFCURVE",
"667 -105 OFFCURVE",
"607 27 CURVE",
"721 88 OFFCURVE",
"801 210 OFFCURVE",
"801 362 CURVE SMOOTH",
"801 590 OFFCURVE",
"620 710 OFFCURVE",
"452 710 CURVE SMOOTH",
"259 710 OFFCURVE",
"70 566 OFFCURVE",
"70 351 CURVE SMOOTH"
);
},
{
closed = 1;
nodes = (
"566 654 OFFCURVE",
"689 495 OFFCURVE",
"689 330 CURVE SMOOTH",
"689 178 OFFCURVE",
"615 46 OFFCURVE",
"467 46 CURVE SMOOTH",
"332 46 OFFCURVE",
"182 174 OFFCURVE",
"182 380 CURVE SMOOTH",
"182 536 OFFCURVE",
"279 654 OFFCURVE",
"411 654 CURVE SMOOTH"
);
}
);
width = 871;
}
);
leftKerningGroup = O;
note = Q;
unicode = 0051;
},
{
glyphname = R;
layers = (
{
layerId = "DA0EFD29-AE33-4FCF-848B-DE0D51CB696F";
paths = (
{
closed = 1;
nodes = (
"571 654 OFFCURVE",
"443 705 OFFCURVE",
"328 705 CURVE SMOOTH",
"277 705 OFFCURVE",
"249 700 OFFCURVE",
"203 700 CURVE SMOOTH",
"152 700 OFFCURVE",
"99 701 OFFCURVE",
"48 705 CURVE",
"41 667 LINE",
"70 663 OFFCURVE",
"99 654 OFFCURVE",
"124 639 CURVE",
"130 553 OFFCURVE",
"131 445 OFFCURVE",
"131 359 CURVE SMOOTH",
"131 237 OFFCURVE",
"127 140 OFFCURVE",
"121 65 CURVE",
"102 48 OFFCURVE",
"83 36 OFFCURVE",
"56 28 CURVE",
"58 -8 LINE",
"92 -3 OFFCURVE",
"151 -1 OFFCURVE",
"189 -1 CURVE SMOOTH",
"237 -1 OFFCURVE",
"277 -4 OFFCURVE",
"317 -8 CURVE",
"321 37 LINE",
"290 44 OFFCURVE",
"261 53 OFFCURVE",
"239 69 CURVE",
"232 138 OFFCURVE",
"231 220 OFFCURVE",
"231 316 CURVE",
"235 316 OFFCURVE",
"240 317 OFFCURVE",
"245 317 CURVE",
"324 257 OFFCURVE",
"443 112 OFFCURVE",
"499 -9 CURVE",
"527 -6 OFFCURVE",
"554 -2 OFFCURVE",
"583 -2 CURVE SMOOTH",
"613 -2 OFFCURVE",
"657 -3 OFFCURVE",
"678 -5 CURVE",
"682 27 LINE",
"617 54 LINE",
"561 150 OFFCURVE",
"438 276 OFFCURVE",
"375 332 CURVE",
"478 355 OFFCURVE",
"571 406 OFFCURVE",
"571 520 CURVE SMOOTH"
);
},
{
closed = 1;
nodes = (
"263 649 OFFCURVE",
"287 651 OFFCURVE",
"316 651 CURVE SMOOTH",
"407 651 OFFCURVE",
"461 591 OFFCURVE",
"461 509 CURVE SMOOTH",
"461 420 OFFCURVE",
"404 372 OFFCURVE",
"295 372 CURVE SMOOTH",
"275 372 OFFCURVE",
"256 372 OFFCURVE",
"231 374 CURVE",
"231 467 OFFCURVE",
"233 568 OFFCURVE",
"238 643 CURVE"
);
}
);
width = 707;
}
);
note = R;
rightKerningGroup = R;
unicode = 0052;
},
{
glyphname = S;
layers = (
{
layerId = "DA0EFD29-AE33-4FCF-848B-DE0D51CB696F";
paths = (
{
closed = 1;
nodes = (
"73 181 LINE",
"60 61 LINE",
"115 7 OFFCURVE",
"182 -19 OFFCURVE",
"272 -19 CURVE SMOOTH",
"385 -19 OFFCURVE",
"506 37 OFFCURVE",
"506 176 CURVE SMOOTH",
"506 420 OFFCURVE",
"172 403 OFFCURVE",
"172 574 CURVE SMOOTH",
"172 623 OFFCURVE",
"208 667 OFFCURVE",
"276 667 CURVE SMOOTH",
"311 667 OFFCURVE",
"349 653 OFFCURVE",
"374 628 CURVE",
"411 544 LINE",
"453 555 LINE",
"453 655 LINE",
"418 690 OFFCURVE",
"357 710 OFFCURVE",
"287 710 CURVE SMOOTH",
"189 710 OFFCURVE",
"84 648 OFFCURVE",
"84 526 CURVE SMOOTH",
"84 311 OFFCURVE",
"413 305 OFFCURVE",
"413 135 CURVE SMOOTH",
"413 79 OFFCURVE",
"371 32 OFFCURVE",
"289 32 CURVE SMOOTH",
"233 32 OFFCURVE",
"182 58 OFFCURVE",
"146 93 CURVE",
"103 186 LINE"
);
}
);
width = 566;
}
);
leftKerningGroup = S;
note = S;
rightKerningGroup = S;
unicode = 0053;
},
{
glyphname = Scaron;
layers = (
{
layerId = "DA0EFD29-AE33-4FCF-848B-DE0D51CB696F";
paths = (
{
closed = 1;
nodes = (
"73 181 LINE",
"60 61 LINE",
"115 7 OFFCURVE",
"182 -19 OFFCURVE",
"272 -19 CURVE SMOOTH",
"385 -19 OFFCURVE",
"506 37 OFFCURVE",
"506 176 CURVE SMOOTH",
"506 420 OFFCURVE",
"172 403 OFFCURVE",
"172 574 CURVE SMOOTH",
"172 623 OFFCURVE",
"208 667 OFFCURVE",
"276 667 CURVE SMOOTH",
"311 667 OFFCURVE",
"349 653 OFFCURVE",
"374 628 CURVE",
"411 544 LINE",
"453 555 LINE",
"453 655 LINE",
"418 690 OFFCURVE",
"357 710 OFFCURVE",
"287 710 CURVE SMOOTH",
"189 710 OFFCURVE",
"84 648 OFFCURVE",
"84 526 CURVE SMOOTH",
"84 311 OFFCURVE",
"413 305 OFFCURVE",
"413 135 CURVE SMOOTH",
"413 79 OFFCURVE",
"371 32 OFFCURVE",
"289 32 CURVE SMOOTH",
"233 32 OFFCURVE",
"182 58 OFFCURVE",
"146 93 CURVE",
"103 186 LINE"
);
},
{
closed = 1;
nodes = (
"308 744 LINE",
"405 843 LINE",
"385 866 LINE",
"298 826 LINE",
"215 865 LINE",
"185 843 LINE",
"261 744 LINE"
);
}
);
width = 566;
}
);
leftKerningGroup = S;
note = Scaron;
rightKerningGroup = S;
unicode = 0160;
},
{
glyphname = T;
layers = (
{
layerId = "DA0EFD29-AE33-4FCF-848B-DE0D51CB696F";
paths = (
{
closed = 1;
nodes = (
"164 -8 LINE",
"198 -4 OFFCURVE",
"300 0 OFFCURVE",
"338 0 CURVE SMOOTH",
"386 0 OFFCURVE",
"465 -4 OFFCURVE",
"505 -8 CURVE",
"509 37 LINE",
"468 41 OFFCURVE",
"427 52 OFFCURVE",
"398 70 CURVE",
"391 146 OFFCURVE",
"390 238 OFFCURVE",
"390 349 CURVE SMOOTH",
"390 450 OFFCURVE",
"391 567 OFFCURVE",
"397 649 CURVE",
"555 649 LINE",
"572 622 OFFCURVE",
"576 596 OFFCURVE",
"577 555 CURVE",
"607 552 LINE",
"694 698 LINE",
"671 718 LINE",
"514 700 LINE",
"211 700 LINE",
"77 719 LINE",
"15 577 LINE",
"54 561 LINE",
"87 600 OFFCURVE",
"125 628 OFFCURVE",
"169 649 CURVE",
"280 649 LINE",
"286 561 OFFCURVE",
"287 449 OFFCURVE",
"287 359 CURVE SMOOTH",
"287 238 OFFCURVE",
"283 142 OFFCURVE",
"277 66 CURVE",
"247 48 OFFCURVE",
"200 33 OFFCURVE",
"159 28 CURVE"
);
}
);
width = 714;
}
);
leftKerningGroup = T;
note = T;
rightKerningGroup = T;
unicode = 0054;
},
{
glyphname = U;
layers = (
{
layerId = "DA0EFD29-AE33-4FCF-848B-DE0D51CB696F";
paths = (
{
closed = 1;
nodes = (
"777 709 LINE",
"751 704 OFFCURVE",
"689 702 OFFCURVE",
"661 702 CURVE SMOOTH",
"626 702 OFFCURVE",
"588 705 OFFCURVE",
"559 709 CURVE",
"556 671 LINE",
"591 668 OFFCURVE",
"631 657 OFFCURVE",
"652 639 CURVE",
"652 260 LINE SMOOTH",
"652 93 OFFCURVE",
"531 35 OFFCURVE",
"442 35 CURVE SMOOTH",
"333 35 OFFCURVE",
"230 90 OFFCURVE",
"230 258 CURVE SMOOTH",
"230 630 LINE",
"255 646 OFFCURVE",
"288 661 OFFCURVE",
"321 669 CURVE",
"319 707 LINE",
"285 702 OFFCURVE",
"201 700 OFFCURVE",
"163 700 CURVE SMOOTH",
"115 700 OFFCURVE",
"75 703 OFFCURVE",
"35 707 CURVE",
"31 662 LINE",
"61 654 OFFCURVE",
"91 646 OFFCURVE",
"113 629 CURVE",
"113 231 LINE SMOOTH",
"113 60 OFFCURVE",
"256 -18 OFFCURVE",
"408 -18 CURVE SMOOTH",
"568 -18 OFFCURVE",
"700 59 OFFCURVE",
"700 260 CURVE SMOOTH",
"700 639 LINE",
"720 658 OFFCURVE",
"746 669 OFFCURVE",
"780 677 CURVE"
);
}
);
width = 806;
}
);
leftKerningGroup = U;
note = U;
rightKerningGroup = U;
unicode = 0055;
},
{
glyphname = Uacute;
layers = (
{
layerId = "DA0EFD29-AE33-4FCF-848B-DE0D51CB696F";
paths = (
{
closed = 1;
nodes = (
"777 709 LINE",
"751 704 OFFCURVE",
"689 702 OFFCURVE",
"661 702 CURVE SMOOTH",
"626 702 OFFCURVE",
"588 705 OFFCURVE",
"559 709 CURVE",
"556 671 LINE",
"591 668 OFFCURVE",
"631 657 OFFCURVE",
"652 639 CURVE",
"652 260 LINE SMOOTH",
"652 93 OFFCURVE",
"531 35 OFFCURVE",
"442 35 CURVE SMOOTH",
"333 35 OFFCURVE",
"230 90 OFFCURVE",
"230 258 CURVE SMOOTH",
"230 630 LINE",
"255 646 OFFCURVE",
"288 661 OFFCURVE",
"321 669 CURVE",
"319 707 LINE",
"285 702 OFFCURVE",
"201 700 OFFCURVE",
"163 700 CURVE SMOOTH",
"115 700 OFFCURVE",
"75 703 OFFCURVE",
"35 707 CURVE",
"31 662 LINE",
"61 654 OFFCURVE",
"91 646 OFFCURVE",
"113 629 CURVE",
"113 231 LINE SMOOTH",
"113 60 OFFCURVE",
"256 -18 OFFCURVE",
"408 -18 CURVE SMOOTH",
"568 -18 OFFCURVE",
"700 59 OFFCURVE",
"700 260 CURVE SMOOTH",
"700 639 LINE",
"720 658 OFFCURVE",
"746 669 OFFCURVE",
"780 677 CURVE"
);
},
{
closed = 1;
nodes = (
"383 729 LINE",
"460 750 OFFCURVE",
"505 797 OFFCURVE",
"524 856 CURVE",
"471 892 LINE",
"441 888 LINE",
"434 845 OFFCURVE",
"404 798 OFFCURVE",
"359 764 CURVE"
);
}
);
width = 806;
}
);
leftKerningGroup = U;
note = Uacute;
rightKerningGroup = U;
unicode = 00DA;
},
{
glyphname = Ucircumflex;
layers = (
{
layerId = "DA0EFD29-AE33-4FCF-848B-DE0D51CB696F";
paths = (
{
closed = 1;
nodes = (
"777 709 LINE",
"751 704 OFFCURVE",
"689 702 OFFCURVE",
"661 702 CURVE SMOOTH",
"626 702 OFFCURVE",
"588 705 OFFCURVE",
"559 709 CURVE",
"556 671 LINE",
"591 668 OFFCURVE",
"631 657 OFFCURVE",
"652 639 CURVE",
"652 260 LINE SMOOTH",
"652 93 OFFCURVE",
"531 35 OFFCURVE",
"442 35 CURVE SMOOTH",
"333 35 OFFCURVE",
"230 90 OFFCURVE",
"230 258 CURVE SMOOTH",
"230 630 LINE",
"255 646 OFFCURVE",
"288 661 OFFCURVE",
"321 669 CURVE",
"319 707 LINE",
"285 702 OFFCURVE",
"201 700 OFFCURVE",
"163 700 CURVE SMOOTH",
"115 700 OFFCURVE",
"75 703 OFFCURVE",
"35 707 CURVE",
"31 662 LINE",
"61 654 OFFCURVE",
"91 646 OFFCURVE",
"113 629 CURVE",
"113 231 LINE SMOOTH",
"113 60 OFFCURVE",
"256 -18 OFFCURVE",
"408 -18 CURVE SMOOTH",
"568 -18 OFFCURVE",
"700 59 OFFCURVE",
"700 260 CURVE SMOOTH",
"700 639 LINE",
"720 658 OFFCURVE",
"746 669 OFFCURVE",
"780 677 CURVE"
);
},
{
closed = 1;
nodes = (
"420 866 LINE",
"323 767 LINE",
"343 744 LINE",
"430 784 LINE",
"513 745 LINE",
"543 767 LINE",
"467 866 LINE"
);
}
);
width = 806;
}
);
leftKerningGroup = U;
note = Ucircumflex;
rightKerningGroup = U;
unicode = 00DB;
},
{
glyphname = Udieresis;
layers = (
{
layerId = "DA0EFD29-AE33-4FCF-848B-DE0D51CB696F";
paths = (
{
closed = 1;
nodes = (
"777 709 LINE",
"751 704 OFFCURVE",
"689 702 OFFCURVE",
"661 702 CURVE SMOOTH",
"626 702 OFFCURVE",
"588 705 OFFCURVE",
"559 709 CURVE",
"556 671 LINE",
"591 668 OFFCURVE",
"631 657 OFFCURVE",
"652 639 CURVE",
"652 260 LINE SMOOTH",
"652 93 OFFCURVE",
"531 35 OFFCURVE",
"442 35 CURVE SMOOTH",
"333 35 OFFCURVE",
"230 90 OFFCURVE",
"230 258 CURVE SMOOTH",
"230 630 LINE",
"255 646 OFFCURVE",
"288 661 OFFCURVE",
"321 669 CURVE",
"319 707 LINE",
"285 702 OFFCURVE",
"201 700 OFFCURVE",
"163 700 CURVE SMOOTH",
"115 700 OFFCURVE",
"75 703 OFFCURVE",
"35 707 CURVE",
"31 662 LINE",
"61 654 OFFCURVE",
"91 646 OFFCURVE",
"113 629 CURVE",
"113 231 LINE SMOOTH",
"113 60 OFFCURVE",
"256 -18 OFFCURVE",
"408 -18 CURVE SMOOTH",
"568 -18 OFFCURVE",
"700 59 OFFCURVE",
"700 260 CURVE SMOOTH",
"700 639 LINE",
"720 658 OFFCURVE",
"746 669 OFFCURVE",
"780 677 CURVE"
);
},
{
closed = 1;
nodes = (
"276 793 OFFCURVE",
"299 766 OFFCURVE",
"333 766 CURVE SMOOTH",
"368 766 OFFCURVE",
"399 797 OFFCURVE",
"399 837 CURVE SMOOTH",
"399 869 OFFCURVE",
"375 896 OFFCURVE",
"341 896 CURVE SMOOTH",
"307 896 OFFCURVE",
"276 865 OFFCURVE",
"276 826 CURVE SMOOTH"
);
},
{
closed = 1;
nodes = (
"472 793 OFFCURVE",
"495 766 OFFCURVE",
"530 766 CURVE SMOOTH",
"564 766 OFFCURVE",
"596 797 OFFCURVE",
"596 837 CURVE SMOOTH",
"596 869 OFFCURVE",
"572 896 OFFCURVE",
"537 896 CURVE SMOOTH",
"503 896 OFFCURVE",
"472 865 OFFCURVE",
"472 826 CURVE SMOOTH"
);
}
);
width = 806;
}
);
leftKerningGroup = U;
note = Udieresis;
rightKerningGroup = U;
unicode = 00DC;
},
{
glyphname = Ugrave;
layers = (
{
layerId = "DA0EFD29-AE33-4FCF-848B-DE0D51CB696F";
paths = (
{
closed = 1;
nodes = (
"777 709 LINE",
"751 704 OFFCURVE",
"689 702 OFFCURVE",
"661 702 CURVE SMOOTH",
"626 702 OFFCURVE",
"588 705 OFFCURVE",
"559 709 CURVE",
"556 671 LINE",
"591 668 OFFCURVE",
"631 657 OFFCURVE",
"652 639 CURVE",
"652 260 LINE SMOOTH",
"652 93 OFFCURVE",
"531 35 OFFCURVE",
"442 35 CURVE SMOOTH",
"333 35 OFFCURVE",
"230 90 OFFCURVE",
"230 258 CURVE SMOOTH",
"230 630 LINE",
"255 646 OFFCURVE",
"288 661 OFFCURVE",
"321 669 CURVE",
"319 707 LINE",
"285 702 OFFCURVE",
"201 700 OFFCURVE",
"163 700 CURVE SMOOTH",
"115 700 OFFCURVE",
"75 703 OFFCURVE",
"35 707 CURVE",
"31 662 LINE",
"61 654 OFFCURVE",
"91 646 OFFCURVE",
"113 629 CURVE",
"113 231 LINE SMOOTH",
"113 60 OFFCURVE",
"256 -18 OFFCURVE",
"408 -18 CURVE SMOOTH",
"568 -18 OFFCURVE",
"700 59 OFFCURVE",
"700 260 CURVE SMOOTH",
"700 639 LINE",
"720 658 OFFCURVE",
"746 669 OFFCURVE",
"780 677 CURVE"
);
},
{
closed = 1;
nodes = (
"498 764 LINE",
"453 798 OFFCURVE",
"423 845 OFFCURVE",
"416 888 CURVE",
"386 892 LINE",
"333 856 LINE",
"352 797 OFFCURVE",
"397 750 OFFCURVE",
"474 729 CURVE"
);
}
);
width = 806;
}
);
leftKerningGroup = U;
note = Ugrave;
rightKerningGroup = U;
unicode = 00D9;
},
{
glyphname = V;
layers = (
{
layerId = "DA0EFD29-AE33-4FCF-848B-DE0D51CB696F";
paths = (
{
closed = 1;
nodes = (
"561 668 LINE",
"591 663 OFFCURVE",
"629 655 OFFCURVE",
"660 640 CURVE",
"623 483 OFFCURVE",
"497 234 OFFCURVE",
"450 138 CURVE",
"441 96 LINE",
"438 96 LINE",
"428 138 LINE",
"209 641 LINE",
"240 656 OFFCURVE",
"283 668 OFFCURVE",
"312 674 CURVE",
"311 706 LINE",
"287 703 OFFCURVE",
"204 700 OFFCURVE",
"164 700 CURVE SMOOTH",
"124 700 OFFCURVE",
"61 702 OFFCURVE",
"25 705 CURVE",
"20 668 LINE",
"40 664 OFFCURVE",
"62 657 OFFCURVE",
"83 647 CURVE",
"395 -20 LINE",
"435 -18 LINE",
"452 4 LINE",
"493 137 OFFCURVE",
"670 484 OFFCURVE",
"771 653 CURVE",
"789 662 OFFCURVE",
"809 670 OFFCURVE",
"823 674 CURVE",
"822 706 LINE",
"798 703 OFFCURVE",
"737 700 OFFCURVE",
"697 700 CURVE SMOOTH",
"657 700 OFFCURVE",
"602 702 OFFCURVE",
"566 705 CURVE"
);
}
);
width = 843;
}
);
leftKerningGroup = V;
note = V;
rightKerningGroup = V;
unicode = 0056;
},
{
glyphname = W;
layers = (
{
layerId = "DA0EFD29-AE33-4FCF-848B-DE0D51CB696F";
paths = (
{
closed = 1;
nodes = (
"965 668 LINE",
"986 665 OFFCURVE",
"1011 658 OFFCURVE",
"1035 650 CURVE",
"992 487 OFFCURVE",
"860 243 OFFCURVE",
"797 138 CURVE",
"788 96 LINE",
"785 96 LINE",
"775 138 LINE",
"684 360 LINE",
"748 469 OFFCURVE",
"812 579 OFFCURVE",
"860 653 CURVE",
"879 662 OFFCURVE",
"899 670 OFFCURVE",
"913 674 CURVE",
"912 706 LINE",
"888 703 OFFCURVE",
"847 700 OFFCURVE",
"807 700 CURVE SMOOTH",
"767 700 OFFCURVE",
"732 702 OFFCURVE",
"696 705 CURVE",
"691 668 LINE",
"715 661 OFFCURVE",
"733 654 OFFCURVE",
"750 644 CURVE",
"731 581 OFFCURVE",
"697 502 OFFCURVE",
"657 426 CURVE",
"568 643 LINE",
"588 656 OFFCURVE",
"613 669 OFFCURVE",
"639 674 CURVE",
"638 706 LINE",
"614 703 OFFCURVE",
"565 700 OFFCURVE",
"525 700 CURVE SMOOTH",
"485 700 OFFCURVE",
"408 702 OFFCURVE",
"372 705 CURVE",
"367 668 LINE",
"387 664 OFFCURVE",
"415 660 OFFCURVE",
"442 652 CURVE",
"587 327 LINE",
"542 247 OFFCURVE",
"505 177 OFFCURVE",
"480 138 CURVE",
"471 96 LINE",
"468 96 LINE",
"458 138 LINE",
"211 641 LINE",
"241 654 OFFCURVE",
"285 669 OFFCURVE",
"312 674 CURVE",
"311 706 LINE",
"287 703 OFFCURVE",
"204 700 OFFCURVE",
"164 700 CURVE SMOOTH",
"124 700 OFFCURVE",
"61 702 OFFCURVE",
"25 705 CURVE",
"20 668 LINE",
"38 665 OFFCURVE",
"59 660 OFFCURVE",
"80 654 CURVE",
"425 -20 LINE",
"465 -18 LINE",
"482 4 LINE",
"502 54 OFFCURVE",
"549 156 OFFCURVE",
"613 268 CURVE",
"742 -20 LINE",
"782 -18 LINE",
"799 4 LINE",
"840 134 OFFCURVE",
"1023 450 OFFCURVE",
"1128 626 CURVE",
"1130 626 LINE",
"1149 642 OFFCURVE",
"1200 667 OFFCURVE",
"1227 674 CURVE",
"1226 706 LINE",
"1202 703 OFFCURVE",
"1141 700 OFFCURVE",
"1101 700 CURVE SMOOTH",
"1061 700 OFFCURVE",
"1006 702 OFFCURVE",
"970 705 CURVE"
);
}
);
width = 1242;
}
);
leftKerningGroup = W;
note = W;
rightKerningGroup = W;
unicode = 0057;
},
{
glyphname = X;
layers = (
{
layerId = "DA0EFD29-AE33-4FCF-848B-DE0D51CB696F";
paths = (
{
closed = 1;
nodes = (
"297 37 LINE",
"262 42 OFFCURVE",
"213 57 OFFCURVE",
"182 73 CURVE",
"368 304 LINE",
"554 60 LINE",
"524 47 OFFCURVE",
"486 35 OFFCURVE",
"462 31 CURVE",
"463 -6 LINE",
"487 -3 OFFCURVE",
"570 0 OFFCURVE",
"610 0 CURVE SMOOTH",
"650 0 OFFCURVE",
"733 -2 OFFCURVE",
"769 -5 CURVE",
"774 37 LINE",
"752 40 OFFCURVE",
"727 46 OFFCURVE",
"702 54 CURVE",
"447 390 LINE",
"648 635 LINE",
"671 650 OFFCURVE",
"710 668 OFFCURVE",
"732 674 CURVE",
"731 706 LINE",
"707 703 OFFCURVE",
"646 700 OFFCURVE",
"606 700 CURVE SMOOTH",
"566 700 OFFCURVE",
"511 702 OFFCURVE",
"475 705 CURVE",
"470 668 LINE",
"504 663 OFFCURVE",
"550 648 OFFCURVE",
"581 633 CURVE",
"417 430 LINE",
"251 648 LINE",
"279 659 OFFCURVE",
"313 670 OFFCURVE",
"335 674 CURVE",
"334 706 LINE",
"310 703 OFFCURVE",
"227 700 OFFCURVE",
"187 700 CURVE SMOOTH",
"147 700 OFFCURVE",
"84 702 OFFCURVE",
"48 705 CURVE",
"43 668 LINE",
"61 665 OFFCURVE",
"81 661 OFFCURVE",
"102 654 CURVE",
"337 345 LINE",
"103 62 LINE",
"78 49 OFFCURVE",
"43 36 OFFCURVE",
"25 31 CURVE",
"26 -6 LINE",
"50 -3 OFFCURVE",
"111 0 OFFCURVE",
"151 0 CURVE SMOOTH",
"191 0 OFFCURVE",
"256 -2 OFFCURVE",
"292 -5 CURVE"
);
}
);
width = 799;
}
);
leftKerningGroup = X;
note = X;
rightKerningGroup = X;
unicode = 0058;
},
{
glyphname = Y;
layers = (
{
layerId = "DA0EFD29-AE33-4FCF-848B-DE0D51CB696F";
paths = (
{
closed = 1;
nodes = (
"209 -8 LINE",
"243 -4 OFFCURVE",
"335 0 OFFCURVE",
"373 0 CURVE SMOOTH",
"421 0 OFFCURVE",
"490 -4 OFFCURVE",
"530 -8 CURVE",
"534 37 LINE",
"493 41 OFFCURVE",
"460 51 OFFCURVE",
"432 70 CURVE",
"427 110 OFFCURVE",
"427 157 OFFCURVE",
"427 211 CURVE SMOOTH",
"427 254 OFFCURVE",
"427 289 OFFCURVE",
"430 321 CURVE",
"671 643 LINE",
"694 656 OFFCURVE",
"724 669 OFFCURVE",
"743 674 CURVE",
"742 706 LINE",
"718 703 OFFCURVE",
"657 700 OFFCURVE",
"617 700 CURVE SMOOTH",
"577 700 OFFCURVE",
"522 702 OFFCURVE",
"486 705 CURVE",
"481 668 LINE",
"515 662 OFFCURVE",
"562 648 OFFCURVE",
"593 632 CURVE",
"403 374 LINE",
"226 647 LINE",
"254 659 OFFCURVE",
"289 669 OFFCURVE",
"312 674 CURVE",
"311 706 LINE",
"287 703 OFFCURVE",
"204 700 OFFCURVE",
"164 700 CURVE SMOOTH",
"124 700 OFFCURVE",
"61 702 OFFCURVE",
"25 705 CURVE",
"20 668 LINE",
"41 664 OFFCURVE",
"65 659 OFFCURVE",
"90 651 CURVE",
"319 317 LINE",
"322 285 OFFCURVE",
"322 254 OFFCURVE",
"322 217 CURVE SMOOTH",
"322 157 OFFCURVE",
"319 107 OFFCURVE",
"315 67 CURVE",
"287 48 OFFCURVE",
"245 34 OFFCURVE",
"204 28 CURVE"
);
}
);
width = 763;
}
);
leftKerningGroup = Y;
note = Y;
rightKerningGroup = Y;
unicode = 0059;
},
{
glyphname = Yacute;
layers = (
{
layerId = "DA0EFD29-AE33-4FCF-848B-DE0D51CB696F";
paths = (
{
closed = 1;
nodes = (
"209 -8 LINE",
"243 -4 OFFCURVE",
"335 0 OFFCURVE",
"373 0 CURVE SMOOTH",
"421 0 OFFCURVE",
"490 -4 OFFCURVE",
"530 -8 CURVE",
"534 37 LINE",
"493 41 OFFCURVE",
"460 51 OFFCURVE",
"432 70 CURVE",
"427 110 OFFCURVE",
"427 157 OFFCURVE",
"427 211 CURVE SMOOTH",
"427 254 OFFCURVE",
"427 289 OFFCURVE",
"430 321 CURVE",
"671 643 LINE",
"694 656 OFFCURVE",
"724 669 OFFCURVE",
"743 674 CURVE",
"742 706 LINE",
"718 703 OFFCURVE",
"657 700 OFFCURVE",
"617 700 CURVE SMOOTH",
"577 700 OFFCURVE",
"522 702 OFFCURVE",
"486 705 CURVE",
"481 668 LINE",
"515 662 OFFCURVE",
"562 648 OFFCURVE",
"593 632 CURVE",
"403 374 LINE",
"226 647 LINE",
"254 659 OFFCURVE",
"289 669 OFFCURVE",
"312 674 CURVE",
"311 706 LINE",
"287 703 OFFCURVE",
"204 700 OFFCURVE",
"164 700 CURVE SMOOTH",
"124 700 OFFCURVE",
"61 702 OFFCURVE",
"25 705 CURVE",
"20 668 LINE",
"41 664 OFFCURVE",
"65 659 OFFCURVE",
"90 651 CURVE",
"319 317 LINE",
"322 285 OFFCURVE",
"322 254 OFFCURVE",
"322 217 CURVE SMOOTH",
"322 157 OFFCURVE",
"319 107 OFFCURVE",
"315 67 CURVE",
"287 48 OFFCURVE",
"245 34 OFFCURVE",
"204 28 CURVE"
);
},
{
closed = 1;
nodes = (
"347 729 LINE",
"424 750 OFFCURVE",
"469 797 OFFCURVE",
"488 856 CURVE",
"435 892 LINE",
"405 888 LINE",
"398 845 OFFCURVE",
"368 798 OFFCURVE",
"323 764 CURVE"
);
}
);
width = 763;
}
);
leftKerningGroup = Y;
note = Yacute;
rightKerningGroup = Y;
unicode = 00DD;
},
{
glyphname = Ydieresis;
layers = (
{
layerId = "DA0EFD29-AE33-4FCF-848B-DE0D51CB696F";
paths = (
{
closed = 1;
nodes = (
"209 -8 LINE",
"243 -4 OFFCURVE",
"335 0 OFFCURVE",
"373 0 CURVE SMOOTH",
"421 0 OFFCURVE",
"490 -4 OFFCURVE",
"530 -8 CURVE",
"534 37 LINE",
"493 41 OFFCURVE",
"460 51 OFFCURVE",
"432 70 CURVE",
"427 110 OFFCURVE",
"427 157 OFFCURVE",
"427 211 CURVE SMOOTH",
"427 254 OFFCURVE",
"427 289 OFFCURVE",
"430 321 CURVE",
"671 643 LINE",
"694 656 OFFCURVE",
"724 669 OFFCURVE",
"743 674 CURVE",
"742 706 LINE",
"718 703 OFFCURVE",
"657 700 OFFCURVE",
"617 700 CURVE SMOOTH",
"577 700 OFFCURVE",
"522 702 OFFCURVE",
"486 705 CURVE",
"481 668 LINE",
"515 662 OFFCURVE",
"562 648 OFFCURVE",
"593 632 CURVE",
"403 374 LINE",
"226 647 LINE",
"254 659 OFFCURVE",
"289 669 OFFCURVE",
"312 674 CURVE",
"311 706 LINE",
"287 703 OFFCURVE",
"204 700 OFFCURVE",
"164 700 CURVE SMOOTH",
"124 700 OFFCURVE",
"61 702 OFFCURVE",
"25 705 CURVE",
"20 668 LINE",
"41 664 OFFCURVE",
"65 659 OFFCURVE",
"90 651 CURVE",
"319 317 LINE",
"322 285 OFFCURVE",
"322 254 OFFCURVE",
"322 217 CURVE SMOOTH",
"322 157 OFFCURVE",
"319 107 OFFCURVE",
"315 67 CURVE",
"287 48 OFFCURVE",
"245 34 OFFCURVE",
"204 28 CURVE"
);
},
{
closed = 1;
nodes = (
"240 793 OFFCURVE",
"263 766 OFFCURVE",
"297 766 CURVE SMOOTH",
"332 766 OFFCURVE",
"363 797 OFFCURVE",
"363 837 CURVE SMOOTH",
"363 869 OFFCURVE",
"339 896 OFFCURVE",
"305 896 CURVE SMOOTH",
"271 896 OFFCURVE",
"240 865 OFFCURVE",
"240 826 CURVE SMOOTH"
);
},
{
closed = 1;
nodes = (
"436 793 OFFCURVE",
"459 766 OFFCURVE",
"494 766 CURVE SMOOTH",
"528 766 OFFCURVE",
"560 797 OFFCURVE",
"560 837 CURVE SMOOTH",
"560 869 OFFCURVE",
"536 896 OFFCURVE",
"501 896 CURVE SMOOTH",
"467 896 OFFCURVE",
"436 865 OFFCURVE",
"436 826 CURVE SMOOTH"
);
}
);
width = 763;
}
);
leftKerningGroup = Y;
note = Ydieresis;
rightKerningGroup = Y;
unicode = 0178;
},
{
glyphname = Z;
layers = (
{
layerId = "DA0EFD29-AE33-4FCF-848B-DE0D51CB696F";
paths = (
{
closed = 1;
nodes = (
"64 559 LINE",
"99 544 LINE",
"182 623 LINE",
"233 640 OFFCURVE",
"290 650 OFFCURVE",
"355 650 CURVE SMOOTH",
"404 650 OFFCURVE",
"470 647 OFFCURVE",
"519 638 CURVE",
"408 468 OFFCURVE",
"237 268 OFFCURVE",
"30 36 CURVE",
"49 -15 LINE",
"119 -5 OFFCURVE",
"233 0 OFFCURVE",
"327 0 CURVE SMOOTH",
"437 0 OFFCURVE",
"526 -4 OFFCURVE",
"632 -19 CURVE",
"689 136 LINE",
"641 159 LINE",
"560 72 LINE",
"484 54 OFFCURVE",
"423 46 OFFCURVE",
"346 46 CURVE SMOOTH",
"290 46 OFFCURVE",
"235 52 OFFCURVE",
"197 61 CURVE",
"380 261 OFFCURVE",
"559 493 OFFCURVE",
"685 680 CURVE",
"655 710 LINE",
"568 703 OFFCURVE",
"468 700 OFFCURVE",
"378 700 CURVE SMOOTH",
"289 700 OFFCURVE",
"196 705 OFFCURVE",
"114 715 CURVE"
);
}
);
width = 719;
}
);
leftKerningGroup = Z;
note = Z;
rightKerningGroup = Z;
unicode = 005A;
},
{
glyphname = Zcaron;
layers = (
{
layerId = "DA0EFD29-AE33-4FCF-848B-DE0D51CB696F";
paths = (
{
closed = 1;
nodes = (
"64 559 LINE",
"99 544 LINE",
"182 623 LINE",
"233 640 OFFCURVE",
"290 650 OFFCURVE",
"355 650 CURVE SMOOTH",
"404 650 OFFCURVE",
"470 647 OFFCURVE",
"519 638 CURVE",
"408 468 OFFCURVE",
"237 268 OFFCURVE",
"30 36 CURVE",
"49 -15 LINE",
"119 -5 OFFCURVE",
"233 0 OFFCURVE",
"327 0 CURVE SMOOTH",
"437 0 OFFCURVE",
"526 -4 OFFCURVE",
"632 -19 CURVE",
"689 136 LINE",
"641 159 LINE",
"560 72 LINE",
"484 54 OFFCURVE",
"423 46 OFFCURVE",
"346 46 CURVE SMOOTH",
"290 46 OFFCURVE",
"235 52 OFFCURVE",
"197 61 CURVE",
"380 261 OFFCURVE",
"559 493 OFFCURVE",
"685 680 CURVE",
"655 710 LINE",
"568 703 OFFCURVE",
"468 700 OFFCURVE",
"378 700 CURVE SMOOTH",
"289 700 OFFCURVE",
"196 705 OFFCURVE",
"114 715 CURVE"
);
},
{
closed = 1;
nodes = (
"403 744 LINE",
"500 843 LINE",
"480 866 LINE",
"393 826 LINE",
"310 865 LINE",
"280 843 LINE",
"356 744 LINE"
);
}
);
width = 719;
}
);
leftKerningGroup = Z;
note = Zcaron;
rightKerningGroup = Z;
unicode = 017D;
},
{
glyphname = a;
layers = (
{
layerId = "DA0EFD29-AE33-4FCF-848B-DE0D51CB696F";
paths = (
{
closed = 1;
nodes = (
"73 323 LINE",
"114 345 OFFCURVE",
"166 364 OFFCURVE",
"204 364 CURVE SMOOTH",
"255 364 OFFCURVE",
"281 341 OFFCURVE",
"281 262 CURVE SMOOTH",
"281 239 LINE",
"84 205 OFFCURVE",
"40 153 OFFCURVE",
"40 85 CURVE SMOOTH",
"40 16 OFFCURVE",
"94 -17 OFFCURVE",
"147 -17 CURVE SMOOTH",
"189 -17 OFFCURVE",
"229 2 OFFCURVE",
"286 48 CURVE",
"298 13 OFFCURVE",
"322 -4 OFFCURVE",
"349 -16 CURVE",
"438 41 LINE",
"431 69 LINE",
"398 73 OFFCURVE",
"372 92 OFFCURVE",
"372 137 CURVE SMOOTH",
"372 185 OFFCURVE",
"374 250 OFFCURVE",
"374 285 CURVE SMOOTH",
"374 389 OFFCURVE",
"321 439 OFFCURVE",
"248 439 CURVE SMOOTH",
"175 439 OFFCURVE",
"97 396 OFFCURVE",
"54 353 CURVE"
);
},
{
closed = 1;
nodes = (
"279 96 LINE",
"243 63 OFFCURVE",
"205 51 OFFCURVE",
"183 51 CURVE SMOOTH",
"148 51 OFFCURVE",
"133 74 OFFCURVE",
"133 101 CURVE SMOOTH",
"133 145 OFFCURVE",
"172 180 OFFCURVE",
"280 194 CURVE",
"280 163 OFFCURVE",
"279 131 OFFCURVE",
"279 99 CURVE SMOOTH"
);
}
);
width = 458;
}
);
leftKerningGroup = a;
note = a;
rightKerningGroup = a;
unicode = 0061;
},
{
glyphname = aacute;
layers = (
{
layerId = "DA0EFD29-AE33-4FCF-848B-DE0D51CB696F";
paths = (
{
closed = 1;
nodes = (
"73 323 LINE",
"114 345 OFFCURVE",
"166 364 OFFCURVE",
"204 364 CURVE SMOOTH",
"255 364 OFFCURVE",
"281 341 OFFCURVE",
"281 262 CURVE SMOOTH",
"281 239 LINE",
"84 205 OFFCURVE",
"40 153 OFFCURVE",
"40 85 CURVE SMOOTH",
"40 16 OFFCURVE",
"94 -17 OFFCURVE",
"147 -17 CURVE SMOOTH",
"189 -17 OFFCURVE",
"229 2 OFFCURVE",
"286 48 CURVE",
"298 13 OFFCURVE",
"322 -4 OFFCURVE",
"349 -16 CURVE",
"438 41 LINE",
"431 69 LINE",
"398 73 OFFCURVE",
"372 92 OFFCURVE",
"372 137 CURVE SMOOTH",
"372 185 OFFCURVE",
"374 250 OFFCURVE",
"374 285 CURVE SMOOTH",
"374 389 OFFCURVE",
"321 439 OFFCURVE",
"248 439 CURVE SMOOTH",
"175 439 OFFCURVE",
"97 396 OFFCURVE",
"54 353 CURVE"
);
},
{
closed = 1;
nodes = (
"279 96 LINE",
"243 63 OFFCURVE",
"205 51 OFFCURVE",
"183 51 CURVE SMOOTH",
"148 51 OFFCURVE",
"133 74 OFFCURVE",
"133 101 CURVE SMOOTH",
"133 145 OFFCURVE",
"172 180 OFFCURVE",
"280 194 CURVE",
"280 163 OFFCURVE",
"279 131 OFFCURVE",
"279 99 CURVE SMOOTH"
);
},
{
closed = 1;
nodes = (
"170 499 LINE",
"247 520 OFFCURVE",
"292 567 OFFCURVE",
"311 626 CURVE",
"258 662 LINE",
"228 658 LINE",
"221 615 OFFCURVE",
"191 568 OFFCURVE",
"146 534 CURVE"
);
}
);
width = 458;
}
);
leftKerningGroup = a;
note = aacute;
rightKerningGroup = a;
unicode = 00E1;
},
{
glyphname = acircumflex;
layers = (
{
layerId = "DA0EFD29-AE33-4FCF-848B-DE0D51CB696F";
paths = (
{
closed = 1;
nodes = (
"73 323 LINE",
"114 345 OFFCURVE",
"166 364 OFFCURVE",
"204 364 CURVE SMOOTH",
"255 364 OFFCURVE",
"281 341 OFFCURVE",
"281 262 CURVE SMOOTH",
"281 239 LINE",
"84 205 OFFCURVE",
"40 153 OFFCURVE",
"40 85 CURVE SMOOTH",
"40 16 OFFCURVE",
"94 -17 OFFCURVE",
"147 -17 CURVE SMOOTH",
"189 -17 OFFCURVE",
"229 2 OFFCURVE",
"286 48 CURVE",
"298 13 OFFCURVE",
"322 -4 OFFCURVE",
"349 -16 CURVE",
"438 41 LINE",
"431 69 LINE",
"398 73 OFFCURVE",
"372 92 OFFCURVE",
"372 137 CURVE SMOOTH",
"372 185 OFFCURVE",
"374 250 OFFCURVE",
"374 285 CURVE SMOOTH",
"374 389 OFFCURVE",
"321 439 OFFCURVE",
"248 439 CURVE SMOOTH",
"175 439 OFFCURVE",
"97 396 OFFCURVE",
"54 353 CURVE"
);
},
{
closed = 1;
nodes = (
"279 96 LINE",
"243 63 OFFCURVE",
"205 51 OFFCURVE",
"183 51 CURVE SMOOTH",
"148 51 OFFCURVE",
"133 74 OFFCURVE",
"133 101 CURVE SMOOTH",
"133 145 OFFCURVE",
"172 180 OFFCURVE",
"280 194 CURVE",
"280 163 OFFCURVE",
"279 131 OFFCURVE",
"279 99 CURVE SMOOTH"
);
},
{
closed = 1;
nodes = (
"207 636 LINE",
"110 537 LINE",
"130 514 LINE",
"217 554 LINE",
"300 515 LINE",
"330 537 LINE",
"254 636 LINE"
);
}
);
width = 458;
}
);
leftKerningGroup = a;
note = acircumflex;
rightKerningGroup = a;
unicode = 00E2;
},
{
glyphname = adieresis;
layers = (
{
layerId = "DA0EFD29-AE33-4FCF-848B-DE0D51CB696F";
paths = (
{
closed = 1;
nodes = (
"73 323 LINE",
"114 345 OFFCURVE",
"166 364 OFFCURVE",
"204 364 CURVE SMOOTH",
"255 364 OFFCURVE",
"281 341 OFFCURVE",
"281 262 CURVE SMOOTH",
"281 239 LINE",
"84 205 OFFCURVE",
"40 153 OFFCURVE",
"40 85 CURVE SMOOTH",
"40 16 OFFCURVE",
"94 -17 OFFCURVE",
"147 -17 CURVE SMOOTH",
"189 -17 OFFCURVE",
"229 2 OFFCURVE",
"286 48 CURVE",
"298 13 OFFCURVE",
"322 -4 OFFCURVE",
"349 -16 CURVE",
"438 41 LINE",
"431 69 LINE",
"398 73 OFFCURVE",
"372 92 OFFCURVE",
"372 137 CURVE SMOOTH",
"372 185 OFFCURVE",
"374 250 OFFCURVE",
"374 285 CURVE SMOOTH",
"374 389 OFFCURVE",
"321 439 OFFCURVE",
"248 439 CURVE SMOOTH",
"175 439 OFFCURVE",
"97 396 OFFCURVE",
"54 353 CURVE"
);
},
{
closed = 1;
nodes = (
"279 96 LINE",
"243 63 OFFCURVE",
"205 51 OFFCURVE",
"183 51 CURVE SMOOTH",
"148 51 OFFCURVE",
"133 74 OFFCURVE",
"133 101 CURVE SMOOTH",
"133 145 OFFCURVE",
"172 180 OFFCURVE",
"280 194 CURVE",
"280 163 OFFCURVE",
"279 131 OFFCURVE",
"279 99 CURVE SMOOTH"
);
},
{
closed = 1;
nodes = (
"63 563 OFFCURVE",
"86 536 OFFCURVE",
"120 536 CURVE SMOOTH",
"155 536 OFFCURVE",
"186 567 OFFCURVE",
"186 607 CURVE SMOOTH",
"186 639 OFFCURVE",
"162 666 OFFCURVE",
"128 666 CURVE SMOOTH",
"94 666 OFFCURVE",
"63 635 OFFCURVE",
"63 596 CURVE SMOOTH"
);
},
{
closed = 1;
nodes = (
"259 563 OFFCURVE",
"282 536 OFFCURVE",
"317 536 CURVE SMOOTH",
"351 536 OFFCURVE",
"383 567 OFFCURVE",
"383 607 CURVE SMOOTH",
"383 639 OFFCURVE",
"359 666 OFFCURVE",
"324 666 CURVE SMOOTH",
"290 666 OFFCURVE",
"259 635 OFFCURVE",
"259 596 CURVE SMOOTH"
);
}
);
width = 458;
}
);
leftKerningGroup = a;
note = adieresis;
rightKerningGroup = a;
unicode = 00E4;
},
{
glyphname = agrave;
layers = (
{
layerId = "DA0EFD29-AE33-4FCF-848B-DE0D51CB696F";
paths = (
{
closed = 1;
nodes = (
"73 323 LINE",
"114 345 OFFCURVE",
"166 364 OFFCURVE",
"204 364 CURVE SMOOTH",
"255 364 OFFCURVE",
"281 341 OFFCURVE",
"281 262 CURVE SMOOTH",
"281 239 LINE",
"84 205 OFFCURVE",
"40 153 OFFCURVE",
"40 85 CURVE SMOOTH",
"40 16 OFFCURVE",
"94 -17 OFFCURVE",
"147 -17 CURVE SMOOTH",
"189 -17 OFFCURVE",
"229 2 OFFCURVE",
"286 48 CURVE",
"298 13 OFFCURVE",
"322 -4 OFFCURVE",
"349 -16 CURVE",
"438 41 LINE",
"431 69 LINE",
"398 73 OFFCURVE",
"372 92 OFFCURVE",
"372 137 CURVE SMOOTH",
"372 185 OFFCURVE",
"374 250 OFFCURVE",
"374 285 CURVE SMOOTH",
"374 389 OFFCURVE",
"321 439 OFFCURVE",
"248 439 CURVE SMOOTH",
"175 439 OFFCURVE",
"97 396 OFFCURVE",
"54 353 CURVE"
);
},
{
closed = 1;
nodes = (
"279 96 LINE",
"243 63 OFFCURVE",
"205 51 OFFCURVE",
"183 51 CURVE SMOOTH",
"148 51 OFFCURVE",
"133 74 OFFCURVE",
"133 101 CURVE SMOOTH",
"133 145 OFFCURVE",
"172 180 OFFCURVE",
"280 194 CURVE",
"280 163 OFFCURVE",
"279 131 OFFCURVE",
"279 99 CURVE SMOOTH"
);
},
{
closed = 1;
nodes = (
"285 534 LINE",
"240 568 OFFCURVE",
"210 615 OFFCURVE",
"203 658 CURVE",
"173 662 LINE",
"120 626 LINE",
"139 567 OFFCURVE",
"184 520 OFFCURVE",
"261 499 CURVE"
);
}
);
width = 458;
}
);
leftKerningGroup = a;
note = agrave;
rightKerningGroup = a;
unicode = 00E0;
},
{
glyphname = atilde;
layers = (
{
layerId = "DA0EFD29-AE33-4FCF-848B-DE0D51CB696F";
paths = (
{
closed = 1;
nodes = (
"73 323 LINE",
"114 345 OFFCURVE",
"166 364 OFFCURVE",
"204 364 CURVE SMOOTH",
"255 364 OFFCURVE",
"281 341 OFFCURVE",
"281 262 CURVE SMOOTH",
"281 239 LINE",
"84 205 OFFCURVE",
"40 153 OFFCURVE",
"40 85 CURVE SMOOTH",
"40 16 OFFCURVE",
"94 -17 OFFCURVE",
"147 -17 CURVE SMOOTH",
"189 -17 OFFCURVE",
"229 2 OFFCURVE",
"286 48 CURVE",
"298 13 OFFCURVE",
"322 -4 OFFCURVE",
"349 -16 CURVE",
"438 41 LINE",
"431 69 LINE",
"398 73 OFFCURVE",
"372 92 OFFCURVE",
"372 137 CURVE SMOOTH",
"372 185 OFFCURVE",
"374 250 OFFCURVE",
"374 285 CURVE SMOOTH",
"374 389 OFFCURVE",
"321 439 OFFCURVE",
"248 439 CURVE SMOOTH",
"175 439 OFFCURVE",
"97 396 OFFCURVE",
"54 353 CURVE"
);
},
{
closed = 1;
nodes = (
"279 96 LINE",
"243 63 OFFCURVE",
"205 51 OFFCURVE",
"183 51 CURVE SMOOTH",
"148 51 OFFCURVE",
"133 74 OFFCURVE",
"133 101 CURVE SMOOTH",
"133 145 OFFCURVE",
"172 180 OFFCURVE",
"280 194 CURVE",
"280 163 OFFCURVE",
"279 131 OFFCURVE",
"279 99 CURVE SMOOTH"
);
},
{
closed = 1;
nodes = (
"82 544 LINE",
"100 557 OFFCURVE",
"126 574 OFFCURVE",
"151 574 CURVE SMOOTH",
"200 574 OFFCURVE",
"215 531 OFFCURVE",
"279 531 CURVE SMOOTH",
"323 531 OFFCURVE",
"354 562 OFFCURVE",
"383 600 CURVE",
"368 621 LINE",
"346 606 OFFCURVE",
"323 595 OFFCURVE",
"291 595 CURVE SMOOTH",
"243 595 OFFCURVE",
"229 637 OFFCURVE",
"173 637 CURVE SMOOTH",
"128 637 OFFCURVE",
"80 589 OFFCURVE",
"63 565 CURVE"
);
}
);
width = 458;
}
);
leftKerningGroup = a;
note = atilde;
rightKerningGroup = a;
unicode = 00E3;
},
{
glyphname = b;
layers = (
{
layerId = "DA0EFD29-AE33-4FCF-848B-DE0D51CB696F";
paths = (
{
closed = 1;
nodes = (
"96 19 OFFCURVE",
"170 -19 OFFCURVE",
"259 -19 CURVE SMOOTH",
"389 -19 OFFCURVE",
"503 85 OFFCURVE",
"503 237 CURVE SMOOTH",
"503 363 OFFCURVE",
"425 440 OFFCURVE",
"325 440 CURVE SMOOTH",
"270 440 OFFCURVE",
"216 418 OFFCURVE",
"159 380 CURVE",
"159 538 OFFCURVE",
"161 667 OFFCURVE",
"173 750 CURVE",
"146 756 LINE",
"106 728 OFFCURVE",
"46 707 OFFCURVE",
"6 700 CURVE",
"4 673 LINE",
"23 668 OFFCURVE",
"49 657 OFFCURVE",
"65 640 CURVE",
"71 579 OFFCURVE",
"72 447 OFFCURVE",
"72 326 CURVE SMOOTH",
"72 264 OFFCURVE",
"69 97 OFFCURVE",
"60 50 CURVE"
);
},
{
closed = 1;
nodes = (
"162 148 OFFCURVE",
"159 238 OFFCURVE",
"159 330 CURVE",
"192 361 OFFCURVE",
"228 375 OFFCURVE",
"261 375 CURVE SMOOTH",
"345 375 OFFCURVE",
"414 299 OFFCURVE",
"414 188 CURVE SMOOTH",
"414 94 OFFCURVE",
"347 36 OFFCURVE",
"277 36 CURVE SMOOTH",
"232 36 OFFCURVE",
"196 59 OFFCURVE",
"171 92 CURVE"
);
}
);
width = 548;
}
);
leftKerningGroup = b;
note = b;
rightKerningGroup = b;
unicode = 0062;
},
{
glyphname = c;
layers = (
{
layerId = "DA0EFD29-AE33-4FCF-848B-DE0D51CB696F";
paths = (
{
closed = 1;
nodes = (
"375 383 LINE",
"347 413 OFFCURVE",
"306 439 OFFCURVE",
"256 439 CURVE SMOOTH",
"134 439 OFFCURVE",
"40 329 OFFCURVE",
"40 198 CURVE SMOOTH",
"40 80 OFFCURVE",
"113 -18 OFFCURVE",
"220 -18 CURVE SMOOTH",
"285 -18 OFFCURVE",
"342 21 OFFCURVE",
"377 76 CURVE",
"354 109 LINE",
"327 84 OFFCURVE",
"295 71 OFFCURVE",
"259 71 CURVE SMOOTH",
"185 71 OFFCURVE",
"131 131 OFFCURVE",
"131 236 CURVE SMOOTH",
"131 308 OFFCURVE",
"160 381 OFFCURVE",
"232 381 CURVE SMOOTH",
"249 381 OFFCURVE",
"271 377 OFFCURVE",
"290 366 CURVE",
"323 302 LINE",
"355 306 LINE"
);
}
);
width = 427;
}
);
leftKerningGroup = c;
note = c;
rightKerningGroup = c;
unicode = 0063;
},
{
glyphname = ccedilla;
layers = (
{
layerId = "DA0EFD29-AE33-4FCF-848B-DE0D51CB696F";
paths = (
{
closed = 1;
nodes = (
"375 383 LINE",
"347 413 OFFCURVE",
"306 439 OFFCURVE",
"256 439 CURVE SMOOTH",
"134 439 OFFCURVE",
"40 329 OFFCURVE",
"40 198 CURVE SMOOTH",
"40 88 OFFCURVE",
"103 -5 OFFCURVE",
"199 -17 CURVE",
"199 -87 LINE",
"212 -82 OFFCURVE",
"227 -79 OFFCURVE",
"242 -79 CURVE SMOOTH",
"262 -79 OFFCURVE",
"280 -88 OFFCURVE",
"280 -112 CURVE SMOOTH",
"280 -137 OFFCURVE",
"261 -146 OFFCURVE",
"243 -146 CURVE SMOOTH",
"225 -146 OFFCURVE",
"214 -140 OFFCURVE",
"200 -131 CURVE",
"185 -161 LINE",
"201 -173 OFFCURVE",
"218 -180 OFFCURVE",
"240 -180 CURVE SMOOTH",
"275 -180 OFFCURVE",
"315 -158 OFFCURVE",
"315 -109 CURVE SMOOTH",
"315 -72 OFFCURVE",
"292 -48 OFFCURVE",
"264 -48 CURVE SMOOTH",
"247 -48 OFFCURVE",
"238 -51 OFFCURVE",
"227 -57 CURVE",
"227 -18 LINE",
"289 -15 OFFCURVE",
"343 23 OFFCURVE",
"377 76 CURVE",
"354 109 LINE",
"327 84 OFFCURVE",
"295 71 OFFCURVE",
"259 71 CURVE SMOOTH",
"185 71 OFFCURVE",
"131 131 OFFCURVE",
"131 236 CURVE SMOOTH",
"131 308 OFFCURVE",
"160 381 OFFCURVE",
"232 381 CURVE SMOOTH",
"249 381 OFFCURVE",
"271 377 OFFCURVE",
"290 366 CURVE",
"323 302 LINE",
"355 306 LINE"
);
}
);
width = 427;
}
);
leftKerningGroup = c;
note = ccedilla;
rightKerningGroup = c;
unicode = 00E7;
},
{
glyphname = d;
layers = (
{
layerId = "DA0EFD29-AE33-4FCF-848B-DE0D51CB696F";
paths = (
{
closed = 1;
nodes = (
"120 438 OFFCURVE",
"40 302 OFFCURVE",
"40 200 CURVE SMOOTH",
"40 80 OFFCURVE",
"118 -16 OFFCURVE",
"219 -16 CURVE SMOOTH",
"275 -16 OFFCURVE",
"337 16 OFFCURVE",
"388 63 CURVE",
"397 25 OFFCURVE",
"420 -3 OFFCURVE",
"454 -16 CURVE",
"543 41 LINE",
"536 69 LINE",
"499 76 OFFCURVE",
"477 97 OFFCURVE",
"477 137 CURVE SMOOTH",
"477 364 OFFCURVE",
"478 559 OFFCURVE",
"487 751 CURVE",
"460 757 LINE",
"420 732 OFFCURVE",
"356 717 OFFCURVE",
"316 710 CURVE",
"314 683 LINE",
"333 678 OFFCURVE",
"363 667 OFFCURVE",
"379 650 CURVE",
"384 594 OFFCURVE",
"386 502 OFFCURVE",
"387 404 CURVE",
"345 429 OFFCURVE",
"316 438 OFFCURVE",
"262 438 CURVE SMOOTH"
);
},
{
closed = 1;
nodes = (
"355 88 OFFCURVE",
"316 64 OFFCURVE",
"268 64 CURVE SMOOTH",
"189 64 OFFCURVE",
"134 127 OFFCURVE",
"134 227 CURVE SMOOTH",
"134 314 OFFCURVE",
"179 388 OFFCURVE",
"265 388 CURVE SMOOTH",
"311 388 OFFCURVE",
"359 363 OFFCURVE",
"387 310 CURVE",
"386 226 OFFCURVE",
"385 166 OFFCURVE",
"385 119 CURVE"
);
}
);
width = 573;
}
);
leftKerningGroup = d;
note = d;
unicode = 0064;
},
{
glyphname = e;
layers = (
{
layerId = "DA0EFD29-AE33-4FCF-848B-DE0D51CB696F";
paths = (
{
closed = 1;
nodes = (
"368 77 LINE",
"343 68 OFFCURVE",
"306 64 OFFCURVE",
"287 64 CURVE SMOOTH",
"206 64 OFFCURVE",
"126 121 OFFCURVE",
"126 236 CURVE",
"385 236 LINE",
"386 246 OFFCURVE",
"387 257 OFFCURVE",
"387 267 CURVE SMOOTH",
"387 354 OFFCURVE",
"338 438 OFFCURVE",
"229 438 CURVE SMOOTH",
"123 438 OFFCURVE",
"35 329 OFFCURVE",
"35 205 CURVE SMOOTH",
"35 85 OFFCURVE",
"125 -18 OFFCURVE",
"227 -18 CURVE SMOOTH",
"297 -18 OFFCURVE",
"357 24 OFFCURVE",
"378 52 CURVE"
);
},
{
closed = 1;
nodes = (
"261 387 OFFCURVE",
"285 343 OFFCURVE",
"285 289 CURVE",
"241 282 OFFCURVE",
"191 277 OFFCURVE",
"129 276 CURVE",
"137 334 OFFCURVE",
"165 387 OFFCURVE",
"213 387 CURVE SMOOTH"
);
}
);
width = 432;
}
);
leftKerningGroup = e;
note = e;
rightKerningGroup = e;
unicode = 0065;
},
{
glyphname = eacute;
layers = (
{
layerId = "DA0EFD29-AE33-4FCF-848B-DE0D51CB696F";
paths = (
{
closed = 1;
nodes = (
"368 77 LINE",
"343 68 OFFCURVE",
"306 64 OFFCURVE",
"287 64 CURVE SMOOTH",
"206 64 OFFCURVE",
"126 121 OFFCURVE",
"126 236 CURVE",
"385 236 LINE",
"386 246 OFFCURVE",
"387 257 OFFCURVE",
"387 267 CURVE SMOOTH",
"387 354 OFFCURVE",
"338 438 OFFCURVE",
"229 438 CURVE SMOOTH",
"123 438 OFFCURVE",
"35 329 OFFCURVE",
"35 205 CURVE SMOOTH",
"35 85 OFFCURVE",
"125 -18 OFFCURVE",
"227 -18 CURVE SMOOTH",
"297 -18 OFFCURVE",
"357 24 OFFCURVE",
"378 52 CURVE"
);
},
{
closed = 1;
nodes = (
"261 387 OFFCURVE",
"285 343 OFFCURVE",
"285 289 CURVE",
"241 282 OFFCURVE",
"191 277 OFFCURVE",
"129 276 CURVE",
"137 334 OFFCURVE",
"165 387 OFFCURVE",
"213 387 CURVE SMOOTH"
);
},
{
closed = 1;
nodes = (
"168 499 LINE",
"245 520 OFFCURVE",
"290 567 OFFCURVE",
"309 626 CURVE",
"256 662 LINE",
"226 658 LINE",
"219 615 OFFCURVE",
"189 568 OFFCURVE",
"144 534 CURVE"
);
}
);
width = 432;
}
);
leftKerningGroup = e;
note = eacute;
rightKerningGroup = e;
unicode = 00E9;
},
{
glyphname = ecircumflex;
layers = (
{
layerId = "DA0EFD29-AE33-4FCF-848B-DE0D51CB696F";
paths = (
{
closed = 1;
nodes = (
"368 77 LINE",
"343 68 OFFCURVE",
"306 64 OFFCURVE",
"287 64 CURVE SMOOTH",
"206 64 OFFCURVE",
"126 121 OFFCURVE",
"126 236 CURVE",
"385 236 LINE",
"386 246 OFFCURVE",
"387 257 OFFCURVE",
"387 267 CURVE SMOOTH",
"387 354 OFFCURVE",
"338 438 OFFCURVE",
"229 438 CURVE SMOOTH",
"123 438 OFFCURVE",
"35 329 OFFCURVE",
"35 205 CURVE SMOOTH",
"35 85 OFFCURVE",
"125 -18 OFFCURVE",
"227 -18 CURVE SMOOTH",
"297 -18 OFFCURVE",
"357 24 OFFCURVE",
"378 52 CURVE"
);
},
{
closed = 1;
nodes = (
"261 387 OFFCURVE",
"285 343 OFFCURVE",
"285 289 CURVE",
"241 282 OFFCURVE",
"191 277 OFFCURVE",
"129 276 CURVE",
"137 334 OFFCURVE",
"165 387 OFFCURVE",
"213 387 CURVE SMOOTH"
);
},
{
closed = 1;
nodes = (
"205 636 LINE",
"108 537 LINE",
"128 514 LINE",
"215 554 LINE",
"298 515 LINE",
"328 537 LINE",
"252 636 LINE"
);
}
);
width = 432;
}
);
leftKerningGroup = e;
note = ecircumflex;
rightKerningGroup = e;
unicode = 00EA;
},
{
glyphname = edieresis;
layers = (
{
layerId = "DA0EFD29-AE33-4FCF-848B-DE0D51CB696F";
paths = (
{
closed = 1;
nodes = (
"368 77 LINE",
"343 68 OFFCURVE",
"306 64 OFFCURVE",
"287 64 CURVE SMOOTH",
"206 64 OFFCURVE",
"126 121 OFFCURVE",
"126 236 CURVE",
"385 236 LINE",
"386 246 OFFCURVE",
"387 257 OFFCURVE",
"387 267 CURVE SMOOTH",
"387 354 OFFCURVE",
"338 438 OFFCURVE",
"229 438 CURVE SMOOTH",
"123 438 OFFCURVE",
"35 329 OFFCURVE",
"35 205 CURVE SMOOTH",
"35 85 OFFCURVE",
"125 -18 OFFCURVE",
"227 -18 CURVE SMOOTH",
"297 -18 OFFCURVE",
"357 24 OFFCURVE",
"378 52 CURVE"
);
},
{
closed = 1;
nodes = (
"261 387 OFFCURVE",
"285 343 OFFCURVE",
"285 289 CURVE",
"241 282 OFFCURVE",
"191 277 OFFCURVE",
"129 276 CURVE",
"137 334 OFFCURVE",
"165 387 OFFCURVE",
"213 387 CURVE SMOOTH"
);
},
{
closed = 1;
nodes = (
"61 563 OFFCURVE",
"84 536 OFFCURVE",
"118 536 CURVE SMOOTH",
"153 536 OFFCURVE",
"184 567 OFFCURVE",
"184 607 CURVE SMOOTH",
"184 639 OFFCURVE",
"160 666 OFFCURVE",
"126 666 CURVE SMOOTH",
"92 666 OFFCURVE",
"61 635 OFFCURVE",
"61 596 CURVE SMOOTH"
);
},
{
closed = 1;
nodes = (
"257 563 OFFCURVE",
"280 536 OFFCURVE",
"315 536 CURVE SMOOTH",
"349 536 OFFCURVE",
"381 567 OFFCURVE",
"381 607 CURVE SMOOTH",
"381 639 OFFCURVE",
"357 666 OFFCURVE",
"322 666 CURVE SMOOTH",
"288 666 OFFCURVE",
"257 635 OFFCURVE",
"257 596 CURVE SMOOTH"
);
}
);
width = 432;
}
);
leftKerningGroup = e;
note = edieresis;
rightKerningGroup = e;
unicode = 00EB;
},
{
glyphname = egrave;
layers = (
{
layerId = "DA0EFD29-AE33-4FCF-848B-DE0D51CB696F";
paths = (
{
closed = 1;
nodes = (
"368 77 LINE",
"343 68 OFFCURVE",
"306 64 OFFCURVE",
"287 64 CURVE SMOOTH",
"206 64 OFFCURVE",
"126 121 OFFCURVE",
"126 236 CURVE",
"385 236 LINE",
"386 246 OFFCURVE",
"387 257 OFFCURVE",
"387 267 CURVE SMOOTH",
"387 354 OFFCURVE",
"338 438 OFFCURVE",
"229 438 CURVE SMOOTH",
"123 438 OFFCURVE",
"35 329 OFFCURVE",
"35 205 CURVE SMOOTH",
"35 85 OFFCURVE",
"125 -18 OFFCURVE",
"227 -18 CURVE SMOOTH",
"297 -18 OFFCURVE",
"357 24 OFFCURVE",
"378 52 CURVE"
);
},
{
closed = 1;
nodes = (
"261 387 OFFCURVE",
"285 343 OFFCURVE",
"285 289 CURVE",
"241 282 OFFCURVE",
"191 277 OFFCURVE",
"129 276 CURVE",
"137 334 OFFCURVE",
"165 387 OFFCURVE",
"213 387 CURVE SMOOTH"
);
},
{
closed = 1;
nodes = (
"283 534 LINE",
"238 568 OFFCURVE",
"208 615 OFFCURVE",
"201 658 CURVE",
"171 662 LINE",
"118 626 LINE",
"137 567 OFFCURVE",
"182 520 OFFCURVE",
"259 499 CURVE"
);
}
);
width = 432;
}
);
leftKerningGroup = e;
note = egrave;
rightKerningGroup = e;
unicode = 00E8;
},
{
glyphname = f;
layers = (
{
layerId = "DA0EFD29-AE33-4FCF-848B-DE0D51CB696F";
paths = (
{
closed = 1;
nodes = (
"15 -4 LINE",
"49 0 OFFCURVE",
"93 3 OFFCURVE",
"131 3 CURVE SMOOTH",
"179 3 OFFCURVE",
"239 0 OFFCURVE",
"279 -4 CURVE",
"283 29 LINE",
"243 37 OFFCURVE",
"209 54 OFFCURVE",
"185 73 CURVE",
"179 159 OFFCURVE",
"176 262 OFFCURVE",
"175 345 CURVE",
"305 345 LINE",
"310 356 OFFCURVE",
"312 369 OFFCURVE",
"312 384 CURVE SMOOTH",
"312 399 OFFCURVE",
"309 411 OFFCURVE",
"305 420 CURVE",
"175 420 LINE",
"175 530 OFFCURVE",
"178 569 OFFCURVE",
"184 595 CURVE SMOOTH",
"201 666 OFFCURVE",
"241 718 OFFCURVE",
"293 718 CURVE",
"380 662 LINE",
"410 669 OFFCURVE",
"432 693 OFFCURVE",
"442 724 CURVE",
"422 747 OFFCURVE",
"389 760 OFFCURVE",
"324 760 CURVE SMOOTH",
"229 760 OFFCURVE",
"135 689 OFFCURVE",
"102 588 CURVE SMOOTH",
"91 555 OFFCURVE",
"85 503 OFFCURVE",
"83 418 CURVE",
"33 362 LINE",
"42 345 LINE",
"83 345 LINE",
"83 275 OFFCURVE",
"85 176 OFFCURVE",
"89 74 CURVE",
"71 54 OFFCURVE",
"39 36 OFFCURVE",
"13 27 CURVE"
);
}
);
width = 332;
}
);
leftKerningGroup = f;
note = f;
rightKerningGroup = f;
unicode = 0066;
},
{
glyphname = g;
layers = (
{
layerId = "DA0EFD29-AE33-4FCF-848B-DE0D51CB696F";
paths = (
{
closed = 1;
nodes = (
"151 440 OFFCURVE",
"62 366 OFFCURVE",
"62 291 CURVE SMOOTH",
"62 226 OFFCURVE",
"100 185 OFFCURVE",
"152 164 CURVE",
"87 123 OFFCURVE",
"49 86 OFFCURVE",
"49 52 CURVE SMOOTH",
"49 19 OFFCURVE",
"75 5 OFFCURVE",
"113 -2 CURVE",
"60 -46 OFFCURVE",
"30 -87 OFFCURVE",
"30 -127 CURVE SMOOTH",
"30 -187 OFFCURVE",
"100 -220 OFFCURVE",
"192 -220 CURVE SMOOTH",
"329 -220 OFFCURVE",
"472 -169 OFFCURVE",
"472 -44 CURVE SMOOTH",
"472 123 OFFCURVE",
"157 52 OFFCURVE",
"157 105 CURVE SMOOTH",
"157 121 OFFCURVE",
"171 136 OFFCURVE",
"193 152 CURVE",
"210 149 OFFCURVE",
"227 148 OFFCURVE",
"244 148 CURVE SMOOTH",
"332 148 OFFCURVE",
"430 199 OFFCURVE",
"430 294 CURVE SMOOTH",
"430 325 OFFCURVE",
"419 352 OFFCURVE",
"402 374 CURVE",
"464 343 LINE",
"495 343 LINE",
"500 354 OFFCURVE",
"502 368 OFFCURVE",
"502 383 CURVE SMOOTH",
"502 399 OFFCURVE",
"499 411 OFFCURVE",
"495 420 CURVE",
"341 420 LINE",
"312 433 OFFCURVE",
"278 440 OFFCURVE",
"246 440 CURVE SMOOTH"
);
},
{
closed = 1;
nodes = (
"367 -138 OFFCURVE",
"305 -181 OFFCURVE",
"208 -181 CURVE SMOOTH",
"146 -181 OFFCURVE",
"112 -150 OFFCURVE",
"112 -112 CURVE SMOOTH",
"112 -77 OFFCURVE",
"131 -44 OFFCURVE",
"169 -9 CURVE",
"259 -15 OFFCURVE",
"367 -12 OFFCURVE",
"367 -87 CURVE SMOOTH"
);
},
{
closed = 1;
nodes = (
"282 395 OFFCURVE",
"329 349 OFFCURVE",
"329 288 CURVE SMOOTH",
"329 231 OFFCURVE",
"304 191 OFFCURVE",
"250 191 CURVE SMOOTH",
"205 191 OFFCURVE",
"161 227 OFFCURVE",
"161 303 CURVE SMOOTH",
"161 361 OFFCURVE",
"194 395 OFFCURVE",
"238 395 CURVE SMOOTH"
);
}
);
width = 522;
}
);
leftKerningGroup = g;
note = g;
rightKerningGroup = g;
unicode = 0067;
},
{
glyphname = h;
layers = (
{
layerId = "DA0EFD29-AE33-4FCF-848B-DE0D51CB696F";
paths = (
{
closed = 1;
nodes = (
"324 358 OFFCURVE",
"354 338 OFFCURVE",
"363 291 CURVE SMOOTH",
"368 266 OFFCURVE",
"368 234 OFFCURVE",
"368 194 CURVE SMOOTH",
"368 151 OFFCURVE",
"366 100 OFFCURVE",
"364 63 CURVE",
"348 46 OFFCURVE",
"325 35 OFFCURVE",
"301 28 CURVE",
"303 -3 LINE",
"337 0 OFFCURVE",
"380 2 OFFCURVE",
"404 2 CURVE SMOOTH",
"431 2 OFFCURVE",
"471 1 OFFCURVE",
"511 -3 CURVE",
"513 30 LINE",
"488 38 OFFCURVE",
"470 47 OFFCURVE",
"454 63 CURVE",
"455 106 OFFCURVE",
"457 151 OFFCURVE",
"457 200 CURVE SMOOTH",
"457 245 OFFCURVE",
"456 291 OFFCURVE",
"449 329 CURVE SMOOTH",
"438 389 OFFCURVE",
"396 434 OFFCURVE",
"319 434 CURVE SMOOTH",
"272 434 OFFCURVE",
"217 407 OFFCURVE",
"170 373 CURVE",
"170 508 OFFCURVE",
"171 662 OFFCURVE",
"184 750 CURVE",
"157 756 LINE",
"117 728 OFFCURVE",
"53 707 OFFCURVE",
"13 700 CURVE",
"11 673 LINE",
"30 668 OFFCURVE",
"55 657 OFFCURVE",
"71 640 CURVE",
"77 575 OFFCURVE",
"81 471 OFFCURVE",
"81 355 CURVE SMOOTH",
"81 248 OFFCURVE",
"79 135 OFFCURVE",
"71 64 CURVE",
"56 48 OFFCURVE",
"34 34 OFFCURVE",
"12 28 CURVE",
"14 -3 LINE",
"48 0 OFFCURVE",
"97 2 OFFCURVE",
"121 2 CURVE SMOOTH",
"148 2 OFFCURVE",
"202 1 OFFCURVE",
"242 -3 CURVE",
"244 30 LINE",
"221 37 OFFCURVE",
"200 46 OFFCURVE",
"182 60 CURVE",
"175 124 OFFCURVE",
"171 218 OFFCURVE",
"170 315 CURVE",
"197 338 OFFCURVE",
"240 358 OFFCURVE",
"280 358 CURVE SMOOTH"
);
}
);
width = 532;
}
);
leftKerningGroup = h;
note = h;
rightKerningGroup = n;
unicode = 0068;
},
{
glyphname = i;
layers = (
{
layerId = "DA0EFD29-AE33-4FCF-848B-DE0D51CB696F";
paths = (
{
closed = 1;
nodes = (
"83 289 OFFCURVE",
"85 241 OFFCURVE",
"85 188 CURVE SMOOTH",
"85 136 OFFCURVE",
"84 91 OFFCURVE",
"81 55 CURVE",
"64 41 OFFCURVE",
"42 31 OFFCURVE",
"20 25 CURVE",
"22 -6 LINE",
"56 -3 OFFCURVE",
"95 -1 OFFCURVE",
"119 -1 CURVE SMOOTH",
"146 -1 OFFCURVE",
"198 -2 OFFCURVE",
"238 -6 CURVE",
"240 27 LINE",
"215 35 OFFCURVE",
"195 44 OFFCURVE",
"178 60 CURVE",
"174 107 OFFCURVE",
"174 169 OFFCURVE",
"174 231 CURVE SMOOTH",
"174 314 OFFCURVE",
"175 377 OFFCURVE",
"180 432 CURVE",
"159 439 LINE",
"123 416 OFFCURVE",
"54 390 OFFCURVE",
"17 382 CURVE",
"16 357 LINE",
"35 352 OFFCURVE",
"62 340 OFFCURVE",
"78 323 CURVE"
);
},
{
closed = 1;
nodes = (
"62 600 OFFCURVE",
"86 572 OFFCURVE",
"122 572 CURVE SMOOTH",
"158 572 OFFCURVE",
"191 604 OFFCURVE",
"191 646 CURVE SMOOTH",
"191 680 OFFCURVE",
"166 708 OFFCURVE",
"130 708 CURVE SMOOTH",
"94 708 OFFCURVE",
"62 676 OFFCURVE",
"62 635 CURVE SMOOTH"
);
}
);
width = 259;
}
);
leftKerningGroup = dotlessi;
note = i;
unicode = 0069;
},
{
glyphname = dotlessi;
layers = (
{
layerId = "DA0EFD29-AE33-4FCF-848B-DE0D51CB696F";
paths = (
{
closed = 1;
nodes = (
"83 289 OFFCURVE",
"85 241 OFFCURVE",
"85 188 CURVE SMOOTH",
"85 136 OFFCURVE",
"84 91 OFFCURVE",
"81 55 CURVE",
"64 41 OFFCURVE",
"42 31 OFFCURVE",
"20 25 CURVE",
"22 -6 LINE",
"56 -3 OFFCURVE",
"95 -1 OFFCURVE",
"119 -1 CURVE SMOOTH",
"146 -1 OFFCURVE",
"198 -2 OFFCURVE",
"238 -6 CURVE",
"240 27 LINE",
"215 35 OFFCURVE",
"195 44 OFFCURVE",
"178 60 CURVE",
"174 107 OFFCURVE",
"174 169 OFFCURVE",
"174 231 CURVE SMOOTH",
"174 314 OFFCURVE",
"175 377 OFFCURVE",
"180 432 CURVE",
"159 439 LINE",
"123 416 OFFCURVE",
"54 390 OFFCURVE",
"17 382 CURVE",
"16 357 LINE",
"35 352 OFFCURVE",
"62 340 OFFCURVE",
"78 323 CURVE"
);
}
);
width = 259;
}
);
leftKerningGroup = dotlessi;
note = dotlessi;
unicode = 0131;
},
{
glyphname = iacute;
layers = (
{
layerId = "DA0EFD29-AE33-4FCF-848B-DE0D51CB696F";
paths = (
{
closed = 1;
nodes = (
"83 289 OFFCURVE",
"85 241 OFFCURVE",
"85 188 CURVE SMOOTH",
"85 136 OFFCURVE",
"84 91 OFFCURVE",
"81 55 CURVE",
"64 41 OFFCURVE",
"42 31 OFFCURVE",
"20 25 CURVE",
"22 -6 LINE",
"56 -3 OFFCURVE",
"95 -1 OFFCURVE",
"119 -1 CURVE SMOOTH",
"146 -1 OFFCURVE",
"198 -2 OFFCURVE",
"238 -6 CURVE",
"240 27 LINE",
"215 35 OFFCURVE",
"195 44 OFFCURVE",
"178 60 CURVE",
"174 107 OFFCURVE",
"174 169 OFFCURVE",
"174 231 CURVE SMOOTH",
"174 314 OFFCURVE",
"175 377 OFFCURVE",
"180 432 CURVE",
"159 439 LINE",
"123 416 OFFCURVE",
"54 390 OFFCURVE",
"17 382 CURVE",
"16 357 LINE",
"35 352 OFFCURVE",
"62 340 OFFCURVE",
"78 323 CURVE"
);
},
{
closed = 1;
nodes = (
"73 499 LINE",
"150 520 OFFCURVE",
"195 567 OFFCURVE",
"214 626 CURVE",
"161 662 LINE",
"131 658 LINE",
"124 615 OFFCURVE",
"94 568 OFFCURVE",
"49 534 CURVE"
);
}
);
width = 259;
}
);
leftKerningGroup = dotlessi;
note = iacute;
unicode = 00ED;
},
{
glyphname = icircumflex;
layers = (
{
layerId = "DA0EFD29-AE33-4FCF-848B-DE0D51CB696F";
paths = (
{
closed = 1;
nodes = (
"83 289 OFFCURVE",
"85 241 OFFCURVE",
"85 188 CURVE SMOOTH",
"85 136 OFFCURVE",
"84 91 OFFCURVE",
"81 55 CURVE",
"64 41 OFFCURVE",
"42 31 OFFCURVE",
"20 25 CURVE",
"22 -6 LINE",
"56 -3 OFFCURVE",
"95 -1 OFFCURVE",
"119 -1 CURVE SMOOTH",
"146 -1 OFFCURVE",
"198 -2 OFFCURVE",
"238 -6 CURVE",
"240 27 LINE",
"215 35 OFFCURVE",
"195 44 OFFCURVE",
"178 60 CURVE",
"174 107 OFFCURVE",
"174 169 OFFCURVE",
"174 231 CURVE SMOOTH",
"174 314 OFFCURVE",
"175 377 OFFCURVE",
"180 432 CURVE",
"159 439 LINE",
"123 416 OFFCURVE",
"54 390 OFFCURVE",
"17 382 CURVE",
"16 357 LINE",
"35 352 OFFCURVE",
"62 340 OFFCURVE",
"78 323 CURVE"
);
},
{
closed = 1;
nodes = (
"110 636 LINE",
"13 537 LINE",
"33 514 LINE",
"120 554 LINE",
"203 515 LINE",
"233 537 LINE",
"157 636 LINE"
);
}
);
width = 259;
}
);
leftKerningGroup = dotlessi;
note = icircumflex;
unicode = 00EE;
},
{
glyphname = idieresis;
layers = (
{
layerId = "DA0EFD29-AE33-4FCF-848B-DE0D51CB696F";
paths = (
{
closed = 1;
nodes = (
"83 289 OFFCURVE",
"85 241 OFFCURVE",
"85 188 CURVE SMOOTH",
"85 136 OFFCURVE",
"84 91 OFFCURVE",
"81 55 CURVE",
"64 41 OFFCURVE",
"42 31 OFFCURVE",
"20 25 CURVE",
"22 -6 LINE",
"56 -3 OFFCURVE",
"95 -1 OFFCURVE",
"119 -1 CURVE SMOOTH",
"146 -1 OFFCURVE",
"198 -2 OFFCURVE",
"238 -6 CURVE",
"240 27 LINE",
"215 35 OFFCURVE",
"195 44 OFFCURVE",
"178 60 CURVE",
"174 107 OFFCURVE",
"174 169 OFFCURVE",
"174 231 CURVE SMOOTH",
"174 314 OFFCURVE",
"175 377 OFFCURVE",
"180 432 CURVE",
"159 439 LINE",
"123 416 OFFCURVE",
"54 390 OFFCURVE",
"17 382 CURVE",
"16 357 LINE",
"35 352 OFFCURVE",
"62 340 OFFCURVE",
"78 323 CURVE"
);
},
{
closed = 1;
nodes = (
"-34 563 OFFCURVE",
"-11 536 OFFCURVE",
"23 536 CURVE SMOOTH",
"58 536 OFFCURVE",
"89 567 OFFCURVE",
"89 607 CURVE SMOOTH",
"89 639 OFFCURVE",
"65 666 OFFCURVE",
"31 666 CURVE SMOOTH",
"-3 666 OFFCURVE",
"-34 635 OFFCURVE",
"-34 596 CURVE SMOOTH"
);
},
{
closed = 1;
nodes = (
"162 563 OFFCURVE",
"185 536 OFFCURVE",
"220 536 CURVE SMOOTH",
"254 536 OFFCURVE",
"286 567 OFFCURVE",
"286 607 CURVE SMOOTH",
"286 639 OFFCURVE",
"262 666 OFFCURVE",
"227 666 CURVE SMOOTH",
"193 666 OFFCURVE",
"162 635 OFFCURVE",
"162 596 CURVE SMOOTH"
);
}
);
width = 259;
}
);
leftKerningGroup = dotlessi;
note = idieresis;
unicode = 00EF;
},
{
glyphname = igrave;
layers = (
{
layerId = "DA0EFD29-AE33-4FCF-848B-DE0D51CB696F";
paths = (
{
closed = 1;
nodes = (
"83 289 OFFCURVE",
"85 241 OFFCURVE",
"85 188 CURVE SMOOTH",
"85 136 OFFCURVE",
"84 91 OFFCURVE",
"81 55 CURVE",
"64 41 OFFCURVE",
"42 31 OFFCURVE",
"20 25 CURVE",
"22 -6 LINE",
"56 -3 OFFCURVE",
"95 -1 OFFCURVE",
"119 -1 CURVE SMOOTH",
"146 -1 OFFCURVE",
"198 -2 OFFCURVE",
"238 -6 CURVE",
"240 27 LINE",
"215 35 OFFCURVE",
"195 44 OFFCURVE",
"178 60 CURVE",
"174 107 OFFCURVE",
"174 169 OFFCURVE",
"174 231 CURVE SMOOTH",
"174 314 OFFCURVE",
"175 377 OFFCURVE",
"180 432 CURVE",
"159 439 LINE",
"123 416 OFFCURVE",
"54 390 OFFCURVE",
"17 382 CURVE",
"16 357 LINE",
"35 352 OFFCURVE",
"62 340 OFFCURVE",
"78 323 CURVE"
);
},
{
closed = 1;
nodes = (
"188 534 LINE",
"143 568 OFFCURVE",
"113 615 OFFCURVE",
"106 658 CURVE",
"76 662 LINE",
"23 626 LINE",
"42 567 OFFCURVE",
"87 520 OFFCURVE",
"164 499 CURVE"
);
}
);
width = 259;
}
);
leftKerningGroup = dotlessi;
note = igrave;
unicode = 00EC;
},
{
glyphname = j;
layers = (
{
layerId = "DA0EFD29-AE33-4FCF-848B-DE0D51CB696F";
paths = (
{
closed = 1;
nodes = (
"177 73 OFFCURVE",
"174 136 OFFCURVE",
"174 206 CURVE SMOOTH",
"174 292 OFFCURVE",
"175 377 OFFCURVE",
"180 432 CURVE",
"159 439 LINE",
"123 420 OFFCURVE",
"55 402 OFFCURVE",
"18 398 CURVE",
"16 371 LINE",
"35 366 OFFCURVE",
"62 354 OFFCURVE",
"78 337 CURVE",
"84 293 OFFCURVE",
"85 194 OFFCURVE",
"85 76 CURVE SMOOTH",
"85 -11 OFFCURVE",
"82 -68 OFFCURVE",
"78 -104 CURVE SMOOTH",
"72 -154 OFFCURVE",
"54 -166 OFFCURVE",
"34 -166 CURVE SMOOTH",
"13 -166 OFFCURVE",
"-10 -148 OFFCURVE",
"-23 -138 CURVE",
"-43 -144 OFFCURVE",
"-71 -172 OFFCURVE",
"-78 -192 CURVE",
"-63 -209 OFFCURVE",
"-44 -218 OFFCURVE",
"-21 -218 CURVE SMOOTH",
"77 -218 OFFCURVE",
"177 -159 OFFCURVE",
"177 7 CURVE SMOOTH"
);
},
{
closed = 1;
nodes = (
"62 600 OFFCURVE",
"86 572 OFFCURVE",
"122 572 CURVE SMOOTH",
"158 572 OFFCURVE",
"191 604 OFFCURVE",
"191 646 CURVE SMOOTH",
"191 680 OFFCURVE",
"166 708 OFFCURVE",
"130 708 CURVE SMOOTH",
"94 708 OFFCURVE",
"62 676 OFFCURVE",
"62 635 CURVE SMOOTH"
);
}
);
width = 259;
}
);
leftKerningGroup = uni0237;
note = j;
rightKerningGroup = uni0237;
unicode = 006A;
},
{
glyphname = uni0237;
layers = (
{
layerId = "DA0EFD29-AE33-4FCF-848B-DE0D51CB696F";
paths = (
{
closed = 1;
nodes = (
"177 73 OFFCURVE",
"174 136 OFFCURVE",
"174 206 CURVE SMOOTH",
"174 292 OFFCURVE",
"175 377 OFFCURVE",
"180 432 CURVE",
"159 439 LINE",
"123 420 OFFCURVE",
"55 402 OFFCURVE",
"18 398 CURVE",
"16 371 LINE",
"35 366 OFFCURVE",
"62 354 OFFCURVE",
"78 337 CURVE",
"84 293 OFFCURVE",
"85 194 OFFCURVE",
"85 76 CURVE SMOOTH",
"85 -11 OFFCURVE",
"82 -68 OFFCURVE",
"78 -104 CURVE SMOOTH",
"72 -154 OFFCURVE",
"54 -166 OFFCURVE",
"34 -166 CURVE SMOOTH",
"13 -166 OFFCURVE",
"-10 -148 OFFCURVE",
"-23 -138 CURVE",
"-43 -144 OFFCURVE",
"-71 -172 OFFCURVE",
"-78 -192 CURVE",
"-63 -209 OFFCURVE",
"-44 -218 OFFCURVE",
"-21 -218 CURVE SMOOTH",
"77 -218 OFFCURVE",
"177 -159 OFFCURVE",
"177 7 CURVE SMOOTH"
);
}
);
width = 259;
}
);
leftKerningGroup = uni0237;
note = uni0237;
rightKerningGroup = uni0237;
unicode = 0237;
},
{
glyphname = k;
layers = (
{
layerId = "DA0EFD29-AE33-4FCF-848B-DE0D51CB696F";
paths = (
{
closed = 1;
nodes = (
"467 428 LINE",
"438 425 OFFCURVE",
"400 423 OFFCURVE",
"373 423 CURVE SMOOTH",
"349 423 OFFCURVE",
"313 424 OFFCURVE",
"282 428 CURVE",
"274 400 LINE",
"287 392 OFFCURVE",
"300 384 OFFCURVE",
"310 372 CURVE",
"274 326 OFFCURVE",
"218 274 OFFCURVE",
"168 243 CURVE",
"168 285 LINE SMOOTH",
"168 468 OFFCURVE",
"178 661 OFFCURVE",
"192 750 CURVE",
"165 756 LINE",
"125 728 OFFCURVE",
"57 707 OFFCURVE",
"17 700 CURVE",
"15 673 LINE",
"34 668 OFFCURVE",
"62 657 OFFCURVE",
"78 640 CURVE",
"84 575 OFFCURVE",
"85 486 OFFCURVE",
"85 392 CURVE SMOOTH",
"85 263 OFFCURVE",
"80 131 OFFCURVE",
"69 58 CURVE",
"53 44 OFFCURVE",
"33 33 OFFCURVE",
"13 27 CURVE",
"15 -4 LINE",
"49 -1 OFFCURVE",
"88 1 OFFCURVE",
"112 1 CURVE SMOOTH",
"139 1 OFFCURVE",
"179 0 OFFCURVE",
"219 -4 CURVE",
"221 29 LINE",
"199 36 OFFCURVE",
"185 44 OFFCURVE",
"171 57 CURVE",
"169 106 OFFCURVE",
"168 164 OFFCURVE",
"168 220 CURVE",
"239 165 OFFCURVE",
"297 86 OFFCURVE",
"356 -5 CURVE",
"384 -2 OFFCURVE",
"406 0 OFFCURVE",
"435 0 CURVE SMOOTH",
"456 0 OFFCURVE",
"480 -1 OFFCURVE",
"501 -3 CURVE",
"505 29 LINE",
"450 56 LINE",
"398 119 OFFCURVE",
"310 214 OFFCURVE",
"260 259 CURVE",
"389 369 LINE",
"417 379 OFFCURVE",
"446 387 OFFCURVE",
"470 391 CURVE"
);
}
);
width = 526;
}
);
leftKerningGroup = k;
note = k;
rightKerningGroup = k;
unicode = 006B;
},
{
glyphname = l;
layers = (
{
layerId = "DA0EFD29-AE33-4FCF-848B-DE0D51CB696F";
paths = (
{
closed = 1;
nodes = (
"14 -3 LINE",
"48 0 OFFCURVE",
"97 2 OFFCURVE",
"121 2 CURVE SMOOTH",
"148 2 OFFCURVE",
"202 1 OFFCURVE",
"242 -3 CURVE",
"244 30 LINE",
"221 37 OFFCURVE",
"200 46 OFFCURVE",
"182 60 CURVE",
"174 135 OFFCURVE",
"170 252 OFFCURVE",
"170 367 CURVE SMOOTH",
"170 504 OFFCURVE",
"173 661 OFFCURVE",
"186 750 CURVE",
"159 756 LINE",
"119 728 OFFCURVE",
"51 707 OFFCURVE",
"11 700 CURVE",
"9 673 LINE",
"28 668 OFFCURVE",
"55 657 OFFCURVE",
"71 640 CURVE",
"77 575 OFFCURVE",
"83 471 OFFCURVE",
"83 355 CURVE SMOOTH",
"83 248 OFFCURVE",
"81 135 OFFCURVE",
"73 65 CURVE",
"57 48 OFFCURVE",
"34 35 OFFCURVE",
"12 28 CURVE"
);
}
);
width = 263;
}
);
leftKerningGroup = l;
note = l;
rightKerningGroup = l;
unicode = 006C;
},
{
glyphname = m;
layers = (
{
layerId = "DA0EFD29-AE33-4FCF-848B-DE0D51CB696F";
paths = (
{
closed = 1;
nodes = (
"292 347 OFFCURVE",
"315 335 OFFCURVE",
"326 303 CURVE SMOOTH",
"334 280 OFFCURVE",
"333 247 OFFCURVE",
"333 202 CURVE SMOOTH",
"333 149 OFFCURVE",
"332 95 OFFCURVE",
"329 56 CURVE",
"314 43 OFFCURVE",
"294 34 OFFCURVE",
"273 28 CURVE",
"275 -3 LINE",
"309 0 OFFCURVE",
"352 2 OFFCURVE",
"376 2 CURVE SMOOTH",
"403 2 OFFCURVE",
"443 1 OFFCURVE",
"483 -3 CURVE",
"485 30 LINE",
"459 38 OFFCURVE",
"441 48 OFFCURVE",
"424 65 CURVE",
"422 107 OFFCURVE",
"422 152 OFFCURVE",
"422 200 CURVE SMOOTH",
"422 228 OFFCURVE",
"422 271 OFFCURVE",
"417 307 CURVE",
"445 330 OFFCURVE",
"484 347 OFFCURVE",
"512 347 CURVE SMOOTH",
"549 347 OFFCURVE",
"573 331 OFFCURVE",
"584 297 CURVE SMOOTH",
"592 274 OFFCURVE",
"592 242 OFFCURVE",
"592 202 CURVE SMOOTH",
"592 152 OFFCURVE",
"590 101 OFFCURVE",
"588 63 CURVE",
"572 46 OFFCURVE",
"549 35 OFFCURVE",
"525 28 CURVE",
"527 -3 LINE",
"561 0 OFFCURVE",
"604 2 OFFCURVE",
"628 2 CURVE SMOOTH",
"655 2 OFFCURVE",
"695 1 OFFCURVE",
"735 -3 CURVE",
"737 30 LINE",
"712 38 OFFCURVE",
"694 47 OFFCURVE",
"678 63 CURVE",
"679 106 OFFCURVE",
"681 151 OFFCURVE",
"681 200 CURVE SMOOTH",
"681 236 OFFCURVE",
"679 277 OFFCURVE",
"675 304 CURVE SMOOTH",
"664 372 OFFCURVE",
"626 420 OFFCURVE",
"554 420 CURVE SMOOTH",
"507 420 OFFCURVE",
"455 392 OFFCURVE",
"407 356 CURVE",
"392 395 OFFCURVE",
"363 426 OFFCURVE",
"314 426 CURVE SMOOTH",
"271 426 OFFCURVE",
"221 401 OFFCURVE",
"171 366 CURVE",
"152 436 LINE",
"133 439 LINE",
"106 422 OFFCURVE",
"56 405 OFFCURVE",
"19 397 CURVE",
"17 370 LINE",
"36 365 OFFCURVE",
"62 354 OFFCURVE",
"78 337 CURVE",
"82 304 OFFCURVE",
"85 255 OFFCURVE",
"85 202 CURVE SMOOTH",
"85 152 OFFCURVE",
"84 99 OFFCURVE",
"81 61 CURVE",
"65 45 OFFCURVE",
"43 35 OFFCURVE",
"20 28 CURVE",
"22 -3 LINE",
"56 0 OFFCURVE",
"95 2 OFFCURVE",
"119 2 CURVE SMOOTH",
"146 2 OFFCURVE",
"186 1 OFFCURVE",
"226 -3 CURVE",
"228 30 LINE",
"204 37 OFFCURVE",
"191 46 OFFCURVE",
"176 60 CURVE",
"174 104 OFFCURVE",
"174 150 OFFCURVE",
"174 200 CURVE SMOOTH",
"174 242 OFFCURVE",
"174 280 OFFCURVE",
"176 311 CURVE",
"201 332 OFFCURVE",
"235 347 OFFCURVE",
"262 347 CURVE SMOOTH"
);
}
);
width = 756;
}
);
leftKerningGroup = n;
note = m;
rightKerningGroup = n;
unicode = 006D;
},
{
glyphname = n;
layers = (
{
layerId = "DA0EFD29-AE33-4FCF-848B-DE0D51CB696F";
paths = (
{
closed = 1;
nodes = (
"320 358 OFFCURVE",
"350 338 OFFCURVE",
"359 291 CURVE SMOOTH",
"364 266 OFFCURVE",
"364 234 OFFCURVE",
"364 194 CURVE SMOOTH",
"364 151 OFFCURVE",
"362 100 OFFCURVE",
"360 63 CURVE",
"344 46 OFFCURVE",
"321 35 OFFCURVE",
"297 28 CURVE",
"299 -3 LINE",
"333 0 OFFCURVE",
"376 2 OFFCURVE",
"400 2 CURVE SMOOTH",
"427 2 OFFCURVE",
"467 1 OFFCURVE",
"507 -3 CURVE",
"509 30 LINE",
"484 38 OFFCURVE",
"466 47 OFFCURVE",
"450 63 CURVE",
"451 106 OFFCURVE",
"453 151 OFFCURVE",
"453 200 CURVE SMOOTH",
"453 245 OFFCURVE",
"452 291 OFFCURVE",
"445 329 CURVE SMOOTH",
"434 389 OFFCURVE",
"392 434 OFFCURVE",
"315 434 CURVE SMOOTH",
"268 434 OFFCURVE",
"214 408 OFFCURVE",
"166 373 CURVE",
"142 436 LINE",
"123 439 LINE",
"96 422 OFFCURVE",
"56 405 OFFCURVE",
"19 397 CURVE",
"17 370 LINE",
"36 365 OFFCURVE",
"62 354 OFFCURVE",
"78 337 CURVE",
"82 304 OFFCURVE",
"85 255 OFFCURVE",
"85 202 CURVE SMOOTH",
"85 152 OFFCURVE",
"84 99 OFFCURVE",
"81 61 CURVE",
"65 45 OFFCURVE",
"43 35 OFFCURVE",
"20 28 CURVE",
"22 -3 LINE",
"56 0 OFFCURVE",
"95 2 OFFCURVE",
"119 2 CURVE SMOOTH",
"146 2 OFFCURVE",
"186 1 OFFCURVE",
"226 -3 CURVE",
"228 30 LINE",
"204 37 OFFCURVE",
"187 46 OFFCURVE",
"171 61 CURVE",
"169 104 OFFCURVE",
"169 150 OFFCURVE",
"169 200 CURVE SMOOTH",
"169 246 OFFCURVE",
"169 287 OFFCURVE",
"171 319 CURVE",
"198 340 OFFCURVE",
"239 358 OFFCURVE",
"276 358 CURVE SMOOTH"
);
}
);
width = 528;
}
);
leftKerningGroup = n;
note = n;
rightKerningGroup = n;
unicode = 006E;
},
{
glyphname = ntilde;
layers = (
{
layerId = "DA0EFD29-AE33-4FCF-848B-DE0D51CB696F";
paths = (
{
closed = 1;
nodes = (
"320 358 OFFCURVE",
"350 338 OFFCURVE",
"359 291 CURVE SMOOTH",
"364 266 OFFCURVE",
"364 234 OFFCURVE",
"364 194 CURVE SMOOTH",
"364 151 OFFCURVE",
"362 100 OFFCURVE",
"360 63 CURVE",
"344 46 OFFCURVE",
"321 35 OFFCURVE",
"297 28 CURVE",
"299 -3 LINE",
"333 0 OFFCURVE",
"376 2 OFFCURVE",
"400 2 CURVE SMOOTH",
"427 2 OFFCURVE",
"467 1 OFFCURVE",
"507 -3 CURVE",
"509 30 LINE",
"484 38 OFFCURVE",
"466 47 OFFCURVE",
"450 63 CURVE",
"451 106 OFFCURVE",
"453 151 OFFCURVE",
"453 200 CURVE SMOOTH",
"453 245 OFFCURVE",
"452 291 OFFCURVE",
"445 329 CURVE SMOOTH",
"434 389 OFFCURVE",
"392 434 OFFCURVE",
"315 434 CURVE SMOOTH",
"268 434 OFFCURVE",
"214 408 OFFCURVE",
"166 373 CURVE",
"142 436 LINE",
"123 439 LINE",
"96 422 OFFCURVE",
"56 405 OFFCURVE",
"19 397 CURVE",
"17 370 LINE",
"36 365 OFFCURVE",
"62 354 OFFCURVE",
"78 337 CURVE",
"82 304 OFFCURVE",
"85 255 OFFCURVE",
"85 202 CURVE SMOOTH",
"85 152 OFFCURVE",
"84 99 OFFCURVE",
"81 61 CURVE",
"65 45 OFFCURVE",
"43 35 OFFCURVE",
"20 28 CURVE",
"22 -3 LINE",
"56 0 OFFCURVE",
"95 2 OFFCURVE",
"119 2 CURVE SMOOTH",
"146 2 OFFCURVE",
"186 1 OFFCURVE",
"226 -3 CURVE",
"228 30 LINE",
"204 37 OFFCURVE",
"187 46 OFFCURVE",
"171 61 CURVE",
"169 104 OFFCURVE",
"169 150 OFFCURVE",
"169 200 CURVE SMOOTH",
"169 246 OFFCURVE",
"169 287 OFFCURVE",
"171 319 CURVE",
"198 340 OFFCURVE",
"239 358 OFFCURVE",
"276 358 CURVE SMOOTH"
);
},
{
closed = 1;
nodes = (
"120 544 LINE",
"138 557 OFFCURVE",
"164 574 OFFCURVE",
"189 574 CURVE SMOOTH",
"238 574 OFFCURVE",
"253 531 OFFCURVE",
"317 531 CURVE SMOOTH",
"361 531 OFFCURVE",
"392 562 OFFCURVE",
"421 600 CURVE",
"406 621 LINE",
"384 606 OFFCURVE",
"361 595 OFFCURVE",
"329 595 CURVE SMOOTH",
"281 595 OFFCURVE",
"267 637 OFFCURVE",
"211 637 CURVE SMOOTH",
"166 637 OFFCURVE",
"118 589 OFFCURVE",
"101 565 CURVE"
);
}
);
width = 528;
}
);
leftKerningGroup = n;
note = ntilde;
rightKerningGroup = n;
unicode = 00F1;
},
{
glyphname = o;
layers = (
{
layerId = "DA0EFD29-AE33-4FCF-848B-DE0D51CB696F";
paths = (
{
closed = 1;
nodes = (
"40 90 OFFCURVE",
"125 -19 OFFCURVE",
"265 -19 CURVE SMOOTH",
"398 -19 OFFCURVE",
"501 69 OFFCURVE",
"501 209 CURVE SMOOTH",
"501 338 OFFCURVE",
"395 438 OFFCURVE",
"273 438 CURVE SMOOTH",
"149 438 OFFCURVE",
"40 330 OFFCURVE",
"40 208 CURVE SMOOTH"
);
},
{
closed = 1;
nodes = (
"339 388 OFFCURVE",
"395 288 OFFCURVE",
"395 196 CURVE SMOOTH",
"395 105 OFFCURVE",
"359 33 OFFCURVE",
"279 33 CURVE SMOOTH",
"193 33 OFFCURVE",
"145 122 OFFCURVE",
"145 215 CURVE SMOOTH",
"145 304 OFFCURVE",
"178 388 OFFCURVE",
"263 388 CURVE SMOOTH"
);
}
);
width = 541;
}
);
leftKerningGroup = o;
note = o;
rightKerningGroup = o;
unicode = 006F;
},
{
glyphname = oacute;
layers = (
{
layerId = "DA0EFD29-AE33-4FCF-848B-DE0D51CB696F";
paths = (
{
closed = 1;
nodes = (
"40 90 OFFCURVE",
"125 -19 OFFCURVE",
"265 -19 CURVE SMOOTH",
"398 -19 OFFCURVE",
"501 69 OFFCURVE",
"501 209 CURVE SMOOTH",
"501 338 OFFCURVE",
"395 438 OFFCURVE",
"273 438 CURVE SMOOTH",
"149 438 OFFCURVE",
"40 330 OFFCURVE",
"40 208 CURVE SMOOTH"
);
},
{
closed = 1;
nodes = (
"339 388 OFFCURVE",
"395 288 OFFCURVE",
"395 196 CURVE SMOOTH",
"395 105 OFFCURVE",
"359 33 OFFCURVE",
"279 33 CURVE SMOOTH",
"193 33 OFFCURVE",
"145 122 OFFCURVE",
"145 215 CURVE SMOOTH",
"145 304 OFFCURVE",
"178 388 OFFCURVE",
"263 388 CURVE SMOOTH"
);
},
{
closed = 1;
nodes = (
"214 499 LINE",
"291 520 OFFCURVE",
"336 567 OFFCURVE",
"355 626 CURVE",
"302 662 LINE",
"272 658 LINE",
"265 615 OFFCURVE",
"235 568 OFFCURVE",
"190 534 CURVE"
);
}
);
width = 541;
}
);
leftKerningGroup = o;
note = oacute;
rightKerningGroup = o;
unicode = 00F3;
},
{
glyphname = ocircumflex;
layers = (
{
layerId = "DA0EFD29-AE33-4FCF-848B-DE0D51CB696F";
paths = (
{
closed = 1;
nodes = (
"40 90 OFFCURVE",
"125 -19 OFFCURVE",
"265 -19 CURVE SMOOTH",
"398 -19 OFFCURVE",
"501 69 OFFCURVE",
"501 209 CURVE SMOOTH",
"501 338 OFFCURVE",
"395 438 OFFCURVE",
"273 438 CURVE SMOOTH",
"149 438 OFFCURVE",
"40 330 OFFCURVE",
"40 208 CURVE SMOOTH"
);
},
{
closed = 1;
nodes = (
"339 388 OFFCURVE",
"395 288 OFFCURVE",
"395 196 CURVE SMOOTH",
"395 105 OFFCURVE",
"359 33 OFFCURVE",
"279 33 CURVE SMOOTH",
"193 33 OFFCURVE",
"145 122 OFFCURVE",
"145 215 CURVE SMOOTH",
"145 304 OFFCURVE",
"178 388 OFFCURVE",
"263 388 CURVE SMOOTH"
);
},
{
closed = 1;
nodes = (
"251 636 LINE",
"154 537 LINE",
"174 514 LINE",
"261 554 LINE",
"344 515 LINE",
"374 537 LINE",
"298 636 LINE"
);
}
);
width = 541;
}
);
leftKerningGroup = o;
note = ocircumflex;
rightKerningGroup = o;
unicode = 00F4;
},
{
glyphname = odieresis;
layers = (
{
layerId = "DA0EFD29-AE33-4FCF-848B-DE0D51CB696F";
paths = (
{
closed = 1;
nodes = (
"40 90 OFFCURVE",
"125 -19 OFFCURVE",
"265 -19 CURVE SMOOTH",
"398 -19 OFFCURVE",
"501 69 OFFCURVE",
"501 209 CURVE SMOOTH",
"501 338 OFFCURVE",
"395 438 OFFCURVE",
"273 438 CURVE SMOOTH",
"149 438 OFFCURVE",
"40 330 OFFCURVE",
"40 208 CURVE SMOOTH"
);
},
{
closed = 1;
nodes = (
"339 388 OFFCURVE",
"395 288 OFFCURVE",
"395 196 CURVE SMOOTH",
"395 105 OFFCURVE",
"359 33 OFFCURVE",
"279 33 CURVE SMOOTH",
"193 33 OFFCURVE",
"145 122 OFFCURVE",
"145 215 CURVE SMOOTH",
"145 304 OFFCURVE",
"178 388 OFFCURVE",
"263 388 CURVE SMOOTH"
);
},
{
closed = 1;
nodes = (
"107 563 OFFCURVE",
"130 536 OFFCURVE",
"164 536 CURVE SMOOTH",
"199 536 OFFCURVE",
"230 567 OFFCURVE",
"230 607 CURVE SMOOTH",
"230 639 OFFCURVE",
"206 666 OFFCURVE",
"172 666 CURVE SMOOTH",
"138 666 OFFCURVE",
"107 635 OFFCURVE",
"107 596 CURVE SMOOTH"
);
},
{
closed = 1;
nodes = (
"303 563 OFFCURVE",
"326 536 OFFCURVE",
"361 536 CURVE SMOOTH",
"395 536 OFFCURVE",
"427 567 OFFCURVE",
"427 607 CURVE SMOOTH",
"427 639 OFFCURVE",
"403 666 OFFCURVE",
"368 666 CURVE SMOOTH",
"334 666 OFFCURVE",
"303 635 OFFCURVE",
"303 596 CURVE SMOOTH"
);
}
);
width = 541;
}
);
leftKerningGroup = o;
note = odieresis;
rightKerningGroup = o;
unicode = 00F6;
},
{
glyphname = ograve;
layers = (
{
layerId = "DA0EFD29-AE33-4FCF-848B-DE0D51CB696F";
paths = (
{
closed = 1;
nodes = (
"40 90 OFFCURVE",
"125 -19 OFFCURVE",
"265 -19 CURVE SMOOTH",
"398 -19 OFFCURVE",
"501 69 OFFCURVE",
"501 209 CURVE SMOOTH",
"501 338 OFFCURVE",
"395 438 OFFCURVE",
"273 438 CURVE SMOOTH",
"149 438 OFFCURVE",
"40 330 OFFCURVE",
"40 208 CURVE SMOOTH"
);
},
{
closed = 1;
nodes = (
"339 388 OFFCURVE",
"395 288 OFFCURVE",
"395 196 CURVE SMOOTH",
"395 105 OFFCURVE",
"359 33 OFFCURVE",
"279 33 CURVE SMOOTH",
"193 33 OFFCURVE",
"145 122 OFFCURVE",
"145 215 CURVE SMOOTH",
"145 304 OFFCURVE",
"178 388 OFFCURVE",
"263 388 CURVE SMOOTH"
);
},
{
closed = 1;
nodes = (
"329 534 LINE",
"284 568 OFFCURVE",
"254 615 OFFCURVE",
"247 658 CURVE",
"217 662 LINE",
"164 626 LINE",
"183 567 OFFCURVE",
"228 520 OFFCURVE",
"305 499 CURVE"
);
}
);
width = 541;
}
);
leftKerningGroup = o;
note = ograve;
rightKerningGroup = o;
unicode = 00F2;
},
{
glyphname = otilde;
layers = (
{
layerId = "DA0EFD29-AE33-4FCF-848B-DE0D51CB696F";
paths = (
{
closed = 1;
nodes = (
"40 90 OFFCURVE",
"125 -19 OFFCURVE",
"265 -19 CURVE SMOOTH",
"398 -19 OFFCURVE",
"501 69 OFFCURVE",
"501 209 CURVE SMOOTH",
"501 338 OFFCURVE",
"395 438 OFFCURVE",
"273 438 CURVE SMOOTH",
"149 438 OFFCURVE",
"40 330 OFFCURVE",
"40 208 CURVE SMOOTH"
);
},
{
closed = 1;
nodes = (
"339 388 OFFCURVE",
"395 288 OFFCURVE",
"395 196 CURVE SMOOTH",
"395 105 OFFCURVE",
"359 33 OFFCURVE",
"279 33 CURVE SMOOTH",
"193 33 OFFCURVE",
"145 122 OFFCURVE",
"145 215 CURVE SMOOTH",
"145 304 OFFCURVE",
"178 388 OFFCURVE",
"263 388 CURVE SMOOTH"
);
},
{
closed = 1;
nodes = (
"126 544 LINE",
"144 557 OFFCURVE",
"170 574 OFFCURVE",
"195 574 CURVE SMOOTH",
"244 574 OFFCURVE",
"259 531 OFFCURVE",
"323 531 CURVE SMOOTH",
"367 531 OFFCURVE",
"398 562 OFFCURVE",
"427 600 CURVE",
"412 621 LINE",
"390 606 OFFCURVE",
"367 595 OFFCURVE",
"335 595 CURVE SMOOTH",
"287 595 OFFCURVE",
"273 637 OFFCURVE",
"217 637 CURVE SMOOTH",
"172 637 OFFCURVE",
"124 589 OFFCURVE",
"107 565 CURVE"
);
}
);
width = 541;
}
);
leftKerningGroup = o;
note = otilde;
rightKerningGroup = o;
unicode = 00F5;
},
{
glyphname = p;
layers = (
{
layerId = "DA0EFD29-AE33-4FCF-848B-DE0D51CB696F";
paths = (
{
closed = 1;
nodes = (
"39 -220 LINE",
"105 -202 OFFCURVE",
"188 -191 OFFCURVE",
"269 -187 CURVE",
"267 -147 LINE",
"227 -149 OFFCURVE",
"194 -142 OFFCURVE",
"171 -127 CURVE",
"170 -82 OFFCURVE",
"169 -35 OFFCURVE",
"169 12 CURVE",
"197 -5 OFFCURVE",
"232 -19 OFFCURVE",
"279 -19 CURVE SMOOTH",
"377 -19 OFFCURVE",
"494 81 OFFCURVE",
"494 244 CURVE SMOOTH",
"494 369 OFFCURVE",
"400 440 OFFCURVE",
"325 440 CURVE SMOOTH",
"271 440 OFFCURVE",
"217 410 OFFCURVE",
"167 371 CURVE",
"142 436 LINE",
"123 439 LINE",
"96 422 OFFCURVE",
"56 405 OFFCURVE",
"19 397 CURVE",
"17 370 LINE",
"36 366 OFFCURVE",
"63 354 OFFCURVE",
"75 337 CURVE",
"79 281 OFFCURVE",
"82 198 OFFCURVE",
"82 109 CURVE SMOOTH",
"82 17 OFFCURVE",
"81 -80 OFFCURVE",
"78 -146 CURVE",
"67 -164 OFFCURVE",
"51 -179 OFFCURVE",
"30 -191 CURVE"
);
},
{
closed = 1;
nodes = (
"202 342 OFFCURVE",
"237 360 OFFCURVE",
"275 360 CURVE SMOOTH",
"351 360 OFFCURVE",
"405 295 OFFCURVE",
"405 196 CURVE SMOOTH",
"405 83 OFFCURVE",
"344 32 OFFCURVE",
"281 32 CURVE SMOOTH",
"238 32 OFFCURVE",
"192 50 OFFCURVE",
"169 109 CURVE",
"169 189 OFFCURVE",
"170 258 OFFCURVE",
"171 313 CURVE"
);
}
);
width = 539;
}
);
leftKerningGroup = p;
note = p;
rightKerningGroup = p;
unicode = 0070;
},
{
glyphname = q;
layers = (
{
layerId = "DA0EFD29-AE33-4FCF-848B-DE0D51CB696F";
paths = (
{
closed = 1;
nodes = (
"253 -220 LINE",
"287 -217 OFFCURVE",
"345 -213 OFFCURVE",
"383 -213 CURVE SMOOTH",
"425 -213 OFFCURVE",
"481 -216 OFFCURVE",
"521 -220 CURVE",
"523 -187 LINE",
"500 -179 OFFCURVE",
"479 -171 OFFCURVE",
"461 -157 CURVE",
"454 -90 OFFCURVE",
"451 6 OFFCURVE",
"451 99 CURVE SMOOTH",
"451 220 OFFCURVE",
"452 355 OFFCURVE",
"461 433 CURVE",
"440 439 LINE",
"422 424 OFFCURVE",
"405 412 OFFCURVE",
"388 404 CURVE",
"346 429 OFFCURVE",
"316 438 OFFCURVE",
"262 438 CURVE SMOOTH",
"120 438 OFFCURVE",
"40 302 OFFCURVE",
"40 200 CURVE SMOOTH",
"40 80 OFFCURVE",
"109 -16 OFFCURVE",
"219 -16 CURVE SMOOTH",
"266 -16 OFFCURVE",
"317 6 OFFCURVE",
"362 41 CURVE",
"361 -27 OFFCURVE",
"360 -96 OFFCURVE",
"355 -147 CURVE",
"331 -166 OFFCURVE",
"283 -182 OFFCURVE",
"251 -189 CURVE"
);
},
{
closed = 1;
nodes = (
"189 65 OFFCURVE",
"134 127 OFFCURVE",
"134 227 CURVE SMOOTH",
"134 314 OFFCURVE",
"179 388 OFFCURVE",
"259 388 CURVE SMOOTH",
"298 388 OFFCURVE",
"331 366 OFFCURVE",
"355 334 CURVE",
"360 275 OFFCURVE",
"362 184 OFFCURVE",
"362 98 CURVE",
"336 78 OFFCURVE",
"304 65 OFFCURVE",
"268 65 CURVE SMOOTH"
);
}
);
width = 536;
}
);
leftKerningGroup = d;
note = q;
unicode = 0071;
},
{
glyphname = r;
layers = (
{
layerId = "DA0EFD29-AE33-4FCF-848B-DE0D51CB696F";
paths = (
{
closed = 1;
nodes = (
"246 432 OFFCURVE",
"209 411 OFFCURVE",
"169 347 CURVE",
"152 436 LINE",
"133 439 LINE",
"106 420 OFFCURVE",
"56 403 OFFCURVE",
"19 397 CURVE",
"17 370 LINE",
"36 365 OFFCURVE",
"62 354 OFFCURVE",
"78 337 CURVE",
"82 304 OFFCURVE",
"85 255 OFFCURVE",
"85 202 CURVE SMOOTH",
"85 152 OFFCURVE",
"84 100 OFFCURVE",
"81 62 CURVE",
"65 46 OFFCURVE",
"43 36 OFFCURVE",
"20 29 CURVE",
"22 -2 LINE",
"56 1 OFFCURVE",
"100 3 OFFCURVE",
"124 3 CURVE SMOOTH",
"179 3 OFFCURVE",
"225 1 OFFCURVE",
"280 -5 CURVE",
"282 30 LINE",
"240 37 OFFCURVE",
"200 48 OFFCURVE",
"171 65 CURVE",
"169 107 OFFCURVE",
"169 152 OFFCURVE",
"169 200 CURVE SMOOTH",
"169 231 OFFCURVE",
"169 260 OFFCURVE",
"170 285 CURVE",
"199 332 OFFCURVE",
"222 348 OFFCURVE",
"245 348 CURVE SMOOTH",
"251 348 OFFCURVE",
"259 347 OFFCURVE",
"265 344 CURVE",
"297 292 LINE",
"332 304 LINE",
"340 384 LINE",
"323 416 OFFCURVE",
"303 432 OFFCURVE",
"277 432 CURVE SMOOTH"
);
}
);
width = 375;
}
);
leftKerningGroup = n;
note = r;
rightKerningGroup = r;
unicode = 0072;
},
{
glyphname = s;
layers = (
{
layerId = "DA0EFD29-AE33-4FCF-848B-DE0D51CB696F";
paths = (
{
closed = 1;
nodes = (
"47 113 LINE",
"40 31 LINE",
"79 -3 OFFCURVE",
"126 -19 OFFCURVE",
"189 -19 CURVE SMOOTH",
"269 -19 OFFCURVE",
"354 16 OFFCURVE",
"354 113 CURVE SMOOTH",
"354 272 OFFCURVE",
"127 245 OFFCURVE",
"127 344 CURVE SMOOTH",
"127 371 OFFCURVE",
"151 395 OFFCURVE",
"191 395 CURVE SMOOTH",
"220 395 OFFCURVE",
"243 387 OFFCURVE",
"269 367 CURVE",
"298 316 LINE",
"331 326 LINE",
"330 404 LINE",
"284 430 OFFCURVE",
"243 438 OFFCURVE",
"200 438 CURVE SMOOTH",
"131 438 OFFCURVE",
"47 394 OFFCURVE",
"47 307 CURVE SMOOTH",
"47 157 OFFCURVE",
"272 179 OFFCURVE",
"272 79 CURVE SMOOTH",
"272 44 OFFCURVE",
"247 29 OFFCURVE",
"211 29 CURVE SMOOTH",
"169 29 OFFCURVE",
"136 45 OFFCURVE",
"112 64 CURVE",
"79 117 LINE"
);
}
);
width = 404;
}
);
leftKerningGroup = s;
note = s;
rightKerningGroup = s;
unicode = 0073;
},
{
glyphname = scaron;
layers = (
{
layerId = "DA0EFD29-AE33-4FCF-848B-DE0D51CB696F";
paths = (
{
closed = 1;
nodes = (
"47 113 LINE",
"40 31 LINE",
"79 -3 OFFCURVE",
"126 -19 OFFCURVE",
"189 -19 CURVE SMOOTH",
"269 -19 OFFCURVE",
"354 16 OFFCURVE",
"354 113 CURVE SMOOTH",
"354 272 OFFCURVE",
"127 245 OFFCURVE",
"127 344 CURVE SMOOTH",
"127 371 OFFCURVE",
"151 395 OFFCURVE",
"191 395 CURVE SMOOTH",
"220 395 OFFCURVE",
"243 387 OFFCURVE",
"269 367 CURVE",
"298 316 LINE",
"331 326 LINE",
"330 404 LINE",
"284 430 OFFCURVE",
"243 438 OFFCURVE",
"200 438 CURVE SMOOTH",
"131 438 OFFCURVE",
"47 394 OFFCURVE",
"47 307 CURVE SMOOTH",
"47 157 OFFCURVE",
"272 179 OFFCURVE",
"272 79 CURVE SMOOTH",
"272 44 OFFCURVE",
"247 29 OFFCURVE",
"211 29 CURVE SMOOTH",
"169 29 OFFCURVE",
"136 45 OFFCURVE",
"112 64 CURVE",
"79 117 LINE"
);
},
{
closed = 1;
nodes = (
"224 514 LINE",
"321 613 LINE",
"301 636 LINE",
"214 596 LINE",
"131 635 LINE",
"101 613 LINE",
"177 514 LINE"
);
}
);
width = 404;
}
);
leftKerningGroup = s;
note = scaron;
rightKerningGroup = s;
unicode = 0161;
},
{
glyphname = germandbls;
layers = (
{
layerId = "DA0EFD29-AE33-4FCF-848B-DE0D51CB696F";
paths = (
{
closed = 1;
nodes = (
"24 -6 LINE",
"58 -3 OFFCURVE",
"107 -1 OFFCURVE",
"131 -1 CURVE SMOOTH",
"158 -1 OFFCURVE",
"192 -2 OFFCURVE",
"232 -6 CURVE",
"234 27 LINE",
"214 33 OFFCURVE",
"204 41 OFFCURVE",
"194 51 CURVE",
"184 177 OFFCURVE",
"183 266 OFFCURVE",
"183 374 CURVE SMOOTH",
"183 641 OFFCURVE",
"233 713 OFFCURVE",
"292 713 CURVE SMOOTH",
"347 713 OFFCURVE",
"385 655 OFFCURVE",
"385 610 CURVE SMOOTH",
"385 537 OFFCURVE",
"347 485 OFFCURVE",
"275 429 CURVE",
"275 389 LINE",
"383 313 OFFCURVE",
"435 204 OFFCURVE",
"435 136 CURVE SMOOTH",
"435 92 OFFCURVE",
"408 44 OFFCURVE",
"368 44 CURVE SMOOTH",
"349 44 OFFCURVE",
"331 59 OFFCURVE",
"311 73 CURVE",
"284 62 OFFCURVE",
"267 45 OFFCURVE",
"256 19 CURVE",
"280 -4 OFFCURVE",
"313 -12 OFFCURVE",
"350 -12 CURVE SMOOTH",
"433 -12 OFFCURVE",
"511 78 OFFCURVE",
"511 201 CURVE SMOOTH",
"511 300 OFFCURVE",
"454 376 OFFCURVE",
"364 446 CURVE",
"433 494 OFFCURVE",
"475 556 OFFCURVE",
"475 619 CURVE SMOOTH",
"475 710 OFFCURVE",
"401 760 OFFCURVE",
"315 760 CURVE SMOOTH",
"181 760 OFFCURVE",
"90 636 OFFCURVE",
"84 419 CURVE",
"33 362 LINE",
"42 345 LINE",
"84 345 LINE",
"84 62 LINE",
"68 45 OFFCURVE",
"45 32 OFFCURVE",
"22 25 CURVE"
);
}
);
width = 561;
}
);
note = germandbls;
unicode = 00DF;
},
{
glyphname = longs;
layers = (
{
layerId = "DA0EFD29-AE33-4FCF-848B-DE0D51CB696F";
paths = (
{
closed = 1;
nodes = (
"15 -4 LINE",
"49 0 OFFCURVE",
"93 3 OFFCURVE",
"131 3 CURVE SMOOTH",
"179 3 OFFCURVE",
"239 0 OFFCURVE",
"279 -4 CURVE",
"283 29 LINE",
"243 37 OFFCURVE",
"209 54 OFFCURVE",
"185 73 CURVE",
"177 188 OFFCURVE",
"175 333 OFFCURVE",
"175 420 CURVE SMOOTH",
"175 530 OFFCURVE",
"179 569 OFFCURVE",
"184 595 CURVE SMOOTH",
"195 659 OFFCURVE",
"227 722 OFFCURVE",
"262 722 CURVE",
"330 666 LINE",
"360 673 OFFCURVE",
"382 697 OFFCURVE",
"392 728 CURVE",
"372 751 OFFCURVE",
"356 759 OFFCURVE",
"309 759 CURVE SMOOTH",
"214 759 OFFCURVE",
"135 689 OFFCURVE",
"102 588 CURVE SMOOTH",
"91 555 OFFCURVE",
"85 503 OFFCURVE",
"83 418 CURVE",
"33 362 LINE",
"42 345 LINE",
"83 345 LINE",
"83 275 OFFCURVE",
"85 176 OFFCURVE",
"89 74 CURVE",
"71 54 OFFCURVE",
"39 36 OFFCURVE",
"13 27 CURVE"
);
}
);
width = 297;
}
);
note = longs;
rightKerningGroup = f;
unicode = 017F;
},
{
glyphname = t;
layers = (
{
layerId = "DA0EFD29-AE33-4FCF-848B-DE0D51CB696F";
paths = (
{
closed = 1;
nodes = (
"141 580 LINE",
"126 516 OFFCURVE",
"106 465 OFFCURVE",
"77 417 CURVE",
"10 368 LINE",
"22 345 LINE",
"87 345 LINE",
"86 244 OFFCURVE",
"81 184 OFFCURVE",
"81 115 CURVE SMOOTH",
"81 8 OFFCURVE",
"126 -15 OFFCURVE",
"173 -15 CURVE SMOOTH",
"213 -15 OFFCURVE",
"250 2 OFFCURVE",
"286 34 CURVE",
"277 70 LINE",
"265 65 OFFCURVE",
"245 61 OFFCURVE",
"223 61 CURVE SMOOTH",
"189 61 OFFCURVE",
"175 89 OFFCURVE",
"175 166 CURVE SMOOTH",
"175 345 LINE",
"285 345 LINE",
"290 356 OFFCURVE",
"292 369 OFFCURVE",
"292 384 CURVE SMOOTH",
"292 399 OFFCURVE",
"289 411 OFFCURVE",
"285 420 CURVE",
"177 420 LINE",
"178 473 OFFCURVE",
"181 524 OFFCURVE",
"185 574 CURVE"
);
}
);
width = 317;
}
);
leftKerningGroup = t;
note = t;
unicode = 0074;
},
{
glyphname = u;
layers = (
{
layerId = "DA0EFD29-AE33-4FCF-848B-DE0D51CB696F";
paths = (
{
closed = 1;
nodes = (
"73 292 OFFCURVE",
"72 260 OFFCURVE",
"72 181 CURVE SMOOTH",
"72 135 OFFCURVE",
"73 95 OFFCURVE",
"83 63 CURVE SMOOTH",
"98 13 OFFCURVE",
"131 -17 OFFCURVE",
"183 -17 CURVE SMOOTH",
"242 -17 OFFCURVE",
"304 18 OFFCURVE",
"356 58 CURVE",
"361 22 OFFCURVE",
"377 -3 OFFCURVE",
"402 -18 CURVE",
"507 18 LINE",
"506 46 LINE",
"485 46 OFFCURVE",
"463 51 OFFCURVE",
"454 67 CURVE SMOOTH",
"441 91 OFFCURVE",
"440 165 OFFCURVE",
"440 218 CURVE SMOOTH",
"440 279 OFFCURVE",
"444 388 OFFCURVE",
"449 426 CURVE",
"421 438 LINE",
"383 416 OFFCURVE",
"339 401 OFFCURVE",
"292 392 CURVE",
"295 364 LINE",
"314 360 OFFCURVE",
"334 356 OFFCURVE",
"350 343 CURVE",
"354 303 OFFCURVE",
"356 278 OFFCURVE",
"356 220 CURVE SMOOTH",
"356 180 OFFCURVE",
"354 145 OFFCURVE",
"354 115 CURVE",
"326 93 OFFCURVE",
"284 69 OFFCURVE",
"226 69 CURVE SMOOTH",
"171 69 OFFCURVE",
"161 111 OFFCURVE",
"161 215 CURVE SMOOTH",
"161 279 OFFCURVE",
"162 367 OFFCURVE",
"169 425 CURVE",
"143 437 LINE",
"105 416 OFFCURVE",
"63 400 OFFCURVE",
"17 391 CURVE",
"20 363 LINE",
"39 359 OFFCURVE",
"59 355 OFFCURVE",
"75 342 CURVE"
);
}
);
width = 532;
}
);
leftKerningGroup = u;
note = u;
rightKerningGroup = u;
unicode = 0075;
},
{
glyphname = uacute;
layers = (
{
layerId = "DA0EFD29-AE33-4FCF-848B-DE0D51CB696F";
paths = (
{
closed = 1;
nodes = (
"73 292 OFFCURVE",
"72 260 OFFCURVE",
"72 181 CURVE SMOOTH",
"72 135 OFFCURVE",
"73 95 OFFCURVE",
"83 63 CURVE SMOOTH",
"98 13 OFFCURVE",
"131 -17 OFFCURVE",
"183 -17 CURVE SMOOTH",
"242 -17 OFFCURVE",
"304 18 OFFCURVE",
"356 58 CURVE",
"361 22 OFFCURVE",
"377 -3 OFFCURVE",
"402 -18 CURVE",
"507 18 LINE",
"506 46 LINE",
"485 46 OFFCURVE",
"463 51 OFFCURVE",
"454 67 CURVE SMOOTH",
"441 91 OFFCURVE",
"440 165 OFFCURVE",
"440 218 CURVE SMOOTH",
"440 279 OFFCURVE",
"444 388 OFFCURVE",
"449 426 CURVE",
"421 438 LINE",
"383 416 OFFCURVE",
"339 401 OFFCURVE",
"292 392 CURVE",
"295 364 LINE",
"314 360 OFFCURVE",
"334 356 OFFCURVE",
"350 343 CURVE",
"354 303 OFFCURVE",
"356 278 OFFCURVE",
"356 220 CURVE SMOOTH",
"356 180 OFFCURVE",
"354 145 OFFCURVE",
"354 115 CURVE",
"326 93 OFFCURVE",
"284 69 OFFCURVE",
"226 69 CURVE SMOOTH",
"171 69 OFFCURVE",
"161 111 OFFCURVE",
"161 215 CURVE SMOOTH",
"161 279 OFFCURVE",
"162 367 OFFCURVE",
"169 425 CURVE",
"143 437 LINE",
"105 416 OFFCURVE",
"63 400 OFFCURVE",
"17 391 CURVE",
"20 363 LINE",
"39 359 OFFCURVE",
"59 355 OFFCURVE",
"75 342 CURVE"
);
},
{
closed = 1;
nodes = (
"196 499 LINE",
"273 520 OFFCURVE",
"318 567 OFFCURVE",
"337 626 CURVE",
"284 662 LINE",
"254 658 LINE",
"247 615 OFFCURVE",
"217 568 OFFCURVE",
"172 534 CURVE"
);
}
);
width = 532;
}
);
leftKerningGroup = u;
note = uacute;
rightKerningGroup = u;
unicode = 00FA;
},
{
glyphname = ucircumflex;
layers = (
{
layerId = "DA0EFD29-AE33-4FCF-848B-DE0D51CB696F";
paths = (
{
closed = 1;
nodes = (
"73 292 OFFCURVE",
"72 260 OFFCURVE",
"72 181 CURVE SMOOTH",
"72 135 OFFCURVE",
"73 95 OFFCURVE",
"83 63 CURVE SMOOTH",
"98 13 OFFCURVE",
"131 -17 OFFCURVE",
"183 -17 CURVE SMOOTH",
"242 -17 OFFCURVE",
"304 18 OFFCURVE",
"356 58 CURVE",
"361 22 OFFCURVE",
"377 -3 OFFCURVE",
"402 -18 CURVE",
"507 18 LINE",
"506 46 LINE",
"485 46 OFFCURVE",
"463 51 OFFCURVE",
"454 67 CURVE SMOOTH",
"441 91 OFFCURVE",
"440 165 OFFCURVE",
"440 218 CURVE SMOOTH",
"440 279 OFFCURVE",
"444 388 OFFCURVE",
"449 426 CURVE",
"421 438 LINE",
"383 416 OFFCURVE",
"339 401 OFFCURVE",
"292 392 CURVE",
"295 364 LINE",
"314 360 OFFCURVE",
"334 356 OFFCURVE",
"350 343 CURVE",
"354 303 OFFCURVE",
"356 278 OFFCURVE",
"356 220 CURVE SMOOTH",
"356 180 OFFCURVE",
"354 145 OFFCURVE",
"354 115 CURVE",
"326 93 OFFCURVE",
"284 69 OFFCURVE",
"226 69 CURVE SMOOTH",
"171 69 OFFCURVE",
"161 111 OFFCURVE",
"161 215 CURVE SMOOTH",
"161 279 OFFCURVE",
"162 367 OFFCURVE",
"169 425 CURVE",
"143 437 LINE",
"105 416 OFFCURVE",
"63 400 OFFCURVE",
"17 391 CURVE",
"20 363 LINE",
"39 359 OFFCURVE",
"59 355 OFFCURVE",
"75 342 CURVE"
);
},
{
closed = 1;
nodes = (
"233 636 LINE",
"136 537 LINE",
"156 514 LINE",
"243 554 LINE",
"326 515 LINE",
"356 537 LINE",
"280 636 LINE"
);
}
);
width = 532;
}
);
leftKerningGroup = u;
note = ucircumflex;
rightKerningGroup = u;
unicode = 00FB;
},
{
glyphname = udieresis;
layers = (
{
layerId = "DA0EFD29-AE33-4FCF-848B-DE0D51CB696F";
paths = (
{
closed = 1;
nodes = (
"73 292 OFFCURVE",
"72 260 OFFCURVE",
"72 181 CURVE SMOOTH",
"72 135 OFFCURVE",
"73 95 OFFCURVE",
"83 63 CURVE SMOOTH",
"98 13 OFFCURVE",
"131 -17 OFFCURVE",
"183 -17 CURVE SMOOTH",
"242 -17 OFFCURVE",
"304 18 OFFCURVE",
"356 58 CURVE",
"361 22 OFFCURVE",
"377 -3 OFFCURVE",
"402 -18 CURVE",
"507 18 LINE",
"506 46 LINE",
"485 46 OFFCURVE",
"463 51 OFFCURVE",
"454 67 CURVE SMOOTH",
"441 91 OFFCURVE",
"440 165 OFFCURVE",
"440 218 CURVE SMOOTH",
"440 279 OFFCURVE",
"444 388 OFFCURVE",
"449 426 CURVE",
"421 438 LINE",
"383 416 OFFCURVE",
"339 401 OFFCURVE",
"292 392 CURVE",
"295 364 LINE",
"314 360 OFFCURVE",
"334 356 OFFCURVE",
"350 343 CURVE",
"354 303 OFFCURVE",
"356 278 OFFCURVE",
"356 220 CURVE SMOOTH",
"356 180 OFFCURVE",
"354 145 OFFCURVE",
"354 115 CURVE",
"326 93 OFFCURVE",
"284 69 OFFCURVE",
"226 69 CURVE SMOOTH",
"171 69 OFFCURVE",
"161 111 OFFCURVE",
"161 215 CURVE SMOOTH",
"161 279 OFFCURVE",
"162 367 OFFCURVE",
"169 425 CURVE",
"143 437 LINE",
"105 416 OFFCURVE",
"63 400 OFFCURVE",
"17 391 CURVE",
"20 363 LINE",
"39 359 OFFCURVE",
"59 355 OFFCURVE",
"75 342 CURVE"
);
},
{
closed = 1;
nodes = (
"89 563 OFFCURVE",
"112 536 OFFCURVE",
"146 536 CURVE SMOOTH",
"181 536 OFFCURVE",
"212 567 OFFCURVE",
"212 607 CURVE SMOOTH",
"212 639 OFFCURVE",
"188 666 OFFCURVE",
"154 666 CURVE SMOOTH",
"120 666 OFFCURVE",
"89 635 OFFCURVE",
"89 596 CURVE SMOOTH"
);
},
{
closed = 1;
nodes = (
"285 563 OFFCURVE",
"308 536 OFFCURVE",
"343 536 CURVE SMOOTH",
"377 536 OFFCURVE",
"409 567 OFFCURVE",
"409 607 CURVE SMOOTH",
"409 639 OFFCURVE",
"385 666 OFFCURVE",
"350 666 CURVE SMOOTH",
"316 666 OFFCURVE",
"285 635 OFFCURVE",
"285 596 CURVE SMOOTH"
);
}
);
width = 532;
}
);
leftKerningGroup = u;
note = udieresis;
rightKerningGroup = u;
unicode = 00FC;
},
{
glyphname = ugrave;
layers = (
{
layerId = "DA0EFD29-AE33-4FCF-848B-DE0D51CB696F";
paths = (
{
closed = 1;
nodes = (
"73 292 OFFCURVE",
"72 260 OFFCURVE",
"72 181 CURVE SMOOTH",
"72 135 OFFCURVE",
"73 95 OFFCURVE",
"83 63 CURVE SMOOTH",
"98 13 OFFCURVE",
"131 -17 OFFCURVE",
"183 -17 CURVE SMOOTH",
"242 -17 OFFCURVE",
"304 18 OFFCURVE",
"356 58 CURVE",
"361 22 OFFCURVE",
"377 -3 OFFCURVE",
"402 -18 CURVE",
"507 18 LINE",
"506 46 LINE",
"485 46 OFFCURVE",
"463 51 OFFCURVE",
"454 67 CURVE SMOOTH",
"441 91 OFFCURVE",
"440 165 OFFCURVE",
"440 218 CURVE SMOOTH",
"440 279 OFFCURVE",
"444 388 OFFCURVE",
"449 426 CURVE",
"421 438 LINE",
"383 416 OFFCURVE",
"339 401 OFFCURVE",
"292 392 CURVE",
"295 364 LINE",
"314 360 OFFCURVE",
"334 356 OFFCURVE",
"350 343 CURVE",
"354 303 OFFCURVE",
"356 278 OFFCURVE",
"356 220 CURVE SMOOTH",
"356 180 OFFCURVE",
"354 145 OFFCURVE",
"354 115 CURVE",
"326 93 OFFCURVE",
"284 69 OFFCURVE",
"226 69 CURVE SMOOTH",
"171 69 OFFCURVE",
"161 111 OFFCURVE",
"161 215 CURVE SMOOTH",
"161 279 OFFCURVE",
"162 367 OFFCURVE",
"169 425 CURVE",
"143 437 LINE",
"105 416 OFFCURVE",
"63 400 OFFCURVE",
"17 391 CURVE",
"20 363 LINE",
"39 359 OFFCURVE",
"59 355 OFFCURVE",
"75 342 CURVE"
);
},
{
closed = 1;
nodes = (
"311 534 LINE",
"266 568 OFFCURVE",
"236 615 OFFCURVE",
"229 658 CURVE",
"199 662 LINE",
"146 626 LINE",
"165 567 OFFCURVE",
"210 520 OFFCURVE",
"287 499 CURVE"
);
}
);
width = 532;
}
);
leftKerningGroup = u;
note = ugrave;
rightKerningGroup = u;
unicode = 00F9;
},
{
glyphname = v;
layers = (
{
layerId = "DA0EFD29-AE33-4FCF-848B-DE0D51CB696F";
paths = (
{
closed = 1;
nodes = (
"319 395 LINE",
"342 390 OFFCURVE",
"358 382 OFFCURVE",
"372 370 CURVE",
"334 299 OFFCURVE",
"298 217 OFFCURVE",
"276 139 CURVE",
"267 88 LINE",
"264 88 LINE",
"254 139 LINE",
"161 373 LINE",
"179 384 OFFCURVE",
"202 394 OFFCURVE",
"222 399 CURVE",
"221 431 LINE",
"197 428 OFFCURVE",
"154 425 OFFCURVE",
"114 425 CURVE SMOOTH",
"74 425 OFFCURVE",
"41 427 OFFCURVE",
"5 430 CURVE",
"0 393 LINE",
"15 390 OFFCURVE",
"29 387 OFFCURVE",
"44 383 CURVE",
"235 -20 LINE",
"275 -18 LINE",
"292 4 LINE",
"304 106 OFFCURVE",
"352 224 OFFCURVE",
"441 377 CURVE",
"454 387 OFFCURVE",
"470 396 OFFCURVE",
"484 400 CURVE",
"483 431 LINE",
"465 428 OFFCURVE",
"433 426 OFFCURVE",
"404 426 CURVE SMOOTH",
"374 426 OFFCURVE",
"349 428 OFFCURVE",
"323 430 CURVE"
);
}
);
width = 509;
}
);
leftKerningGroup = v;
note = v;
rightKerningGroup = v;
unicode = 0076;
},
{
glyphname = w;
layers = (
{
layerId = "DA0EFD29-AE33-4FCF-848B-DE0D51CB696F";
paths = (
{
closed = 1;
nodes = (
"264 393 LINE",
"284 389 OFFCURVE",
"300 385 OFFCURVE",
"315 379 CURVE",
"331 341 LINE",
"304 277 OFFCURVE",
"284 205 OFFCURVE",
"265 139 CURVE",
"258 88 LINE",
"255 88 LINE",
"244 139 LINE",
"150 374 LINE",
"165 385 OFFCURVE",
"182 394 OFFCURVE",
"202 399 CURVE",
"201 431 LINE",
"177 428 OFFCURVE",
"144 425 OFFCURVE",
"104 425 CURVE SMOOTH",
"64 425 OFFCURVE",
"41 427 OFFCURVE",
"5 430 CURVE",
"0 393 LINE",
"12 391 OFFCURVE",
"23 388 OFFCURVE",
"34 385 CURVE",
"225 -20 LINE",
"265 -18 LINE",
"282 4 LINE",
"291 80 OFFCURVE",
"312 167 OFFCURVE",
"359 270 CURVE",
"475 -20 LINE",
"508 -18 LINE",
"525 4 LINE",
"537 105 OFFCURVE",
"580 220 OFFCURVE",
"665 370 CURVE",
"679 383 OFFCURVE",
"700 395 OFFCURVE",
"717 400 CURVE",
"716 431 LINE",
"698 428 OFFCURVE",
"666 426 OFFCURVE",
"637 426 CURVE SMOOTH",
"607 426 OFFCURVE",
"582 428 OFFCURVE",
"556 430 CURVE",
"552 395 LINE",
"572 390 OFFCURVE",
"587 384 OFFCURVE",
"600 374 CURVE",
"567 305 OFFCURVE",
"537 229 OFFCURVE",
"515 150 CURVE",
"507 98 LINE",
"504 98 LINE",
"493 149 LINE",
"414 375 LINE",
"432 385 OFFCURVE",
"454 394 OFFCURVE",
"473 399 CURVE",
"472 431 LINE",
"448 428 OFFCURVE",
"405 425 OFFCURVE",
"365 425 CURVE SMOOTH",
"325 425 OFFCURVE",
"305 427 OFFCURVE",
"269 430 CURVE"
);
}
);
width = 742;
}
);
leftKerningGroup = w;
note = w;
rightKerningGroup = w;
unicode = 0077;
},
{
glyphname = x;
layers = (
{
layerId = "DA0EFD29-AE33-4FCF-848B-DE0D51CB696F";
paths = (
{
closed = 1;
nodes = (
"213 35 LINE",
"187 40 OFFCURVE",
"166 49 OFFCURVE",
"150 63 CURVE",
"235 180 LINE",
"339 49 LINE",
"323 41 OFFCURVE",
"305 34 OFFCURVE",
"289 30 CURVE",
"290 -5 LINE",
"314 -2 OFFCURVE",
"357 1 OFFCURVE",
"397 1 CURVE SMOOTH",
"437 1 OFFCURVE",
"470 -1 OFFCURVE",
"506 -4 CURVE",
"511 36 LINE",
"492 39 OFFCURVE",
"473 43 OFFCURVE",
"455 49 CURVE",
"312 229 LINE",
"443 379 LINE",
"460 389 OFFCURVE",
"478 396 OFFCURVE",
"492 400 CURVE",
"491 431 LINE",
"473 428 OFFCURVE",
"431 426 OFFCURVE",
"402 426 CURVE SMOOTH",
"372 426 OFFCURVE",
"337 428 OFFCURVE",
"311 430 CURVE",
"307 395 LINE",
"334 389 OFFCURVE",
"350 380 OFFCURVE",
"366 364 CURVE",
"368 364 LINE",
"289 257 LINE",
"194 376 LINE",
"211 386 OFFCURVE",
"232 394 OFFCURVE",
"250 399 CURVE",
"249 431 LINE",
"225 428 OFFCURVE",
"182 425 OFFCURVE",
"142 425 CURVE SMOOTH",
"102 425 OFFCURVE",
"69 427 OFFCURVE",
"33 430 CURVE",
"28 393 LINE",
"43 390 OFFCURVE",
"58 387 OFFCURVE",
"73 383 CURVE",
"211 209 LINE",
"80 59 LINE",
"60 46 OFFCURVE",
"35 35 OFFCURVE",
"18 30 CURVE",
"19 -4 LINE",
"37 -1 OFFCURVE",
"89 1 OFFCURVE",
"118 1 CURVE SMOOTH",
"148 1 OFFCURVE",
"183 -1 OFFCURVE",
"209 -3 CURVE"
);
}
);
width = 536;
}
);
leftKerningGroup = x;
note = x;
rightKerningGroup = x;
unicode = 0078;
},
{
glyphname = y;
layers = (
{
layerId = "DA0EFD29-AE33-4FCF-848B-DE0D51CB696F";
paths = (
{
closed = 1;
nodes = (
"324 395 LINE",
"343 390 OFFCURVE",
"357 384 OFFCURVE",
"370 375 CURVE",
"338 268 OFFCURVE",
"306 167 OFFCURVE",
"272 78 CURVE",
"259 139 LINE",
"165 375 LINE",
"182 385 OFFCURVE",
"203 394 OFFCURVE",
"222 399 CURVE",
"221 431 LINE",
"197 428 OFFCURVE",
"154 425 OFFCURVE",
"114 425 CURVE SMOOTH",
"74 425 OFFCURVE",
"41 427 OFFCURVE",
"5 430 CURVE",
"0 393 LINE",
"17 390 OFFCURVE",
"34 386 OFFCURVE",
"50 381 CURVE",
"235 -9 LINE",
"218 -45 OFFCURVE",
"201 -78 OFFCURVE",
"184 -107 CURVE",
"93 -149 LINE",
"93 -184 OFFCURVE",
"121 -213 OFFCURVE",
"152 -220 CURVE",
"180 -210 OFFCURVE",
"219 -183 OFFCURVE",
"251 -117 CURVE SMOOTH",
"278 -61 OFFCURVE",
"292 10 OFFCURVE",
"328 110 CURVE SMOOTH",
"360 199 OFFCURVE",
"400 293 OFFCURVE",
"446 378 CURVE",
"459 387 OFFCURVE",
"475 396 OFFCURVE",
"489 400 CURVE",
"488 431 LINE",
"470 428 OFFCURVE",
"438 426 OFFCURVE",
"409 426 CURVE SMOOTH",
"379 426 OFFCURVE",
"354 428 OFFCURVE",
"328 430 CURVE"
);
}
);
width = 514;
}
);
leftKerningGroup = y;
note = y;
rightKerningGroup = y;
unicode = 0079;
},
{
glyphname = yacute;
layers = (
{
layerId = "DA0EFD29-AE33-4FCF-848B-DE0D51CB696F";
paths = (
{
closed = 1;
nodes = (
"324 395 LINE",
"343 390 OFFCURVE",
"357 384 OFFCURVE",
"370 375 CURVE",
"338 268 OFFCURVE",
"306 167 OFFCURVE",
"272 78 CURVE",
"259 139 LINE",
"165 375 LINE",
"182 385 OFFCURVE",
"203 394 OFFCURVE",
"222 399 CURVE",
"221 431 LINE",
"197 428 OFFCURVE",
"154 425 OFFCURVE",
"114 425 CURVE SMOOTH",
"74 425 OFFCURVE",
"41 427 OFFCURVE",
"5 430 CURVE",
"0 393 LINE",
"17 390 OFFCURVE",
"34 386 OFFCURVE",
"50 381 CURVE",
"235 -9 LINE",
"218 -45 OFFCURVE",
"201 -78 OFFCURVE",
"184 -107 CURVE",
"93 -149 LINE",
"93 -184 OFFCURVE",
"121 -213 OFFCURVE",
"152 -220 CURVE",
"180 -210 OFFCURVE",
"219 -183 OFFCURVE",
"251 -117 CURVE SMOOTH",
"278 -61 OFFCURVE",
"292 10 OFFCURVE",
"328 110 CURVE SMOOTH",
"360 199 OFFCURVE",
"400 293 OFFCURVE",
"446 378 CURVE",
"459 387 OFFCURVE",
"475 396 OFFCURVE",
"489 400 CURVE",
"488 431 LINE",
"470 428 OFFCURVE",
"438 426 OFFCURVE",
"409 426 CURVE SMOOTH",
"379 426 OFFCURVE",
"354 428 OFFCURVE",
"328 430 CURVE"
);
},
{
closed = 1;
nodes = (
"221 499 LINE",
"298 520 OFFCURVE",
"343 567 OFFCURVE",
"362 626 CURVE",
"309 662 LINE",
"279 658 LINE",
"272 615 OFFCURVE",
"242 568 OFFCURVE",
"197 534 CURVE"
);
}
);
width = 514;
}
);
leftKerningGroup = y;
note = yacute;
rightKerningGroup = y;
unicode = 00FD;
},
{
glyphname = ydieresis;
layers = (
{
layerId = "DA0EFD29-AE33-4FCF-848B-DE0D51CB696F";
paths = (
{
closed = 1;
nodes = (
"324 395 LINE",
"343 390 OFFCURVE",
"357 384 OFFCURVE",
"370 375 CURVE",
"338 268 OFFCURVE",
"306 167 OFFCURVE",
"272 78 CURVE",
"259 139 LINE",
"165 375 LINE",
"182 385 OFFCURVE",
"203 394 OFFCURVE",
"222 399 CURVE",
"221 431 LINE",
"197 428 OFFCURVE",
"154 425 OFFCURVE",
"114 425 CURVE SMOOTH",
"74 425 OFFCURVE",
"41 427 OFFCURVE",
"5 430 CURVE",
"0 393 LINE",
"17 390 OFFCURVE",
"34 386 OFFCURVE",
"50 381 CURVE",
"235 -9 LINE",
"218 -45 OFFCURVE",
"201 -78 OFFCURVE",
"184 -107 CURVE",
"93 -149 LINE",
"93 -184 OFFCURVE",
"121 -213 OFFCURVE",
"152 -220 CURVE",
"180 -210 OFFCURVE",
"219 -183 OFFCURVE",
"251 -117 CURVE SMOOTH",
"278 -61 OFFCURVE",
"292 10 OFFCURVE",
"328 110 CURVE SMOOTH",
"360 199 OFFCURVE",
"400 293 OFFCURVE",
"446 378 CURVE",
"459 387 OFFCURVE",
"475 396 OFFCURVE",
"489 400 CURVE",
"488 431 LINE",
"470 428 OFFCURVE",
"438 426 OFFCURVE",
"409 426 CURVE SMOOTH",
"379 426 OFFCURVE",
"354 428 OFFCURVE",
"328 430 CURVE"
);
},
{
closed = 1;
nodes = (
"114 563 OFFCURVE",
"137 536 OFFCURVE",
"171 536 CURVE SMOOTH",
"206 536 OFFCURVE",
"237 567 OFFCURVE",
"237 607 CURVE SMOOTH",
"237 639 OFFCURVE",
"213 666 OFFCURVE",
"179 666 CURVE SMOOTH",
"145 666 OFFCURVE",
"114 635 OFFCURVE",
"114 596 CURVE SMOOTH"
);
},
{
closed = 1;
nodes = (
"310 563 OFFCURVE",
"333 536 OFFCURVE",
"368 536 CURVE SMOOTH",
"402 536 OFFCURVE",
"434 567 OFFCURVE",
"434 607 CURVE SMOOTH",
"434 639 OFFCURVE",
"410 666 OFFCURVE",
"375 666 CURVE SMOOTH",
"341 666 OFFCURVE",
"310 635 OFFCURVE",
"310 596 CURVE SMOOTH"
);
}
);
width = 514;
}
);
leftKerningGroup = y;
note = ydieresis;
rightKerningGroup = y;
unicode = 00FF;
},
{
glyphname = z;
layers = (
{
layerId = "DA0EFD29-AE33-4FCF-848B-DE0D51CB696F";
paths = (
{
closed = 1;
nodes = (
"80 427 LINE",
"34 300 LINE",
"63 285 LINE",
"112 329 LINE",
"134 335 OFFCURVE",
"160 336 OFFCURVE",
"187 336 CURVE SMOOTH",
"214 336 OFFCURVE",
"242 332 OFFCURVE",
"265 324 CURVE",
"30 17 LINE",
"40 -7 LINE",
"82 -1 OFFCURVE",
"161 0 OFFCURVE",
"205 0 CURVE SMOOTH",
"267 0 OFFCURVE",
"320 -3 OFFCURVE",
"359 -7 CURVE",
"409 116 LINE",
"376 128 LINE",
"341 93 LINE",
"313 85 OFFCURVE",
"276 80 OFFCURVE",
"248 80 CURVE SMOOTH",
"208 80 OFFCURVE",
"179 84 OFFCURVE",
"156 90 CURVE",
"383 397 LINE",
"377 417 LINE",
"149 420 LINE"
);
}
);
width = 434;
}
);
leftKerningGroup = z;
note = z;
rightKerningGroup = z;
unicode = 007A;
},
{
glyphname = zcaron;
layers = (
{
layerId = "DA0EFD29-AE33-4FCF-848B-DE0D51CB696F";
paths = (
{
closed = 1;
nodes = (
"80 427 LINE",
"34 300 LINE",
"63 285 LINE",
"112 329 LINE",
"134 335 OFFCURVE",
"160 336 OFFCURVE",
"187 336 CURVE SMOOTH",
"214 336 OFFCURVE",
"242 332 OFFCURVE",
"265 324 CURVE",
"30 17 LINE",
"40 -7 LINE",
"82 -1 OFFCURVE",
"161 0 OFFCURVE",
"205 0 CURVE SMOOTH",
"267 0 OFFCURVE",
"320 -3 OFFCURVE",
"359 -7 CURVE",
"409 116 LINE",
"376 128 LINE",
"341 93 LINE",
"313 85 OFFCURVE",
"276 80 OFFCURVE",
"248 80 CURVE SMOOTH",
"208 80 OFFCURVE",
"179 84 OFFCURVE",
"156 90 CURVE",
"383 397 LINE",
"377 417 LINE",
"149 420 LINE"
);
},
{
closed = 1;
nodes = (
"238 514 LINE",
"335 613 LINE",
"315 636 LINE",
"228 596 LINE",
"145 635 LINE",
"115 613 LINE",
"191 514 LINE"
);
}
);
width = 434;
}
);
leftKerningGroup = z;
note = zcaron;
rightKerningGroup = z;
unicode = 017E;
},
{
glyphname = f.ss01;
layers = (
{
layerId = "DA0EFD29-AE33-4FCF-848B-DE0D51CB696F";
paths = (
{
closed = 1;
nodes = (
"15 -4 LINE",
"49 0 OFFCURVE",
"93 3 OFFCURVE",
"131 3 CURVE SMOOTH",
"179 3 OFFCURVE",
"239 0 OFFCURVE",
"279 -4 CURVE",
"283 29 LINE",
"243 37 OFFCURVE",
"209 54 OFFCURVE",
"185 73 CURVE",
"179 159 OFFCURVE",
"176 262 OFFCURVE",
"175 345 CURVE",
"305 345 LINE",
"310 356 OFFCURVE",
"312 369 OFFCURVE",
"312 384 CURVE SMOOTH",
"312 399 OFFCURVE",
"309 411 OFFCURVE",
"305 420 CURVE",
"175 420 LINE",
"175 530 OFFCURVE",
"179 569 OFFCURVE",
"184 595 CURVE SMOOTH",
"195 659 OFFCURVE",
"227 722 OFFCURVE",
"262 722 CURVE",
"330 666 LINE",
"360 673 OFFCURVE",
"382 697 OFFCURVE",
"392 728 CURVE",
"372 751 OFFCURVE",
"356 759 OFFCURVE",
"309 759 CURVE SMOOTH",
"214 759 OFFCURVE",
"135 689 OFFCURVE",
"102 588 CURVE SMOOTH",
"91 555 OFFCURVE",
"85 503 OFFCURVE",
"83 418 CURVE",
"33 362 LINE",
"42 345 LINE",
"83 345 LINE",
"83 275 OFFCURVE",
"85 176 OFFCURVE",
"89 74 CURVE",
"71 54 OFFCURVE",
"39 36 OFFCURVE",
"13 27 CURVE"
);
}
);
width = 332;
}
);
note = f.ss01;
},
{
glyphname = S_S;
layers = (
{
layerId = "DA0EFD29-AE33-4FCF-848B-DE0D51CB696F";
paths = (
{
closed = 1;
nodes = (
"73 181 LINE",
"60 61 LINE",
"115 7 OFFCURVE",
"182 -19 OFFCURVE",
"272 -19 CURVE SMOOTH",
"385 -19 OFFCURVE",
"506 37 OFFCURVE",
"506 176 CURVE SMOOTH",
"506 420 OFFCURVE",
"172 403 OFFCURVE",
"172 574 CURVE SMOOTH",
"172 623 OFFCURVE",
"208 667 OFFCURVE",
"276 667 CURVE SMOOTH",
"311 667 OFFCURVE",
"349 653 OFFCURVE",
"374 628 CURVE",
"411 544 LINE",
"453 555 LINE",
"453 655 LINE",
"418 690 OFFCURVE",
"357 710 OFFCURVE",
"287 710 CURVE SMOOTH",
"189 710 OFFCURVE",
"84 648 OFFCURVE",
"84 526 CURVE SMOOTH",
"84 311 OFFCURVE",
"413 305 OFFCURVE",
"413 135 CURVE SMOOTH",
"413 79 OFFCURVE",
"371 32 OFFCURVE",
"289 32 CURVE SMOOTH",
"233 32 OFFCURVE",
"182 58 OFFCURVE",
"146 93 CURVE",
"103 186 LINE"
);
},
{
closed = 1;
nodes = (
"639 181 LINE",
"626 61 LINE",
"681 7 OFFCURVE",
"748 -19 OFFCURVE",
"838 -19 CURVE SMOOTH",
"951 -19 OFFCURVE",
"1072 37 OFFCURVE",
"1072 176 CURVE SMOOTH",
"1072 420 OFFCURVE",
"738 403 OFFCURVE",
"738 574 CURVE SMOOTH",
"738 623 OFFCURVE",
"774 667 OFFCURVE",
"842 667 CURVE SMOOTH",
"877 667 OFFCURVE",
"915 653 OFFCURVE",
"940 628 CURVE",
"977 544 LINE",
"1019 555 LINE",
"1019 655 LINE",
"984 690 OFFCURVE",
"923 710 OFFCURVE",
"853 710 CURVE SMOOTH",
"755 710 OFFCURVE",
"650 648 OFFCURVE",
"650 526 CURVE SMOOTH",
"650 311 OFFCURVE",
"979 305 OFFCURVE",
"979 135 CURVE SMOOTH",
"979 79 OFFCURVE",
"937 32 OFFCURVE",
"855 32 CURVE SMOOTH",
"799 32 OFFCURVE",
"748 58 OFFCURVE",
"712 93 CURVE",
"669 186 LINE"
);
}
);
width = 1132;
}
);
note = S_S;
},
{
glyphname = T_h;
layers = (
{
layerId = "DA0EFD29-AE33-4FCF-848B-DE0D51CB696F";
paths = (
{
closed = 1;
nodes = (
"164 -8 LINE",
"198 -4 OFFCURVE",
"300 0 OFFCURVE",
"338 0 CURVE SMOOTH",
"386 0 OFFCURVE",
"465 -4 OFFCURVE",
"505 -8 CURVE",
"509 37 LINE",
"468 41 OFFCURVE",
"427 52 OFFCURVE",
"398 70 CURVE",
"391 146 OFFCURVE",
"390 238 OFFCURVE",
"390 349 CURVE SMOOTH",
"390 450 OFFCURVE",
"391 567 OFFCURVE",
"397 649 CURVE",
"421 649 LINE SMOOTH",
"531 649 OFFCURVE",
"621 635 OFFCURVE",
"662 616 CURVE",
"671 559 OFFCURVE",
"674 471 OFFCURVE",
"674 355 CURVE SMOOTH",
"674 248 OFFCURVE",
"672 135 OFFCURVE",
"664 64 CURVE",
"649 48 OFFCURVE",
"627 34 OFFCURVE",
"605 28 CURVE",
"607 -3 LINE",
"641 0 OFFCURVE",
"690 2 OFFCURVE",
"714 2 CURVE SMOOTH",
"741 2 OFFCURVE",
"795 1 OFFCURVE",
"835 -3 CURVE",
"837 30 LINE",
"814 37 OFFCURVE",
"793 46 OFFCURVE",
"775 60 CURVE",
"768 124 OFFCURVE",
"764 218 OFFCURVE",
"763 315 CURVE",
"790 338 OFFCURVE",
"833 358 OFFCURVE",
"873 358 CURVE SMOOTH",
"917 358 OFFCURVE",
"947 338 OFFCURVE",
"956 291 CURVE SMOOTH",
"961 266 OFFCURVE",
"961 234 OFFCURVE",
"961 194 CURVE SMOOTH",
"961 151 OFFCURVE",
"959 100 OFFCURVE",
"957 63 CURVE",
"941 46 OFFCURVE",
"918 35 OFFCURVE",
"894 28 CURVE",
"896 -3 LINE",
"930 0 OFFCURVE",
"973 2 OFFCURVE",
"997 2 CURVE SMOOTH",
"1024 2 OFFCURVE",
"1064 1 OFFCURVE",
"1104 -3 CURVE",
"1106 30 LINE",
"1081 38 OFFCURVE",
"1063 47 OFFCURVE",
"1047 63 CURVE",
"1048 106 OFFCURVE",
"1050 151 OFFCURVE",
"1050 200 CURVE SMOOTH",
"1050 245 OFFCURVE",
"1049 291 OFFCURVE",
"1042 329 CURVE SMOOTH",
"1031 389 OFFCURVE",
"989 434 OFFCURVE",
"912 434 CURVE SMOOTH",
"865 434 OFFCURVE",
"810 407 OFFCURVE",
"763 373 CURVE",
"763 508 OFFCURVE",
"764 662 OFFCURVE",
"777 750 CURVE",
"750 756 LINE",
"710 728 OFFCURVE",
"646 707 OFFCURVE",
"606 700 CURVE",
"211 700 LINE",
"77 719 LINE",
"15 577 LINE",
"54 561 LINE",
"87 600 OFFCURVE",
"125 628 OFFCURVE",
"169 649 CURVE",
"280 649 LINE",
"286 561 OFFCURVE",
"287 449 OFFCURVE",
"287 359 CURVE SMOOTH",
"287 238 OFFCURVE",
"283 142 OFFCURVE",
"277 66 CURVE",
"247 48 OFFCURVE",
"200 33 OFFCURVE",
"159 28 CURVE"
);
}
);
width = 1125;
}
);
note = T_h;
},
{
glyphname = f_f;
lastChange = "2019-09-26 08:22:09 +0000";
layers = (
{
layerId = "DA0EFD29-AE33-4FCF-848B-DE0D51CB696F";
paths = (
{
closed = 1;
nodes = (
"295 -4 LINE",
"329 0 OFFCURVE",
"373 3 OFFCURVE",
"411 3 CURVE SMOOTH",
"459 3 OFFCURVE",
"519 0 OFFCURVE",
"559 -4 CURVE",
"563 29 LINE",
"523 37 OFFCURVE",
"489 54 OFFCURVE",
"465 73 CURVE",
"459 159 OFFCURVE",
"456 262 OFFCURVE",
"455 345 CURVE",
"585 345 LINE",
"590 356 OFFCURVE",
"592 369 OFFCURVE",
"592 384 CURVE SMOOTH",
"592 399 OFFCURVE",
"589 411 OFFCURVE",
"585 420 CURVE",
"455 420 LINE",
"455 530 OFFCURVE",
"458 569 OFFCURVE",
"464 595 CURVE SMOOTH",
"481 666 OFFCURVE",
"521 718 OFFCURVE",
"573 718 CURVE",
"660 662 LINE",
"690 669 OFFCURVE",
"712 693 OFFCURVE",
"722 724 CURVE",
"702 747 OFFCURVE",
"669 760 OFFCURVE",
"604 760 CURVE SMOOTH",
"509 760 OFFCURVE",
"415 689 OFFCURVE",
"382 588 CURVE SMOOTH",
"371 555 OFFCURVE",
"365 504 OFFCURVE",
"363 420 CURVE",
"175 420 LINE",
"175 530 OFFCURVE",
"178 569 OFFCURVE",
"184 595 CURVE SMOOTH",
"201 666 OFFCURVE",
"226 708 OFFCURVE",
"266 708 CURVE",
"344 652 LINE",
"374 659 OFFCURVE",
"396 683 OFFCURVE",
"406 714 CURVE",
"386 737 OFFCURVE",
"353 750 OFFCURVE",
"288 750 CURVE SMOOTH",
"215 750 OFFCURVE",
"135 689 OFFCURVE",
"102 588 CURVE SMOOTH",
"91 555 OFFCURVE",
"85 504 OFFCURVE",
"83 419 CURVE",
"22 362 LINE",
"31 345 LINE",
"83 345 LINE",
"83 275 OFFCURVE",
"85 176 OFFCURVE",
"89 74 CURVE",
"71 54 OFFCURVE",
"39 36 OFFCURVE",
"13 27 CURVE",
"15 -4 LINE",
"49 0 OFFCURVE",
"93 3 OFFCURVE",
"131 3 CURVE SMOOTH",
"179 3 OFFCURVE",
"227 0 OFFCURVE",
"267 -4 CURVE",
"271 29 LINE",
"232 37 OFFCURVE",
"206 53 OFFCURVE",
"185 73 CURVE",
"179 159 OFFCURVE",
"176 262 OFFCURVE",
"175 345 CURVE",
"363 345 LINE",
"363 275 OFFCURVE",
"365 176 OFFCURVE",
"369 74 CURVE",
"351 54 OFFCURVE",
"319 36 OFFCURVE",
"293 27 CURVE"
);
}
);
width = 612;
}
);
leftKerningGroup = f;
note = f_f;
rightKerningGroup = f;
},
{
glyphname = f_f_i;
lastChange = "2019-09-26 08:22:09 +0000";
layers = (
{
layerId = "DA0EFD29-AE33-4FCF-848B-DE0D51CB696F";
paths = (
{
closed = 1;
nodes = (
"295 -4 LINE",
"296 -4 LINE",
"325 0 OFFCURVE",
"361 2 OFFCURVE",
"394 3 CURVE SMOOTH",
"433 3 LINE SMOOTH",
"476 2 OFFCURVE",
"525 0 OFFCURVE",
"559 -4 CURVE",
"560 -4 LINE",
"564 29 LINE",
"524 37 OFFCURVE",
"490 54 OFFCURVE",
"466 73 CURVE",
"460 159 OFFCURVE",
"457 262 OFFCURVE",
"456 345 CURVE",
"555 345 LINE",
"560 356 OFFCURVE",
"562 369 OFFCURVE",
"562 384 CURVE SMOOTH",
"562 399 OFFCURVE",
"559 411 OFFCURVE",
"555 420 CURVE",
"456 420 LINE",
"456 530 OFFCURVE",
"459 569 OFFCURVE",
"465 595 CURVE SMOOTH",
"482 666 OFFCURVE",
"522 718 OFFCURVE",
"585 718 CURVE SMOOTH",
"598 718 OFFCURVE",
"613 716 OFFCURVE",
"627 710 CURVE",
"692 588 LINE",
"723 594 OFFCURVE",
"774 617 OFFCURVE",
"784 648 CURVE",
"742 724 OFFCURVE",
"670 760 OFFCURVE",
"605 760 CURVE SMOOTH",
"510 760 OFFCURVE",
"416 689 OFFCURVE",
"383 588 CURVE SMOOTH",
"372 555 OFFCURVE",
"366 504 OFFCURVE",
"364 420 CURVE",
"175 420 LINE",
"175 530 OFFCURVE",
"178 569 OFFCURVE",
"184 595 CURVE SMOOTH",
"201 666 OFFCURVE",
"226 708 OFFCURVE",
"266 708 CURVE",
"344 652 LINE",
"374 659 OFFCURVE",
"396 683 OFFCURVE",
"406 714 CURVE",
"386 737 OFFCURVE",
"353 750 OFFCURVE",
"288 750 CURVE SMOOTH",
"215 750 OFFCURVE",
"135 689 OFFCURVE",
"102 588 CURVE SMOOTH",
"91 555 OFFCURVE",
"85 504 OFFCURVE",
"83 419 CURVE",
"22 362 LINE",
"31 345 LINE",
"83 345 LINE",
"83 275 OFFCURVE",
"85 176 OFFCURVE",
"89 74 CURVE",
"71 54 OFFCURVE",
"39 36 OFFCURVE",
"13 27 CURVE",
"15 -4 LINE",
"49 0 OFFCURVE",
"93 3 OFFCURVE",
"131 3 CURVE SMOOTH",
"179 3 OFFCURVE",
"227 0 OFFCURVE",
"267 -4 CURVE",
"271 29 LINE",
"232 37 OFFCURVE",
"206 53 OFFCURVE",
"185 73 CURVE",
"179 159 OFFCURVE",
"176 262 OFFCURVE",
"175 345 CURVE",
"364 345 LINE",
"364 275 OFFCURVE",
"366 177 OFFCURVE",
"369 75 CURVE",
"352 54 OFFCURVE",
"320 36 OFFCURVE",
"293 27 CURVE"
);
},
{
closed = 1;
nodes = (
"666 289 OFFCURVE",
"668 241 OFFCURVE",
"668 188 CURVE SMOOTH",
"668 136 OFFCURVE",
"667 91 OFFCURVE",
"664 55 CURVE",
"647 41 OFFCURVE",
"625 31 OFFCURVE",
"603 25 CURVE",
"605 -6 LINE",
"639 -3 OFFCURVE",
"678 -1 OFFCURVE",
"702 -1 CURVE SMOOTH",
"729 -1 OFFCURVE",
"781 -2 OFFCURVE",
"821 -6 CURVE",
"823 27 LINE",
"798 35 OFFCURVE",
"778 44 OFFCURVE",
"761 60 CURVE",
"757 107 OFFCURVE",
"757 169 OFFCURVE",
"757 231 CURVE SMOOTH",
"757 314 OFFCURVE",
"758 377 OFFCURVE",
"763 432 CURVE",
"742 439 LINE",
"706 416 OFFCURVE",
"637 390 OFFCURVE",
"600 382 CURVE",
"599 357 LINE",
"618 352 OFFCURVE",
"645 340 OFFCURVE",
"661 323 CURVE"
);
}
);
width = 842;
}
);
note = f_f_i;
rightKerningGroup = f;
},
{
glyphname = fi;
layers = (
{
layerId = "DA0EFD29-AE33-4FCF-848B-DE0D51CB696F";
paths = (
{
closed = 1;
nodes = (
"15 -4 LINE",
"49 0 OFFCURVE",
"93 3 OFFCURVE",
"131 3 CURVE SMOOTH",
"179 3 OFFCURVE",
"239 0 OFFCURVE",
"279 -4 CURVE",
"283 29 LINE",
"243 37 OFFCURVE",
"209 54 OFFCURVE",
"185 73 CURVE",
"179 159 OFFCURVE",
"176 262 OFFCURVE",
"175 345 CURVE",
"275 345 LINE",
"280 356 OFFCURVE",
"282 369 OFFCURVE",
"282 384 CURVE SMOOTH",
"282 399 OFFCURVE",
"279 411 OFFCURVE",
"275 420 CURVE",
"175 420 LINE",
"175 530 OFFCURVE",
"178 569 OFFCURVE",
"184 595 CURVE SMOOTH",
"201 666 OFFCURVE",
"241 718 OFFCURVE",
"304 718 CURVE SMOOTH",
"317 718 OFFCURVE",
"332 716 OFFCURVE",
"346 710 CURVE",
"411 588 LINE",
"442 594 OFFCURVE",
"493 617 OFFCURVE",
"503 648 CURVE",
"461 724 OFFCURVE",
"389 760 OFFCURVE",
"324 760 CURVE SMOOTH",
"229 760 OFFCURVE",
"135 689 OFFCURVE",
"102 588 CURVE SMOOTH",
"91 555 OFFCURVE",
"85 503 OFFCURVE",
"83 418 CURVE",
"33 362 LINE",
"42 345 LINE",
"83 345 LINE",
"83 275 OFFCURVE",
"85 176 OFFCURVE",
"89 74 CURVE",
"71 54 OFFCURVE",
"39 36 OFFCURVE",
"13 27 CURVE"
);
},
{
closed = 1;
nodes = (
"385 289 OFFCURVE",
"387 241 OFFCURVE",
"387 188 CURVE SMOOTH",
"387 136 OFFCURVE",
"386 91 OFFCURVE",
"383 55 CURVE",
"366 41 OFFCURVE",
"344 31 OFFCURVE",
"322 25 CURVE",
"324 -6 LINE",
"358 -3 OFFCURVE",
"397 -1 OFFCURVE",
"421 -1 CURVE SMOOTH",
"448 -1 OFFCURVE",
"500 -2 OFFCURVE",
"540 -6 CURVE",
"542 27 LINE",
"517 35 OFFCURVE",
"497 44 OFFCURVE",
"480 60 CURVE",
"476 107 OFFCURVE",
"476 169 OFFCURVE",
"476 231 CURVE SMOOTH",
"476 314 OFFCURVE",
"477 377 OFFCURVE",
"482 432 CURVE",
"461 439 LINE",
"425 416 OFFCURVE",
"356 390 OFFCURVE",
"319 382 CURVE",
"318 357 LINE",
"337 352 OFFCURVE",
"364 340 OFFCURVE",
"380 323 CURVE"
);
}
);
width = 561;
}
);
leftKerningGroup = f;
note = fi;
unicode = FB01;
},
{
glyphname = fl;
layers = (
{
layerId = "DA0EFD29-AE33-4FCF-848B-DE0D51CB696F";
paths = (
{
closed = 1;
nodes = (
"385 654 LINE",
"391 589 OFFCURVE",
"400 471 OFFCURVE",
"400 355 CURVE SMOOTH",
"400 248 OFFCURVE",
"398 135 OFFCURVE",
"390 65 CURVE",
"374 48 OFFCURVE",
"351 35 OFFCURVE",
"329 28 CURVE",
"331 -3 LINE",
"365 0 OFFCURVE",
"414 2 OFFCURVE",
"438 2 CURVE SMOOTH",
"465 2 OFFCURVE",
"519 1 OFFCURVE",
"559 -3 CURVE",
"561 30 LINE",
"538 37 OFFCURVE",
"517 46 OFFCURVE",
"499 60 CURVE",
"491 135 OFFCURVE",
"487 252 OFFCURVE",
"487 367 CURVE SMOOTH",
"487 504 OFFCURVE",
"490 661 OFFCURVE",
"503 750 CURVE",
"476 756 LINE",
"452 739 OFFCURVE",
"432 734 OFFCURVE",
"418 727 CURVE",
"409 735 OFFCURVE",
"376 760 OFFCURVE",
"324 760 CURVE SMOOTH",
"229 760 OFFCURVE",
"135 689 OFFCURVE",
"102 588 CURVE SMOOTH",
"91 555 OFFCURVE",
"85 503 OFFCURVE",
"83 418 CURVE",
"33 362 LINE",
"42 345 LINE",
"83 345 LINE",
"83 275 OFFCURVE",
"85 176 OFFCURVE",
"89 74 CURVE",
"71 54 OFFCURVE",
"39 36 OFFCURVE",
"13 27 CURVE",
"15 -4 LINE",
"49 0 OFFCURVE",
"93 3 OFFCURVE",
"131 3 CURVE SMOOTH",
"179 3 OFFCURVE",
"229 0 OFFCURVE",
"269 -4 CURVE",
"273 29 LINE",
"234 37 OFFCURVE",
"207 53 OFFCURVE",
"185 73 CURVE",
"179 159 OFFCURVE",
"176 262 OFFCURVE",
"175 345 CURVE",
"305 345 LINE",
"310 356 OFFCURVE",
"312 369 OFFCURVE",
"312 384 CURVE SMOOTH",
"312 399 OFFCURVE",
"309 411 OFFCURVE",
"305 420 CURVE",
"175 420 LINE",
"175 530 OFFCURVE",
"178 569 OFFCURVE",
"184 595 CURVE SMOOTH",
"201 666 OFFCURVE",
"241 718 OFFCURVE",
"293 718 CURVE"
);
}
);
width = 580;
}
);
leftKerningGroup = f;
note = fl;
rightKerningGroup = l;
unicode = FB02;
},
{
glyphname = longs_i;
layers = (
{
layerId = "DA0EFD29-AE33-4FCF-848B-DE0D51CB696F";
paths = (
{
closed = 1;
nodes = (
"15 -4 LINE",
"49 0 OFFCURVE",
"93 3 OFFCURVE",
"131 3 CURVE SMOOTH",
"179 3 OFFCURVE",
"239 0 OFFCURVE",
"279 -4 CURVE",
"283 29 LINE",
"243 37 OFFCURVE",
"209 54 OFFCURVE",
"185 73 CURVE",
"177 188 OFFCURVE",
"175 333 OFFCURVE",
"175 420 CURVE SMOOTH",
"175 530 OFFCURVE",
"178 569 OFFCURVE",
"184 595 CURVE SMOOTH",
"201 666 OFFCURVE",
"241 718 OFFCURVE",
"304 718 CURVE SMOOTH",
"317 718 OFFCURVE",
"332 716 OFFCURVE",
"346 710 CURVE",
"411 588 LINE",
"442 594 OFFCURVE",
"493 617 OFFCURVE",
"503 648 CURVE",
"461 724 OFFCURVE",
"389 760 OFFCURVE",
"324 760 CURVE SMOOTH",
"229 760 OFFCURVE",
"135 689 OFFCURVE",
"102 588 CURVE SMOOTH",
"91 555 OFFCURVE",
"85 503 OFFCURVE",
"83 418 CURVE",
"33 362 LINE",
"42 345 LINE",
"83 345 LINE",
"83 275 OFFCURVE",
"85 176 OFFCURVE",
"89 74 CURVE",
"71 54 OFFCURVE",
"39 36 OFFCURVE",
"13 27 CURVE"
);
},
{
closed = 1;
nodes = (
"385 289 OFFCURVE",
"387 241 OFFCURVE",
"387 188 CURVE SMOOTH",
"387 136 OFFCURVE",
"386 91 OFFCURVE",
"383 55 CURVE",
"366 41 OFFCURVE",
"344 31 OFFCURVE",
"322 25 CURVE",
"324 -6 LINE",
"358 -3 OFFCURVE",
"397 -1 OFFCURVE",
"421 -1 CURVE SMOOTH",
"448 -1 OFFCURVE",
"500 -2 OFFCURVE",
"540 -6 CURVE",
"542 27 LINE",
"517 35 OFFCURVE",
"497 44 OFFCURVE",
"480 60 CURVE",
"476 107 OFFCURVE",
"476 169 OFFCURVE",
"476 231 CURVE SMOOTH",
"476 314 OFFCURVE",
"477 377 OFFCURVE",
"482 432 CURVE",
"461 439 LINE",
"425 416 OFFCURVE",
"356 390 OFFCURVE",
"319 382 CURVE",
"318 357 LINE",
"337 352 OFFCURVE",
"364 340 OFFCURVE",
"380 323 CURVE"
);
}
);
width = 561;
}
);
note = longs_i;
},
{
glyphname = longs_l;
layers = (
{
layerId = "DA0EFD29-AE33-4FCF-848B-DE0D51CB696F";
paths = (
{
closed = 1;
nodes = (
"385 654 LINE",
"391 589 OFFCURVE",
"400 471 OFFCURVE",
"400 355 CURVE SMOOTH",
"400 248 OFFCURVE",
"398 135 OFFCURVE",
"390 65 CURVE",
"374 48 OFFCURVE",
"351 35 OFFCURVE",
"329 28 CURVE",
"331 -3 LINE",
"365 0 OFFCURVE",
"414 2 OFFCURVE",
"438 2 CURVE SMOOTH",
"465 2 OFFCURVE",
"519 1 OFFCURVE",
"559 -3 CURVE",
"561 30 LINE",
"538 37 OFFCURVE",
"517 46 OFFCURVE",
"499 60 CURVE",
"491 135 OFFCURVE",
"487 252 OFFCURVE",
"487 367 CURVE SMOOTH",
"487 504 OFFCURVE",
"490 661 OFFCURVE",
"503 750 CURVE",
"476 756 LINE",
"452 739 OFFCURVE",
"432 734 OFFCURVE",
"418 727 CURVE",
"409 735 OFFCURVE",
"376 760 OFFCURVE",
"324 760 CURVE SMOOTH",
"229 760 OFFCURVE",
"135 689 OFFCURVE",
"102 588 CURVE SMOOTH",
"91 555 OFFCURVE",
"85 503 OFFCURVE",
"83 418 CURVE",
"33 362 LINE",
"42 345 LINE",
"83 345 LINE",
"83 275 OFFCURVE",
"85 176 OFFCURVE",
"89 74 CURVE",
"71 54 OFFCURVE",
"39 36 OFFCURVE",
"13 27 CURVE",
"15 -4 LINE",
"49 0 OFFCURVE",
"93 3 OFFCURVE",
"131 3 CURVE SMOOTH",
"179 3 OFFCURVE",
"229 0 OFFCURVE",
"269 -4 CURVE",
"273 29 LINE",
"234 37 OFFCURVE",
"207 53 OFFCURVE",
"185 73 CURVE",
"177 187 OFFCURVE",
"175 333 OFFCURVE",
"175 420 CURVE SMOOTH",
"175 530 OFFCURVE",
"178 569 OFFCURVE",
"184 595 CURVE SMOOTH",
"201 666 OFFCURVE",
"241 718 OFFCURVE",
"293 718 CURVE"
);
}
);
width = 580;
}
);
note = longs_l;
},
{
glyphname = longs_longs;
layers = (
{
layerId = "DA0EFD29-AE33-4FCF-848B-DE0D51CB696F";
paths = (
{
closed = 1;
nodes = (
"295 -4 LINE",
"329 0 OFFCURVE",
"373 3 OFFCURVE",
"411 3 CURVE SMOOTH",
"459 3 OFFCURVE",
"519 0 OFFCURVE",
"559 -4 CURVE",
"563 29 LINE",
"523 37 OFFCURVE",
"489 54 OFFCURVE",
"465 73 CURVE",
"457 188 OFFCURVE",
"455 333 OFFCURVE",
"455 420 CURVE SMOOTH",
"455 530 OFFCURVE",
"458 569 OFFCURVE",
"464 595 CURVE SMOOTH",
"481 666 OFFCURVE",
"521 718 OFFCURVE",
"573 718 CURVE",
"660 662 LINE",
"690 669 OFFCURVE",
"712 693 OFFCURVE",
"722 724 CURVE",
"702 747 OFFCURVE",
"669 760 OFFCURVE",
"604 760 CURVE SMOOTH",
"509 760 OFFCURVE",
"415 689 OFFCURVE",
"382 588 CURVE SMOOTH",
"371 555 OFFCURVE",
"365 502 OFFCURVE",
"363 415 CURVE",
"306 362 LINE",
"315 345 LINE",
"363 345 LINE",
"363 275 OFFCURVE",
"365 176 OFFCURVE",
"369 74 CURVE",
"351 54 OFFCURVE",
"319 36 OFFCURVE",
"293 27 CURVE"
);
},
{
closed = 1;
nodes = (
"15 -4 LINE",
"49 0 OFFCURVE",
"93 3 OFFCURVE",
"131 3 CURVE SMOOTH",
"179 3 OFFCURVE",
"227 0 OFFCURVE",
"267 -4 CURVE",
"271 29 LINE",
"232 37 OFFCURVE",
"206 53 OFFCURVE",
"185 73 CURVE",
"177 187 OFFCURVE",
"175 333 OFFCURVE",
"175 420 CURVE SMOOTH",
"175 530 OFFCURVE",
"178 569 OFFCURVE",
"184 595 CURVE SMOOTH",
"201 666 OFFCURVE",
"226 708 OFFCURVE",
"266 708 CURVE",
"344 652 LINE",
"374 659 OFFCURVE",
"396 683 OFFCURVE",
"406 714 CURVE",
"386 737 OFFCURVE",
"353 750 OFFCURVE",
"288 750 CURVE SMOOTH",
"215 750 OFFCURVE",
"135 689 OFFCURVE",
"102 588 CURVE SMOOTH",
"91 555 OFFCURVE",
"85 504 OFFCURVE",
"83 419 CURVE",
"22 362 LINE",
"31 345 LINE",
"83 345 LINE",
"83 275 OFFCURVE",
"85 176 OFFCURVE",
"89 74 CURVE",
"71 54 OFFCURVE",
"39 36 OFFCURVE",
"13 27 CURVE"
);
}
);
width = 577;
}
);
note = longs_longs;
},
{
glyphname = Alpha;
layers = (
{
layerId = "DA0EFD29-AE33-4FCF-848B-DE0D51CB696F";
paths = (
{
closed = 1;
nodes = (
"23 -8 LINE",
"57 -3 OFFCURVE",
"106 -1 OFFCURVE",
"136 -1 CURVE SMOOTH",
"184 -1 OFFCURVE",
"244 -4 OFFCURVE",
"284 -8 CURVE",
"288 30 LINE",
"243 39 OFFCURVE",
"179 60 OFFCURVE",
"155 83 CURVE",
"229 263 LINE",
"482 263 LINE",
"510 192 OFFCURVE",
"534 124 OFFCURVE",
"551 65 CURVE",
"523 48 OFFCURVE",
"484 34 OFFCURVE",
"455 28 CURVE",
"457 -8 LINE",
"491 -3 OFFCURVE",
"575 -1 OFFCURVE",
"613 -1 CURVE SMOOTH",
"661 -1 OFFCURVE",
"701 -4 OFFCURVE",
"741 -8 CURVE",
"745 37 LINE",
"719 44 OFFCURVE",
"701 53 OFFCURVE",
"684 65 CURVE",
"395 711 LINE",
"378 711 LINE",
"251 665 LINE",
"249 638 LINE",
"317 622 LINE",
"86 68 LINE",
"68 51 OFFCURVE",
"39 37 OFFCURVE",
"16 30 CURVE"
);
},
{
closed = 1;
nodes = (
"381 500 LINE",
"409 437 OFFCURVE",
"436 374 OFFCURVE",
"462 312 CURVE",
"249 312 LINE",
"326 499 LINE",
"353 579 LINE"
);
}
);
width = 773;
}
);
leftKerningGroup = Alpha;
note = Alpha;
rightKerningGroup = Alpha;
unicode = 0391;
},
{
glyphname = Beta;
layers = (
{
layerId = "DA0EFD29-AE33-4FCF-848B-DE0D51CB696F";
paths = (
{
closed = 1;
nodes = (
"132 233 OFFCURVE",
"126 135 OFFCURVE",
"120 58 CURVE",
"93 43 OFFCURVE",
"58 31 OFFCURVE",
"28 26 CURVE",
"34 -12 LINE",
"70 -6 OFFCURVE",
"122 -1 OFFCURVE",
"170 -1 CURVE SMOOTH",
"224 -1 OFFCURVE",
"282 -8 OFFCURVE",
"342 -8 CURVE SMOOTH",
"515 -8 OFFCURVE",
"608 67 OFFCURVE",
"608 191 CURVE SMOOTH",
"608 296 OFFCURVE",
"514 352 OFFCURVE",
"419 368 CURVE",
"501 387 OFFCURVE",
"565 451 OFFCURVE",
"565 530 CURVE SMOOTH",
"565 656 OFFCURVE",
"437 704 OFFCURVE",
"322 704 CURVE SMOOTH",
"271 704 OFFCURVE",
"243 700 OFFCURVE",
"197 700 CURVE SMOOTH",
"146 700 OFFCURVE",
"93 701 OFFCURVE",
"42 705 CURVE",
"35 667 LINE",
"66 663 OFFCURVE",
"97 655 OFFCURVE",
"124 638 CURVE",
"130 552 OFFCURVE",
"132 445 OFFCURVE",
"132 359 CURVE SMOOTH"
);
},
{
closed = 1;
nodes = (
"250 338 OFFCURVE",
"268 339 OFFCURVE",
"283 339 CURVE SMOOTH",
"427 339 OFFCURVE",
"498 269 OFFCURVE",
"498 179 CURVE SMOOTH",
"498 75 OFFCURVE",
"411 40 OFFCURVE",
"336 40 CURVE SMOOTH",
"298 40 OFFCURVE",
"271 45 OFFCURVE",
"244 56 CURVE",
"236 132 OFFCURVE",
"232 225 OFFCURVE",
"232 337 CURVE"
);
},
{
closed = 1;
nodes = (
"263 649 OFFCURVE",
"282 651 OFFCURVE",
"296 651 CURVE SMOOTH",
"401 651 OFFCURVE",
"455 594 OFFCURVE",
"455 518 CURVE SMOOTH",
"455 440 OFFCURVE",
"398 392 OFFCURVE",
"289 392 CURVE SMOOTH",
"271 392 OFFCURVE",
"254 392 OFFCURVE",
"232 393 CURVE",
"233 481 OFFCURVE",
"237 576 OFFCURVE",
"242 645 CURVE"
);
}
);
width = 678;
}
);
note = Beta;
unicode = 0392;
},
{
glyphname = Gamma;
layers = (
{
layerId = "DA0EFD29-AE33-4FCF-848B-DE0D51CB696F";
paths = (
{
closed = 1;
nodes = (
"33 -8 LINE",
"67 -3 OFFCURVE",
"151 -1 OFFCURVE",
"189 -1 CURVE SMOOTH",
"237 -1 OFFCURVE",
"337 -4 OFFCURVE",
"377 -8 CURVE",
"381 37 LINE",
"324 43 OFFCURVE",
"268 53 OFFCURVE",
"239 70 CURVE",
"232 146 OFFCURVE",
"231 238 OFFCURVE",
"231 349 CURVE SMOOTH",
"231 447 OFFCURVE",
"232 561 OFFCURVE",
"238 642 CURVE",
"266 653 OFFCURVE",
"302 659 OFFCURVE",
"350 659 CURVE SMOOTH",
"416 659 OFFCURVE",
"464 650 OFFCURVE",
"537 553 CURVE",
"564 566 LINE",
"550 712 LINE",
"472 703 OFFCURVE",
"358 700 OFFCURVE",
"253 700 CURVE SMOOTH",
"151 700 OFFCURVE",
"67 702 OFFCURVE",
"33 707 CURVE",
"31 671 LINE",
"65 663 OFFCURVE",
"99 649 OFFCURVE",
"125 630 CURVE",
"130 545 OFFCURVE",
"131 442 OFFCURVE",
"131 359 CURVE SMOOTH",
"131 238 OFFCURVE",
"127 142 OFFCURVE",
"121 66 CURVE",
"96 48 OFFCURVE",
"63 35 OFFCURVE",
"31 28 CURVE"
);
}
);
width = 584;
}
);
note = Gamma;
unicode = 0393;
},
{
glyphname = Delta;
lastChange = "2019-09-26 08:22:09 +0000";
layers = (
{
layerId = "DA0EFD29-AE33-4FCF-848B-DE0D51CB696F";
paths = (
{
closed = 1;
nodes = (
"335 696 LINE",
"39 0 LINE",
"46 -12 LINE",
"131 -7 OFFCURVE",
"250 0 OFFCURVE",
"359 0 CURVE SMOOTH",
"469 0 OFFCURVE",
"604 -6 OFFCURVE",
"702 -11 CURVE",
"712 0 LINE",
"409 701 LINE",
"387 711 LINE"
);
},
{
closed = 1;
nodes = (
"343 602 LINE",
"566 77 LINE",
"481 71 OFFCURVE",
"414 67 OFFCURVE",
"341 67 CURVE SMOOTH",
"269 67 OFFCURVE",
"200 72 OFFCURVE",
"126 77 CURVE"
);
}
);
width = 750;
}
);
note = Delta;
unicode = 0394;
},
{
glyphname = Epsilon;
layers = (
{
layerId = "DA0EFD29-AE33-4FCF-848B-DE0D51CB696F";
paths = (
{
closed = 1;
nodes = (
"456 244 LINE",
"451 278 OFFCURVE",
"450 324 OFFCURVE",
"450 362 CURVE SMOOTH",
"450 403 OFFCURVE",
"453 440 OFFCURVE",
"458 480 CURVE",
"413 484 LINE",
"406 450 OFFCURVE",
"394 413 OFFCURVE",
"376 386 CURVE",
"231 386 LINE",
"231 475 OFFCURVE",
"233 570 OFFCURVE",
"238 642 CURVE",
"266 652 OFFCURVE",
"302 659 OFFCURVE",
"350 659 CURVE SMOOTH",
"393 659 OFFCURVE",
"444 651 OFFCURVE",
"480 634 CURVE",
"531 554 LINE",
"564 566 LINE",
"550 712 LINE",
"472 703 OFFCURVE",
"358 700 OFFCURVE",
"253 700 CURVE SMOOTH",
"151 700 OFFCURVE",
"67 702 OFFCURVE",
"33 707 CURVE",
"31 671 LINE",
"65 663 OFFCURVE",
"99 649 OFFCURVE",
"125 630 CURVE",
"130 545 OFFCURVE",
"131 442 OFFCURVE",
"131 359 CURVE SMOOTH",
"131 238 OFFCURVE",
"127 142 OFFCURVE",
"121 66 CURVE",
"96 48 OFFCURVE",
"63 35 OFFCURVE",
"31 28 CURVE",
"33 -8 LINE",
"67 -3 OFFCURVE",
"151 -1 OFFCURVE",
"189 -1 CURVE SMOOTH",
"254 -1 OFFCURVE",
"472 -5 OFFCURVE",
"550 -14 CURVE",
"594 133 LINE",
"567 146 LINE",
"504 67 LINE",
"461 51 OFFCURVE",
"407 40 OFFCURVE",
"350 40 CURVE SMOOTH",
"303 40 OFFCURVE",
"268 45 OFFCURVE",
"240 55 CURVE",
"232 132 OFFCURVE",
"231 225 OFFCURVE",
"231 337 CURVE",
"375 337 LINE",
"394 311 OFFCURVE",
"406 279 OFFCURVE",
"416 242 CURVE"
);
}
);
width = 634;
}
);
note = Epsilon;
unicode = 0395;
},
{
glyphname = Zeta;
layers = (
{
layerId = "DA0EFD29-AE33-4FCF-848B-DE0D51CB696F";
paths = (
{
closed = 1;
nodes = (
"64 559 LINE",
"99 544 LINE",
"182 623 LINE",
"233 640 OFFCURVE",
"290 650 OFFCURVE",
"355 650 CURVE SMOOTH",
"404 650 OFFCURVE",
"470 647 OFFCURVE",
"519 638 CURVE",
"408 468 OFFCURVE",
"237 268 OFFCURVE",
"30 36 CURVE",
"49 -15 LINE",
"119 -5 OFFCURVE",
"233 0 OFFCURVE",
"327 0 CURVE SMOOTH",
"437 0 OFFCURVE",
"526 -4 OFFCURVE",
"632 -19 CURVE",
"689 136 LINE",
"641 159 LINE",
"560 72 LINE",
"484 54 OFFCURVE",
"423 46 OFFCURVE",
"346 46 CURVE SMOOTH",
"290 46 OFFCURVE",
"235 52 OFFCURVE",
"197 61 CURVE",
"380 261 OFFCURVE",
"559 493 OFFCURVE",
"685 680 CURVE",
"655 710 LINE",
"568 703 OFFCURVE",
"468 700 OFFCURVE",
"378 700 CURVE SMOOTH",
"289 700 OFFCURVE",
"196 705 OFFCURVE",
"114 715 CURVE"
);
}
);
width = 719;
}
);
note = Zeta;
unicode = 0396;
},
{
glyphname = Eta;
layers = (
{
layerId = "DA0EFD29-AE33-4FCF-848B-DE0D51CB696F";
paths = (
{
closed = 1;
nodes = (
"34 -8 LINE",
"68 -4 OFFCURVE",
"145 -1 OFFCURVE",
"183 -1 CURVE SMOOTH",
"231 -1 OFFCURVE",
"271 -4 OFFCURVE",
"311 -8 CURVE",
"315 37 LINE",
"284 44 OFFCURVE",
"255 53 OFFCURVE",
"233 69 CURVE",
"226 145 OFFCURVE",
"225 237 OFFCURVE",
"225 347 CURVE",
"608 347 LINE",
"607 233 OFFCURVE",
"604 141 OFFCURVE",
"599 68 CURVE",
"573 49 OFFCURVE",
"539 35 OFFCURVE",
"505 28 CURVE",
"507 -8 LINE",
"541 -3 OFFCURVE",
"625 -1 OFFCURVE",
"663 -1 CURVE SMOOTH",
"711 -1 OFFCURVE",
"751 -4 OFFCURVE",
"791 -8 CURVE",
"795 37 LINE",
"766 44 OFFCURVE",
"738 52 OFFCURVE",
"716 67 CURVE",
"709 144 OFFCURVE",
"708 236 OFFCURVE",
"708 349 CURVE SMOOTH",
"708 441 OFFCURVE",
"709 547 OFFCURVE",
"714 627 CURVE",
"740 647 OFFCURVE",
"776 663 OFFCURVE",
"812 671 CURVE",
"810 707 LINE",
"776 702 OFFCURVE",
"692 700 OFFCURVE",
"654 700 CURVE SMOOTH",
"606 700 OFFCURVE",
"566 703 OFFCURVE",
"526 707 CURVE",
"522 662 LINE",
"551 654 OFFCURVE",
"580 646 OFFCURVE",
"602 631 CURVE",
"606 558 OFFCURVE",
"608 472 OFFCURVE",
"608 396 CURVE",
"225 396 LINE",
"225 474 OFFCURVE",
"227 556 OFFCURVE",
"231 622 CURVE",
"257 644 OFFCURVE",
"294 660 OFFCURVE",
"332 669 CURVE",
"330 707 LINE",
"296 702 OFFCURVE",
"212 700 OFFCURVE",
"174 700 CURVE SMOOTH",
"126 700 OFFCURVE",
"86 703 OFFCURVE",
"46 707 CURVE",
"42 662 LINE",
"70 655 OFFCURVE",
"97 647 OFFCURVE",
"119 633 CURVE",
"124 548 OFFCURVE",
"125 443 OFFCURVE",
"125 359 CURVE SMOOTH",
"125 238 OFFCURVE",
"121 142 OFFCURVE",
"115 66 CURVE",
"92 50 OFFCURVE",
"64 39 OFFCURVE",
"32 32 CURVE"
);
}
);
width = 838;
}
);
note = Eta;
unicode = 0397;
},
{
glyphname = Theta;
layers = (
{
layerId = "DA0EFD29-AE33-4FCF-848B-DE0D51CB696F";
paths = (
{
closed = 1;
nodes = (
"70 123 OFFCURVE",
"235 -16 OFFCURVE",
"437 -16 CURVE SMOOTH",
"633 -16 OFFCURVE",
"801 141 OFFCURVE",
"801 362 CURVE SMOOTH",
"801 590 OFFCURVE",
"620 710 OFFCURVE",
"452 710 CURVE SMOOTH",
"259 710 OFFCURVE",
"70 566 OFFCURVE",
"70 351 CURVE SMOOTH"
);
},
{
closed = 1;
nodes = (
"566 654 OFFCURVE",
"689 495 OFFCURVE",
"689 330 CURVE SMOOTH",
"689 178 OFFCURVE",
"615 46 OFFCURVE",
"467 46 CURVE SMOOTH",
"332 46 OFFCURVE",
"182 174 OFFCURVE",
"182 380 CURVE SMOOTH",
"182 536 OFFCURVE",
"279 654 OFFCURVE",
"411 654 CURVE SMOOTH"
);
},
{
closed = 1;
nodes = (
"265 441 LINE",
"270 416 OFFCURVE",
"271 382 OFFCURVE",
"271 354 CURVE SMOOTH",
"271 324 OFFCURVE",
"268 296 OFFCURVE",
"263 267 CURVE",
"307 260 LINE",
"312 278 OFFCURVE",
"319 299 OFFCURVE",
"330 318 CURVE",
"535 318 LINE",
"546 301 OFFCURVE",
"555 280 OFFCURVE",
"562 260 CURVE",
"601 265 LINE",
"596 290 OFFCURVE",
"595 324 OFFCURVE",
"595 352 CURVE SMOOTH",
"595 382 OFFCURVE",
"598 410 OFFCURVE",
"603 439 CURVE",
"559 445 LINE",
"554 426 OFFCURVE",
"546 403 OFFCURVE",
"534 385 CURVE",
"333 385 LINE",
"321 402 OFFCURVE",
"311 423 OFFCURVE",
"304 445 CURVE"
);
}
);
width = 871;
}
);
leftKerningGroup = Omicron;
note = Theta;
rightKerningGroup = Omicron;
unicode = 0398;
},
{
glyphname = Iota;
layers = (
{
layerId = "DA0EFD29-AE33-4FCF-848B-DE0D51CB696F";
paths = (
{
closed = 1;
nodes = (
"33 -8 LINE",
"67 -3 OFFCURVE",
"151 -1 OFFCURVE",
"189 -1 CURVE SMOOTH",
"237 -1 OFFCURVE",
"277 -4 OFFCURVE",
"317 -8 CURVE",
"321 37 LINE",
"290 44 OFFCURVE",
"261 53 OFFCURVE",
"239 69 CURVE",
"232 146 OFFCURVE",
"231 238 OFFCURVE",
"231 349 CURVE SMOOTH",
"231 440 OFFCURVE",
"232 545 OFFCURVE",
"237 624 CURVE",
"263 646 OFFCURVE",
"300 662 OFFCURVE",
"338 671 CURVE",
"336 707 LINE",
"302 702 OFFCURVE",
"218 700 OFFCURVE",
"180 700 CURVE SMOOTH",
"132 700 OFFCURVE",
"92 703 OFFCURVE",
"52 707 CURVE",
"48 662 LINE",
"76 655 OFFCURVE",
"103 647 OFFCURVE",
"125 633 CURVE",
"130 548 OFFCURVE",
"131 443 OFFCURVE",
"131 359 CURVE SMOOTH",
"131 238 OFFCURVE",
"127 142 OFFCURVE",
"121 66 CURVE",
"96 48 OFFCURVE",
"63 35 OFFCURVE",
"31 28 CURVE"
);
}
);
width = 361;
}
);
note = Iota;
unicode = 0399;
},
{
glyphname = Kappa;
layers = (
{
layerId = "DA0EFD29-AE33-4FCF-848B-DE0D51CB696F";
paths = (
{
closed = 1;
nodes = (
"58 -8 LINE",
"92 -3 OFFCURVE",
"151 -1 OFFCURVE",
"189 -1 CURVE SMOOTH",
"237 -1 OFFCURVE",
"297 -4 OFFCURVE",
"337 -8 CURVE",
"341 37 LINE",
"301 43 OFFCURVE",
"266 57 OFFCURVE",
"239 72 CURVE",
"233 142 OFFCURVE",
"231 225 OFFCURVE",
"231 323 CURVE",
"319 256 OFFCURVE",
"492 97 OFFCURVE",
"549 -9 CURVE",
"577 -6 OFFCURVE",
"604 -2 OFFCURVE",
"633 -2 CURVE SMOOTH",
"663 -2 OFFCURVE",
"707 -3 OFFCURVE",
"728 -5 CURVE",
"732 27 LINE",
"667 54 LINE",
"582 156 OFFCURVE",
"405 321 OFFCURVE",
"339 370 CURVE",
"633 653 LINE",
"655 660 OFFCURVE",
"677 665 OFFCURVE",
"696 668 CURVE",
"693 707 LINE",
"652 703 OFFCURVE",
"601 700 OFFCURVE",
"574 700 CURVE SMOOTH",
"550 700 OFFCURVE",
"499 702 OFFCURVE",
"460 707 CURVE",
"454 677 LINE",
"472 666 OFFCURVE",
"495 650 OFFCURVE",
"508 630 CURVE",
"455 553 OFFCURVE",
"335 420 OFFCURVE",
"231 352 CURVE",
"231 443 OFFCURVE",
"232 545 OFFCURVE",
"237 624 CURVE",
"263 646 OFFCURVE",
"300 662 OFFCURVE",
"338 671 CURVE",
"336 707 LINE",
"302 702 OFFCURVE",
"218 700 OFFCURVE",
"180 700 CURVE SMOOTH",
"132 700 OFFCURVE",
"92 703 OFFCURVE",
"52 707 CURVE",
"48 662 LINE",
"76 655 OFFCURVE",
"103 647 OFFCURVE",
"125 633 CURVE",
"130 548 OFFCURVE",
"131 443 OFFCURVE",
"131 359 CURVE SMOOTH",
"131 237 OFFCURVE",
"127 140 OFFCURVE",
"121 65 CURVE",
"102 48 OFFCURVE",
"83 36 OFFCURVE",
"56 28 CURVE"
);
}
);
width = 762;
}
);
note = Kappa;
unicode = 039A;
},
{
glyphname = Lambda;
layers = (
{
layerId = "DA0EFD29-AE33-4FCF-848B-DE0D51CB696F";
paths = (
{
closed = 1;
nodes = (
"23 -8 LINE",
"57 -3 OFFCURVE",
"106 -1 OFFCURVE",
"136 -1 CURVE SMOOTH",
"184 -1 OFFCURVE",
"244 -4 OFFCURVE",
"284 -8 CURVE",
"288 30 LINE",
"243 39 OFFCURVE",
"179 60 OFFCURVE",
"155 83 CURVE",
"326 499 LINE",
"353 579 LINE",
"381 500 LINE",
"450 348 OFFCURVE",
"515 188 OFFCURVE",
"551 65 CURVE",
"523 48 OFFCURVE",
"484 34 OFFCURVE",
"455 28 CURVE",
"457 -8 LINE",
"491 -3 OFFCURVE",
"575 -1 OFFCURVE",
"613 -1 CURVE SMOOTH",
"661 -1 OFFCURVE",
"701 -4 OFFCURVE",
"741 -8 CURVE",
"745 37 LINE",
"716 44 OFFCURVE",
"699 55 OFFCURVE",
"681 70 CURVE",
"395 711 LINE",
"378 711 LINE",
"251 665 LINE",
"249 638 LINE",
"317 622 LINE",
"86 68 LINE",
"68 51 OFFCURVE",
"39 37 OFFCURVE",
"16 30 CURVE"
);
}
);
width = 773;
}
);
leftKerningGroup = Alpha;
note = Lambda;
rightKerningGroup = Alpha;
unicode = 039B;
},
{
glyphname = Mu;
lastChange = "2019-09-26 08:22:09 +0000";
layers = (
{
layerId = "DA0EFD29-AE33-4FCF-848B-DE0D51CB696F";
paths = (
{
closed = 1;
nodes = (
"646 -8 LINE",
"680 -3 OFFCURVE",
"772 0 OFFCURVE",
"802 0 CURVE SMOOTH",
"850 0 OFFCURVE",
"922 -4 OFFCURVE",
"962 -8 CURVE",
"966 30 LINE",
"936 36 OFFCURVE",
"902 48 OFFCURVE",
"876 62 CURVE",
"839 246 OFFCURVE",
"818 435 OFFCURVE",
"803 623 CURVE",
"900 672 LINE",
"897 706 LINE",
"866 703 OFFCURVE",
"830 701 OFFCURVE",
"796 701 CURVE SMOOTH",
"765 701 OFFCURVE",
"724 704 OFFCURVE",
"693 707 CURVE",
"506 200 LINE",
"306 709 LINE",
"278 704 OFFCURVE",
"244 702 OFFCURVE",
"209 702 CURVE SMOOTH",
"168 702 OFFCURVE",
"135 704 OFFCURVE",
"101 706 CURVE",
"98 677 LINE",
"197 626 LINE",
"171 438 OFFCURVE",
"135 208 OFFCURVE",
"107 71 CURVE",
"81 51 OFFCURVE",
"45 38 OFFCURVE",
"20 30 CURVE",
"27 -8 LINE",
"61 -3 OFFCURVE",
"105 0 OFFCURVE",
"153 0 CURVE SMOOTH",
"201 0 OFFCURVE",
"253 -4 OFFCURVE",
"293 -8 CURVE",
"297 30 LINE",
"254 38 OFFCURVE",
"203 59 OFFCURVE",
"179 81 CURVE",
"185 216 OFFCURVE",
"205 389 OFFCURVE",
"235 567 CURVE",
"467 -7 LINE",
"486 -7 LINE",
"696 578 LINE",
"728 409 OFFCURVE",
"746 235 OFFCURVE",
"760 74 CURVE",
"732 52 OFFCURVE",
"689 39 OFFCURVE",
"639 30 CURVE"
);
}
);
width = 1002;
}
);
note = Mu;
unicode = "039C,03BC";
},
{
glyphname = Nu;
layers = (
{
layerId = "DA0EFD29-AE33-4FCF-848B-DE0D51CB696F";
paths = (
{
closed = 1;
nodes = (
"839 706 LINE",
"805 701 OFFCURVE",
"746 699 OFFCURVE",
"716 699 CURVE SMOOTH",
"668 699 OFFCURVE",
"620 702 OFFCURVE",
"580 706 CURVE",
"576 668 LINE",
"616 660 OFFCURVE",
"662 642 OFFCURVE",
"688 622 CURVE",
"695 498 OFFCURVE",
"699 308 OFFCURVE",
"699 172 CURVE",
"224 705 LINE",
"200 703 OFFCURVE",
"154 700 OFFCURVE",
"124 700 CURVE SMOOTH",
"97 700 OFFCURVE",
"59 702 OFFCURVE",
"29 704 CURVE",
"27 662 LINE",
"117 629 LINE",
"127 548 OFFCURVE",
"130 457 OFFCURVE",
"130 343 CURVE SMOOTH",
"130 249 OFFCURVE",
"129 157 OFFCURVE",
"125 82 CURVE",
"109 59 OFFCURVE",
"71 39 OFFCURVE",
"42 30 CURVE",
"49 -8 LINE",
"83 -3 OFFCURVE",
"132 -1 OFFCURVE",
"162 -1 CURVE SMOOTH",
"210 -1 OFFCURVE",
"258 -4 OFFCURVE",
"298 -8 CURVE",
"302 30 LINE",
"263 38 OFFCURVE",
"218 55 OFFCURVE",
"192 74 CURVE",
"183 198 OFFCURVE",
"180 352 OFFCURVE",
"180 590 CURVE",
"717 -19 LINE",
"758 0 LINE",
"752 79 OFFCURVE",
"750 218 OFFCURVE",
"750 351 CURVE SMOOTH",
"750 456 OFFCURVE",
"752 544 OFFCURVE",
"756 620 CURVE",
"775 641 OFFCURVE",
"818 659 OFFCURVE",
"846 668 CURVE"
);
}
);
width = 866;
}
);
note = Nu;
unicode = 039D;
},
{
glyphname = Xi;
layers = (
{
layerId = "DA0EFD29-AE33-4FCF-848B-DE0D51CB696F";
paths = (
{
closed = 1;
nodes = (
"275 60 OFFCURVE",
"208 64 OFFCURVE",
"153 75 CURVE",
"116 105 OFFCURVE",
"91 134 OFFCURVE",
"67 166 CURVE",
"40 153 LINE",
"74 -14 LINE",
"152 -5 OFFCURVE",
"261 -1 OFFCURVE",
"326 -1 CURVE SMOOTH",
"391 -1 OFFCURVE",
"500 -5 OFFCURVE",
"578 -14 CURVE",
"612 153 LINE",
"585 166 LINE",
"556 127 OFFCURVE",
"533 97 OFFCURVE",
"509 74 CURVE",
"438 63 OFFCURVE",
"383 60 OFFCURVE",
"332 60 CURVE SMOOTH"
);
},
{
closed = 1;
nodes = (
"386 639 OFFCURVE",
"434 635 OFFCURVE",
"498 620 CURVE",
"524 593 OFFCURVE",
"540 566 OFFCURVE",
"565 533 CURVE",
"592 546 LINE",
"578 712 LINE",
"500 703 OFFCURVE",
"433 700 OFFCURVE",
"328 700 CURVE SMOOTH",
"219 700 OFFCURVE",
"152 703 OFFCURVE",
"74 712 CURVE",
"60 546 LINE",
"87 533 LINE",
"113 567 OFFCURVE",
"130 593 OFFCURVE",
"160 620 CURVE",
"218 635 OFFCURVE",
"264 639 OFFCURVE",
"326 639 CURVE SMOOTH"
);
},
{
closed = 1;
nodes = (
"162 472 LINE",
"167 438 OFFCURVE",
"168 392 OFFCURVE",
"168 354 CURVE SMOOTH",
"168 313 OFFCURVE",
"165 276 OFFCURVE",
"160 236 CURVE",
"205 232 LINE",
"210 261 OFFCURVE",
"220 292 OFFCURVE",
"234 318 CURVE",
"430 318 LINE",
"445 294 OFFCURVE",
"456 264 OFFCURVE",
"464 232 CURVE",
"504 234 LINE",
"499 268 OFFCURVE",
"498 314 OFFCURVE",
"498 352 CURVE SMOOTH",
"498 393 OFFCURVE",
"501 430 OFFCURVE",
"506 470 CURVE",
"461 474 LINE",
"455 443 OFFCURVE",
"445 411 OFFCURVE",
"430 385 CURVE",
"238 385 LINE",
"222 409 OFFCURVE",
"210 440 OFFCURVE",
"202 474 CURVE"
);
}
);
width = 652;
}
);
note = Xi;
unicode = 039E;
},
{
glyphname = Omicron;
layers = (
{
layerId = "DA0EFD29-AE33-4FCF-848B-DE0D51CB696F";
paths = (
{
closed = 1;
nodes = (
"70 123 OFFCURVE",
"235 -16 OFFCURVE",
"437 -16 CURVE SMOOTH",
"633 -16 OFFCURVE",
"801 141 OFFCURVE",
"801 362 CURVE SMOOTH",
"801 590 OFFCURVE",
"620 710 OFFCURVE",
"452 710 CURVE SMOOTH",
"259 710 OFFCURVE",
"70 566 OFFCURVE",
"70 351 CURVE SMOOTH"
);
},
{
closed = 1;
nodes = (
"566 654 OFFCURVE",
"689 495 OFFCURVE",
"689 330 CURVE SMOOTH",
"689 178 OFFCURVE",
"615 46 OFFCURVE",
"467 46 CURVE SMOOTH",
"332 46 OFFCURVE",
"182 174 OFFCURVE",
"182 380 CURVE SMOOTH",
"182 536 OFFCURVE",
"279 654 OFFCURVE",
"411 654 CURVE SMOOTH"
);
}
);
width = 871;
}
);
leftKerningGroup = Omicron;
note = Omicron;
rightKerningGroup = Omicron;
unicode = 039F;
},
{
glyphname = Pi;
layers = (
{
layerId = "DA0EFD29-AE33-4FCF-848B-DE0D51CB696F";
paths = (
{
closed = 1;
nodes = (
"92 -8 LINE",
"126 -3 OFFCURVE",
"210 -1 OFFCURVE",
"248 -1 CURVE SMOOTH",
"296 -1 OFFCURVE",
"336 -4 OFFCURVE",
"376 -8 CURVE",
"380 37 LINE",
"350 44 OFFCURVE",
"321 53 OFFCURVE",
"299 69 CURVE",
"292 145 OFFCURVE",
"290 238 OFFCURVE",
"290 349 CURVE SMOOTH",
"290 442 OFFCURVE",
"291 549 OFFCURVE",
"296 629 CURVE",
"361 638 OFFCURVE",
"410 639 OFFCURVE",
"464 639 CURVE SMOOTH",
"499 639 OFFCURVE",
"553 637 OFFCURVE",
"607 629 CURVE",
"612 545 OFFCURVE",
"613 442 OFFCURVE",
"613 359 CURVE SMOOTH",
"613 238 OFFCURVE",
"609 142 OFFCURVE",
"603 66 CURVE",
"578 48 OFFCURVE",
"545 35 OFFCURVE",
"513 28 CURVE",
"515 -8 LINE",
"549 -3 OFFCURVE",
"633 -1 OFFCURVE",
"671 -1 CURVE SMOOTH",
"719 -1 OFFCURVE",
"759 -4 OFFCURVE",
"799 -8 CURVE",
"803 37 LINE",
"772 44 OFFCURVE",
"743 53 OFFCURVE",
"721 69 CURVE",
"714 146 OFFCURVE",
"713 238 OFFCURVE",
"713 349 CURVE SMOOTH",
"713 440 OFFCURVE",
"714 545 OFFCURVE",
"719 625 CURVE",
"760 645 OFFCURVE",
"826 656 OFFCURVE",
"866 658 CURVE",
"860 709 LINE",
"756 703 OFFCURVE",
"556 700 OFFCURVE",
"466 700 CURVE SMOOTH",
"372 700 OFFCURVE",
"152 703 OFFCURVE",
"43 709 CURVE",
"35 658 LINE",
"92 654 OFFCURVE",
"144 644 OFFCURVE",
"184 624 CURVE",
"189 541 OFFCURVE",
"190 440 OFFCURVE",
"190 359 CURVE SMOOTH",
"190 238 OFFCURVE",
"186 142 OFFCURVE",
"180 66 CURVE",
"155 48 OFFCURVE",
"122 35 OFFCURVE",
"90 28 CURVE"
);
}
);
width = 901;
}
);
note = Pi;
unicode = 03A0;
},
{
glyphname = Rho;
layers = (
{
layerId = "DA0EFD29-AE33-4FCF-848B-DE0D51CB696F";
paths = (
{
closed = 1;
nodes = (
"58 -8 LINE",
"92 -3 OFFCURVE",
"151 -1 OFFCURVE",
"189 -1 CURVE SMOOTH",
"237 -1 OFFCURVE",
"337 -4 OFFCURVE",
"377 -8 CURVE",
"381 37 LINE",
"321 44 OFFCURVE",
"266 58 OFFCURVE",
"238 77 CURVE",
"233 137 OFFCURVE",
"231 206 OFFCURVE",
"231 286 CURVE",
"432 290 OFFCURVE",
"571 334 OFFCURVE",
"571 497 CURVE SMOOTH",
"571 640 OFFCURVE",
"443 705 OFFCURVE",
"328 705 CURVE SMOOTH",
"277 705 OFFCURVE",
"249 700 OFFCURVE",
"203 700 CURVE SMOOTH",
"152 700 OFFCURVE",
"99 701 OFFCURVE",
"48 705 CURVE",
"41 667 LINE",
"70 663 OFFCURVE",
"99 654 OFFCURVE",
"124 639 CURVE",
"130 553 OFFCURVE",
"131 445 OFFCURVE",
"131 359 CURVE SMOOTH",
"131 237 OFFCURVE",
"127 140 OFFCURVE",
"121 65 CURVE",
"102 48 OFFCURVE",
"83 36 OFFCURVE",
"56 28 CURVE"
);
},
{
closed = 1;
nodes = (
"263 649 OFFCURVE",
"285 651 OFFCURVE",
"302 651 CURVE SMOOTH",
"407 651 OFFCURVE",
"461 588 OFFCURVE",
"461 499 CURVE SMOOTH",
"461 404 OFFCURVE",
"404 342 OFFCURVE",
"300 342 CURVE SMOOTH",
"276 342 OFFCURVE",
"257 344 OFFCURVE",
"231 352 CURVE",
"231 450 OFFCURVE",
"232 563 OFFCURVE",
"238 643 CURVE"
);
}
);
width = 621;
}
);
note = Rho;
unicode = 03A1;
},
{
glyphname = Sigma;
layers = (
{
layerId = "DA0EFD29-AE33-4FCF-848B-DE0D51CB696F";
paths = (
{
closed = 1;
nodes = (
"236 652 OFFCURVE",
"296 659 OFFCURVE",
"353 659 CURVE SMOOTH",
"419 659 OFFCURVE",
"467 650 OFFCURVE",
"540 553 CURVE",
"567 566 LINE",
"553 712 LINE",
"475 703 OFFCURVE",
"381 700 OFFCURVE",
"276 700 CURVE SMOOTH",
"174 700 OFFCURVE",
"90 702 OFFCURVE",
"56 707 CURVE",
"42 654 LINE",
"100 614 OFFCURVE",
"201 470 OFFCURVE",
"299 337 CURVE",
"245 258 OFFCURVE",
"142 119 OFFCURVE",
"31 31 CURVE",
"36 -8 LINE",
"70 -3 OFFCURVE",
"154 -1 OFFCURVE",
"192 -1 CURVE SMOOTH",
"257 -1 OFFCURVE",
"475 -5 OFFCURVE",
"553 -14 CURVE",
"597 133 LINE",
"570 146 LINE",
"505 67 OFFCURVE",
"438 60 OFFCURVE",
"353 60 CURVE SMOOTH",
"296 60 OFFCURVE",
"203 75 OFFCURVE",
"172 91 CURVE",
"412 357 LINE",
"405 386 LINE",
"316 455 OFFCURVE",
"265 533 OFFCURVE",
"205 636 CURVE"
);
}
);
width = 637;
}
);
note = Sigma;
unicode = 03A3;
},
{
glyphname = Tau;
layers = (
{
layerId = "DA0EFD29-AE33-4FCF-848B-DE0D51CB696F";
paths = (
{
closed = 1;
nodes = (
"164 -8 LINE",
"198 -4 OFFCURVE",
"300 0 OFFCURVE",
"338 0 CURVE SMOOTH",
"386 0 OFFCURVE",
"465 -4 OFFCURVE",
"505 -8 CURVE",
"509 37 LINE",
"468 41 OFFCURVE",
"427 52 OFFCURVE",
"398 70 CURVE",
"391 146 OFFCURVE",
"390 238 OFFCURVE",
"390 349 CURVE SMOOTH",
"390 450 OFFCURVE",
"391 567 OFFCURVE",
"397 649 CURVE",
"555 649 LINE",
"572 622 OFFCURVE",
"576 596 OFFCURVE",
"577 555 CURVE",
"607 552 LINE",
"694 698 LINE",
"671 718 LINE",
"514 700 LINE",
"211 700 LINE",
"77 719 LINE",
"15 577 LINE",
"54 561 LINE",
"87 600 OFFCURVE",
"125 628 OFFCURVE",
"169 649 CURVE",
"280 649 LINE",
"286 561 OFFCURVE",
"287 449 OFFCURVE",
"287 359 CURVE SMOOTH",
"287 238 OFFCURVE",
"283 142 OFFCURVE",
"277 66 CURVE",
"247 48 OFFCURVE",
"200 33 OFFCURVE",
"159 28 CURVE"
);
}
);
width = 714;
}
);
note = Tau;
unicode = 03A4;
},
{
glyphname = Upsilon;
layers = (
{
layerId = "DA0EFD29-AE33-4FCF-848B-DE0D51CB696F";
paths = (
{
closed = 1;
nodes = (
"209 -8 LINE",
"243 -4 OFFCURVE",
"335 0 OFFCURVE",
"373 0 CURVE SMOOTH",
"421 0 OFFCURVE",
"490 -4 OFFCURVE",
"530 -8 CURVE",
"534 37 LINE",
"493 41 OFFCURVE",
"460 51 OFFCURVE",
"432 70 CURVE",
"427 110 OFFCURVE",
"427 157 OFFCURVE",
"427 211 CURVE SMOOTH",
"427 254 OFFCURVE",
"427 289 OFFCURVE",
"430 321 CURVE",
"671 643 LINE",
"694 656 OFFCURVE",
"724 669 OFFCURVE",
"743 674 CURVE",
"742 706 LINE",
"718 703 OFFCURVE",
"657 700 OFFCURVE",
"617 700 CURVE SMOOTH",
"577 700 OFFCURVE",
"522 702 OFFCURVE",
"486 705 CURVE",
"481 668 LINE",
"515 662 OFFCURVE",
"562 648 OFFCURVE",
"593 632 CURVE",
"403 374 LINE",
"226 647 LINE",
"254 659 OFFCURVE",
"289 669 OFFCURVE",
"312 674 CURVE",
"311 706 LINE",
"287 703 OFFCURVE",
"204 700 OFFCURVE",
"164 700 CURVE SMOOTH",
"124 700 OFFCURVE",
"61 702 OFFCURVE",
"25 705 CURVE",
"20 668 LINE",
"41 664 OFFCURVE",
"65 659 OFFCURVE",
"90 651 CURVE",
"319 317 LINE",
"322 285 OFFCURVE",
"322 254 OFFCURVE",
"322 217 CURVE SMOOTH",
"322 157 OFFCURVE",
"319 107 OFFCURVE",
"315 67 CURVE",
"287 48 OFFCURVE",
"245 34 OFFCURVE",
"204 28 CURVE"
);
}
);
width = 763;
}
);
leftKerningGroup = Upsilon;
note = Upsilon;
rightKerningGroup = Upsilon;
unicode = 03A5;
},
{
glyphname = Phi;
layers = (
{
layerId = "DA0EFD29-AE33-4FCF-848B-DE0D51CB696F";
paths = (
{
closed = 1;
nodes = (
"283 -8 LINE",
"317 -3 OFFCURVE",
"401 -1 OFFCURVE",
"439 -1 CURVE SMOOTH",
"487 -1 OFFCURVE",
"527 -4 OFFCURVE",
"567 -8 CURVE",
"571 37 LINE",
"540 44 OFFCURVE",
"511 53 OFFCURVE",
"489 69 CURVE",
"486 102 LINE",
"658 116 OFFCURVE",
"796 198 OFFCURVE",
"796 347 CURVE SMOOTH",
"796 522 OFFCURVE",
"641 584 OFFCURVE",
"485 593 CURVE",
"487 624 LINE",
"513 646 OFFCURVE",
"550 662 OFFCURVE",
"588 671 CURVE",
"586 707 LINE",
"552 702 OFFCURVE",
"468 700 OFFCURVE",
"430 700 CURVE SMOOTH",
"382 700 OFFCURVE",
"342 703 OFFCURVE",
"302 707 CURVE",
"298 662 LINE",
"326 655 OFFCURVE",
"353 647 OFFCURVE",
"375 633 CURVE",
"376 619 OFFCURVE",
"377 605 OFFCURVE",
"377 591 CURVE",
"210 575 OFFCURVE",
"65 500 OFFCURVE",
"65 350 CURVE SMOOTH",
"65 185 OFFCURVE",
"199 114 OFFCURVE",
"374 102 CURVE",
"371 66 LINE",
"346 48 OFFCURVE",
"313 35 OFFCURVE",
"281 28 CURVE"
);
},
{
closed = 1;
nodes = (
"691 215 OFFCURVE",
"621 154 OFFCURVE",
"484 148 CURVE",
"481 207 OFFCURVE",
"481 274 OFFCURVE",
"481 349 CURVE SMOOTH",
"481 412 OFFCURVE",
"481 481 OFFCURVE",
"483 544 CURVE",
"599 524 OFFCURVE",
"691 446 OFFCURVE",
"691 335 CURVE SMOOTH"
);
},
{
closed = 1;
nodes = (
"170 481 OFFCURVE",
"252 538 OFFCURVE",
"379 548 CURVE",
"381 484 OFFCURVE",
"381 417 OFFCURVE",
"381 359 CURVE SMOOTH",
"381 282 OFFCURVE",
"379 214 OFFCURVE",
"377 156 CURVE",
"267 178 OFFCURVE",
"170 245 OFFCURVE",
"170 368 CURVE SMOOTH"
);
}
);
width = 861;
}
);
note = Phi;
unicode = 03A6;
},
{
glyphname = Chi;
layers = (
{
layerId = "DA0EFD29-AE33-4FCF-848B-DE0D51CB696F";
paths = (
{
closed = 1;
nodes = (
"297 37 LINE",
"262 42 OFFCURVE",
"213 57 OFFCURVE",
"182 73 CURVE",
"368 304 LINE",
"554 60 LINE",
"524 47 OFFCURVE",
"486 35 OFFCURVE",
"462 31 CURVE",
"463 -6 LINE",
"487 -3 OFFCURVE",
"570 0 OFFCURVE",
"610 0 CURVE SMOOTH",
"650 0 OFFCURVE",
"733 -2 OFFCURVE",
"769 -5 CURVE",
"774 37 LINE",
"752 40 OFFCURVE",
"727 46 OFFCURVE",
"702 54 CURVE",
"447 390 LINE",
"648 635 LINE",
"671 650 OFFCURVE",
"710 668 OFFCURVE",
"732 674 CURVE",
"731 706 LINE",
"707 703 OFFCURVE",
"646 700 OFFCURVE",
"606 700 CURVE SMOOTH",
"566 700 OFFCURVE",
"511 702 OFFCURVE",
"475 705 CURVE",
"470 668 LINE",
"504 663 OFFCURVE",
"550 648 OFFCURVE",
"581 633 CURVE",
"417 430 LINE",
"251 648 LINE",
"279 659 OFFCURVE",
"313 670 OFFCURVE",
"335 674 CURVE",
"334 706 LINE",
"310 703 OFFCURVE",
"227 700 OFFCURVE",
"187 700 CURVE SMOOTH",
"147 700 OFFCURVE",
"84 702 OFFCURVE",
"48 705 CURVE",
"43 668 LINE",
"61 665 OFFCURVE",
"81 661 OFFCURVE",
"102 654 CURVE",
"337 345 LINE",
"103 62 LINE",
"78 49 OFFCURVE",
"43 36 OFFCURVE",
"25 31 CURVE",
"26 -6 LINE",
"50 -3 OFFCURVE",
"111 0 OFFCURVE",
"151 0 CURVE SMOOTH",
"191 0 OFFCURVE",
"256 -2 OFFCURVE",
"292 -5 CURVE"
);
}
);
width = 799;
}
);
note = Chi;
unicode = 03A7;
},
{
glyphname = Psi;
layers = (
{
layerId = "DA0EFD29-AE33-4FCF-848B-DE0D51CB696F";
paths = (
{
closed = 1;
nodes = (
"35 668 LINE",
"121 633 LINE",
"121 353 OFFCURVE",
"244 270 OFFCURVE",
"446 259 CURVE",
"444 184 OFFCURVE",
"441 120 OFFCURVE",
"437 67 CURVE",
"407 48 OFFCURVE",
"359 34 OFFCURVE",
"318 28 CURVE",
"323 -8 LINE",
"357 -4 OFFCURVE",
"459 0 OFFCURVE",
"497 0 CURVE SMOOTH",
"545 0 OFFCURVE",
"624 -4 OFFCURVE",
"664 -8 CURVE",
"668 37 LINE",
"627 41 OFFCURVE",
"585 52 OFFCURVE",
"555 71 CURVE",
"550 126 OFFCURVE",
"548 188 OFFCURVE",
"547 260 CURVE",
"740 272 OFFCURVE",
"877 360 OFFCURVE",
"877 651 CURVE",
"942 670 LINE",
"939 709 LINE",
"913 706 OFFCURVE",
"873 704 OFFCURVE",
"831 704 CURVE SMOOTH",
"811 704 OFFCURVE",
"791 704 OFFCURVE",
"772 705 CURVE",
"772 424 OFFCURVE",
"723 330 OFFCURVE",
"547 319 CURVE",
"547 349 LINE SMOOTH",
"547 440 OFFCURVE",
"548 545 OFFCURVE",
"553 624 CURVE",
"579 646 OFFCURVE",
"616 658 OFFCURVE",
"654 667 CURVE",
"652 707 LINE",
"618 702 OFFCURVE",
"534 700 OFFCURVE",
"496 700 CURVE SMOOTH",
"448 700 OFFCURVE",
"405 703 OFFCURVE",
"365 707 CURVE",
"359 665 LINE",
"387 658 OFFCURVE",
"418 648 OFFCURVE",
"441 633 CURVE",
"446 548 OFFCURVE",
"447 443 OFFCURVE",
"447 359 CURVE SMOOTH",
"447 321 LINE",
"292 338 OFFCURVE",
"231 431 OFFCURVE",
"231 709 CURVE",
"196 705 OFFCURVE",
"157 703 OFFCURVE",
"120 703 CURVE SMOOTH",
"92 703 OFFCURVE",
"65 704 OFFCURVE",
"40 706 CURVE"
);
}
);
width = 967;
}
);
note = Psi;
unicode = 03A8;
},
{
glyphname = Omega;
lastChange = "2019-09-26 08:22:09 +0000";
layers = (
{
layerId = "DA0EFD29-AE33-4FCF-848B-DE0D51CB696F";
paths = (
{
closed = 1;
nodes = (
"536 0 LINE",
"831 0 LINE",
"846 126 LINE",
"808 140 LINE",
"776 75 LINE",
"742 60 OFFCURVE",
"701 46 OFFCURVE",
"608 43 CURVE",
"704 115 OFFCURVE",
"786 226 OFFCURVE",
"786 362 CURVE SMOOTH",
"786 590 OFFCURVE",
"625 710 OFFCURVE",
"457 710 CURVE SMOOTH",
"264 710 OFFCURVE",
"95 566 OFFCURVE",
"95 351 CURVE SMOOTH",
"95 220 OFFCURVE",
"163 115 OFFCURVE",
"279 48 CURVE",
"194 52 OFFCURVE",
"151 63 OFFCURVE",
"120 77 CURVE",
"79 138 LINE",
"35 129 LINE",
"62 0 LINE",
"371 0 LINE",
"373 53 LINE",
"290 125 OFFCURVE",
"207 234 OFFCURVE",
"207 380 CURVE SMOOTH",
"207 536 OFFCURVE",
"284 654 OFFCURVE",
"416 654 CURVE SMOOTH",
"571 654 OFFCURVE",
"674 513 OFFCURVE",
"674 348 CURVE SMOOTH",
"674 232 OFFCURVE",
"603 112 OFFCURVE",
"527 51 CURVE"
);
}
);
width = 881;
}
);
note = Omega;
unicode = 03A9;
},
{
glyphname = Alphatonos;
layers = (
{
layerId = "DA0EFD29-AE33-4FCF-848B-DE0D51CB696F";
paths = (
{
closed = 1;
nodes = (
"45 -8 LINE",
"79 -3 OFFCURVE",
"128 -1 OFFCURVE",
"158 -1 CURVE SMOOTH",
"206 -1 OFFCURVE",
"266 -4 OFFCURVE",
"306 -8 CURVE",
"310 30 LINE",
"265 39 OFFCURVE",
"201 60 OFFCURVE",
"177 83 CURVE",
"251 263 LINE",
"504 263 LINE",
"532 192 OFFCURVE",
"556 124 OFFCURVE",
"573 65 CURVE",
"545 48 OFFCURVE",
"506 34 OFFCURVE",
"477 28 CURVE",
"479 -8 LINE",
"513 -3 OFFCURVE",
"597 -1 OFFCURVE",
"635 -1 CURVE SMOOTH",
"683 -1 OFFCURVE",
"723 -4 OFFCURVE",
"763 -8 CURVE",
"767 37 LINE",
"741 44 OFFCURVE",
"723 53 OFFCURVE",
"706 65 CURVE",
"417 711 LINE",
"400 711 LINE",
"273 665 LINE",
"271 638 LINE",
"339 622 LINE",
"108 68 LINE",
"90 51 OFFCURVE",
"61 37 OFFCURVE",
"38 30 CURVE"
);
},
{
closed = 1;
nodes = (
"403 500 LINE",
"431 437 OFFCURVE",
"458 374 OFFCURVE",
"484 312 CURVE",
"271 312 LINE",
"348 499 LINE",
"375 579 LINE"
);
},
{
closed = 1;
nodes = (
"59 546 LINE",
"136 567 OFFCURVE",
"181 614 OFFCURVE",
"200 673 CURVE",
"147 709 LINE",
"117 705 LINE",
"110 662 OFFCURVE",
"80 615 OFFCURVE",
"35 581 CURVE"
);
}
);
width = 795;
}
);
note = Alphatonos;
rightKerningGroup = Alpha;
unicode = 0386;
},
{
glyphname = Epsilontonos;
layers = (
{
layerId = "DA0EFD29-AE33-4FCF-848B-DE0D51CB696F";
paths = (
{
closed = 1;
nodes = (
"701 244 LINE",
"696 278 OFFCURVE",
"695 324 OFFCURVE",
"695 362 CURVE SMOOTH",
"695 403 OFFCURVE",
"698 440 OFFCURVE",
"703 480 CURVE",
"658 484 LINE",
"651 450 OFFCURVE",
"639 413 OFFCURVE",
"621 386 CURVE",
"476 386 LINE",
"476 475 OFFCURVE",
"478 570 OFFCURVE",
"483 642 CURVE",
"511 652 OFFCURVE",
"547 659 OFFCURVE",
"595 659 CURVE SMOOTH",
"638 659 OFFCURVE",
"689 651 OFFCURVE",
"725 634 CURVE",
"776 554 LINE",
"809 566 LINE",
"795 712 LINE",
"717 703 OFFCURVE",
"603 700 OFFCURVE",
"498 700 CURVE SMOOTH",
"396 700 OFFCURVE",
"312 702 OFFCURVE",
"278 707 CURVE",
"276 671 LINE",
"310 663 OFFCURVE",
"344 649 OFFCURVE",
"370 630 CURVE",
"375 545 OFFCURVE",
"376 442 OFFCURVE",
"376 359 CURVE SMOOTH",
"376 238 OFFCURVE",
"372 142 OFFCURVE",
"366 66 CURVE",
"341 48 OFFCURVE",
"308 35 OFFCURVE",
"276 28 CURVE",
"278 -8 LINE",
"312 -3 OFFCURVE",
"396 -1 OFFCURVE",
"434 -1 CURVE SMOOTH",
"499 -1 OFFCURVE",
"717 -5 OFFCURVE",
"795 -14 CURVE",
"839 133 LINE",
"812 146 LINE",
"749 67 LINE",
"706 51 OFFCURVE",
"652 40 OFFCURVE",
"595 40 CURVE SMOOTH",
"548 40 OFFCURVE",
"513 45 OFFCURVE",
"485 55 CURVE",
"477 132 OFFCURVE",
"476 225 OFFCURVE",
"476 337 CURVE",
"620 337 LINE",
"639 311 OFFCURVE",
"651 279 OFFCURVE",
"661 242 CURVE"
);
},
{
closed = 1;
nodes = (
"59 549 LINE",
"136 570 OFFCURVE",
"181 617 OFFCURVE",
"200 676 CURVE",
"147 712 LINE",
"117 708 LINE",
"110 665 OFFCURVE",
"80 618 OFFCURVE",
"35 584 CURVE"
);
}
);
width = 879;
}
);
note = Epsilontonos;
unicode = 0388;
},
{
glyphname = Etatonos;
layers = (
{
layerId = "DA0EFD29-AE33-4FCF-848B-DE0D51CB696F";
paths = (
{
closed = 1;
nodes = (
"259 -8 LINE",
"293 -4 OFFCURVE",
"370 -1 OFFCURVE",
"408 -1 CURVE SMOOTH",
"456 -1 OFFCURVE",
"496 -4 OFFCURVE",
"536 -8 CURVE",
"540 37 LINE",
"509 44 OFFCURVE",
"480 53 OFFCURVE",
"458 69 CURVE",
"451 145 OFFCURVE",
"450 237 OFFCURVE",
"450 347 CURVE",
"833 347 LINE",
"832 233 OFFCURVE",
"829 141 OFFCURVE",
"824 68 CURVE",
"798 49 OFFCURVE",
"764 35 OFFCURVE",
"730 28 CURVE",
"732 -8 LINE",
"766 -3 OFFCURVE",
"850 -1 OFFCURVE",
"888 -1 CURVE SMOOTH",
"936 -1 OFFCURVE",
"976 -4 OFFCURVE",
"1016 -8 CURVE",
"1020 37 LINE",
"991 44 OFFCURVE",
"963 52 OFFCURVE",
"941 67 CURVE",
"934 144 OFFCURVE",
"933 236 OFFCURVE",
"933 349 CURVE SMOOTH",
"933 441 OFFCURVE",
"934 547 OFFCURVE",
"939 627 CURVE",
"965 647 OFFCURVE",
"1001 663 OFFCURVE",
"1037 671 CURVE",
"1035 707 LINE",
"1001 702 OFFCURVE",
"917 700 OFFCURVE",
"879 700 CURVE SMOOTH",
"831 700 OFFCURVE",
"791 703 OFFCURVE",
"751 707 CURVE",
"747 662 LINE",
"776 654 OFFCURVE",
"805 646 OFFCURVE",
"827 631 CURVE",
"831 558 OFFCURVE",
"833 472 OFFCURVE",
"833 396 CURVE",
"450 396 LINE",
"450 474 OFFCURVE",
"452 556 OFFCURVE",
"456 622 CURVE",
"482 644 OFFCURVE",
"519 660 OFFCURVE",
"557 669 CURVE",
"555 707 LINE",
"521 702 OFFCURVE",
"437 700 OFFCURVE",
"399 700 CURVE SMOOTH",
"351 700 OFFCURVE",
"311 703 OFFCURVE",
"271 707 CURVE",
"267 662 LINE",
"295 655 OFFCURVE",
"322 647 OFFCURVE",
"344 633 CURVE",
"349 548 OFFCURVE",
"350 443 OFFCURVE",
"350 359 CURVE SMOOTH",
"350 238 OFFCURVE",
"346 142 OFFCURVE",
"340 66 CURVE",
"317 50 OFFCURVE",
"289 39 OFFCURVE",
"257 32 CURVE"
);
},
{
closed = 1;
nodes = (
"59 547 LINE",
"136 568 OFFCURVE",
"181 615 OFFCURVE",
"200 674 CURVE",
"147 710 LINE",
"117 706 LINE",
"110 663 OFFCURVE",
"80 616 OFFCURVE",
"35 582 CURVE"
);
}
);
width = 1063;
}
);
note = Etatonos;
unicode = 0389;
},
{
glyphname = Iotatonos;
layers = (
{
layerId = "DA0EFD29-AE33-4FCF-848B-DE0D51CB696F";
paths = (
{
closed = 1;
nodes = (
"243 -8 LINE",
"277 -3 OFFCURVE",
"361 -1 OFFCURVE",
"399 -1 CURVE SMOOTH",
"447 -1 OFFCURVE",
"487 -4 OFFCURVE",
"527 -8 CURVE",
"531 37 LINE",
"500 44 OFFCURVE",
"471 53 OFFCURVE",
"449 69 CURVE",
"442 146 OFFCURVE",
"441 238 OFFCURVE",
"441 349 CURVE SMOOTH",
"441 440 OFFCURVE",
"442 545 OFFCURVE",
"447 624 CURVE",
"473 646 OFFCURVE",
"510 662 OFFCURVE",
"548 671 CURVE",
"546 707 LINE",
"512 702 OFFCURVE",
"428 700 OFFCURVE",
"390 700 CURVE SMOOTH",
"342 700 OFFCURVE",
"302 703 OFFCURVE",
"262 707 CURVE",
"258 662 LINE",
"286 655 OFFCURVE",
"313 647 OFFCURVE",
"335 633 CURVE",
"340 548 OFFCURVE",
"341 443 OFFCURVE",
"341 359 CURVE SMOOTH",
"341 238 OFFCURVE",
"337 142 OFFCURVE",
"331 66 CURVE",
"306 48 OFFCURVE",
"273 35 OFFCURVE",
"241 28 CURVE"
);
},
{
closed = 1;
nodes = (
"59 548 LINE",
"136 569 OFFCURVE",
"181 616 OFFCURVE",
"200 675 CURVE",
"147 711 LINE",
"117 707 LINE",
"110 664 OFFCURVE",
"80 617 OFFCURVE",
"35 583 CURVE"
);
}
);
width = 571;
}
);
note = Iotatonos;
unicode = 038A;
},
{
glyphname = Omicrontonos;
layers = (
{
layerId = "DA0EFD29-AE33-4FCF-848B-DE0D51CB696F";
paths = (
{
closed = 1;
nodes = (
"170 123 OFFCURVE",
"335 -16 OFFCURVE",
"537 -16 CURVE SMOOTH",
"733 -16 OFFCURVE",
"901 141 OFFCURVE",
"901 362 CURVE SMOOTH",
"901 590 OFFCURVE",
"720 710 OFFCURVE",
"552 710 CURVE SMOOTH",
"359 710 OFFCURVE",
"170 566 OFFCURVE",
"170 351 CURVE SMOOTH"
);
},
{
closed = 1;
nodes = (
"666 654 OFFCURVE",
"789 495 OFFCURVE",
"789 330 CURVE SMOOTH",
"789 178 OFFCURVE",
"715 46 OFFCURVE",
"567 46 CURVE SMOOTH",
"432 46 OFFCURVE",
"282 174 OFFCURVE",
"282 380 CURVE SMOOTH",
"282 536 OFFCURVE",
"379 654 OFFCURVE",
"511 654 CURVE SMOOTH"
);
},
{
closed = 1;
nodes = (
"59 548 LINE",
"136 569 OFFCURVE",
"181 616 OFFCURVE",
"200 675 CURVE",
"147 711 LINE",
"117 707 LINE",
"110 664 OFFCURVE",
"80 617 OFFCURVE",
"35 583 CURVE"
);
}
);
width = 971;
}
);
note = Omicrontonos;
unicode = 038C;
},
{
glyphname = Upsilontonos;
layers = (
{
layerId = "DA0EFD29-AE33-4FCF-848B-DE0D51CB696F";
paths = (
{
closed = 1;
nodes = (
"443 -8 LINE",
"477 -4 OFFCURVE",
"569 0 OFFCURVE",
"607 0 CURVE SMOOTH",
"655 0 OFFCURVE",
"724 -4 OFFCURVE",
"764 -8 CURVE",
"768 37 LINE",
"727 41 OFFCURVE",
"694 51 OFFCURVE",
"666 70 CURVE",
"661 110 OFFCURVE",
"661 157 OFFCURVE",
"661 211 CURVE SMOOTH",
"661 254 OFFCURVE",
"661 289 OFFCURVE",
"664 321 CURVE",
"905 643 LINE",
"928 656 OFFCURVE",
"958 669 OFFCURVE",
"977 674 CURVE",
"976 706 LINE",
"952 703 OFFCURVE",
"891 700 OFFCURVE",
"851 700 CURVE SMOOTH",
"811 700 OFFCURVE",
"756 702 OFFCURVE",
"720 705 CURVE",
"715 668 LINE",
"749 662 OFFCURVE",
"796 648 OFFCURVE",
"827 632 CURVE",
"637 374 LINE",
"460 647 LINE",
"488 659 OFFCURVE",
"523 669 OFFCURVE",
"546 674 CURVE",
"545 706 LINE",
"521 703 OFFCURVE",
"438 700 OFFCURVE",
"398 700 CURVE SMOOTH",
"358 700 OFFCURVE",
"295 702 OFFCURVE",
"259 705 CURVE",
"254 668 LINE",
"275 664 OFFCURVE",
"299 659 OFFCURVE",
"324 651 CURVE",
"553 317 LINE",
"556 285 OFFCURVE",
"556 254 OFFCURVE",
"556 217 CURVE SMOOTH",
"556 157 OFFCURVE",
"553 107 OFFCURVE",
"549 67 CURVE",
"521 48 OFFCURVE",
"479 34 OFFCURVE",
"438 28 CURVE"
);
},
{
closed = 1;
nodes = (
"59 547 LINE",
"136 568 OFFCURVE",
"181 615 OFFCURVE",
"200 674 CURVE",
"147 710 LINE",
"117 706 LINE",
"110 663 OFFCURVE",
"80 616 OFFCURVE",
"35 582 CURVE"
);
}
);
width = 997;
}
);
note = Upsilontonos;
rightKerningGroup = Upsilon;
unicode = 038E;
},
{
glyphname = Omegatonos;
layers = (
{
layerId = "DA0EFD29-AE33-4FCF-848B-DE0D51CB696F";
paths = (
{
closed = 1;
nodes = (
"630 0 LINE",
"925 0 LINE",
"940 126 LINE",
"902 140 LINE",
"870 75 LINE",
"836 60 OFFCURVE",
"795 46 OFFCURVE",
"702 43 CURVE",
"798 115 OFFCURVE",
"880 226 OFFCURVE",
"880 362 CURVE SMOOTH",
"880 590 OFFCURVE",
"719 710 OFFCURVE",
"551 710 CURVE SMOOTH",
"358 710 OFFCURVE",
"189 566 OFFCURVE",
"189 351 CURVE SMOOTH",
"189 220 OFFCURVE",
"257 115 OFFCURVE",
"373 48 CURVE",
"288 52 OFFCURVE",
"245 63 OFFCURVE",
"214 77 CURVE",
"173 138 LINE",
"129 129 LINE",
"156 0 LINE",
"465 0 LINE",
"467 53 LINE",
"384 125 OFFCURVE",
"301 234 OFFCURVE",
"301 380 CURVE SMOOTH",
"301 536 OFFCURVE",
"378 654 OFFCURVE",
"510 654 CURVE SMOOTH",
"665 654 OFFCURVE",
"768 513 OFFCURVE",
"768 348 CURVE SMOOTH",
"768 232 OFFCURVE",
"697 112 OFFCURVE",
"621 51 CURVE"
);
},
{
closed = 1;
nodes = (
"59 547 LINE",
"136 568 OFFCURVE",
"181 615 OFFCURVE",
"200 674 CURVE",
"147 710 LINE",
"117 706 LINE",
"110 663 OFFCURVE",
"80 616 OFFCURVE",
"35 582 CURVE"
);
}
);
width = 975;
}
);
note = Omegatonos;
unicode = 038F;
},
